<?xml version="1.0" standalone="no"?>
<!DOCTYPE svg PUBLIC "-//W3C//DTD SVG 1.1//EN" "http://www.w3.org/Graphics/SVG/1.1/DTD/svg11.dtd" >
<svg xmlns="http://www.w3.org/2000/svg">
<metadata></metadata>
<defs>
<font id="SSJunior" >
<font-face font-family="SS Junior" units-per-em="2048" ascent="2176" descent="-640" />
<missing-glyph  />
<glyph  horiz-adv-x="2048"  />
<glyph unicode="+" horiz-adv-x="2048" d="M1280 768v-448q0 -52 -38 -90t-90 -38h-256q-52 0 -90 38t-38 90v448h-448q-52 0 -90 38t-38 90v256q0 52 38 90t90 38h448v448q0 52 38 90t90 38h256q52 0 90 -38t38 -90v-448h448q53 0 90.5 -37.5t37.5 -90.5v-256q0 -52 -38 -90t-90 -38h-448z" />
<glyph unicode="-" horiz-adv-x="2048" d="M1728 768h-1408q-52 0 -90 38t-38 90v256q0 52 38 90t90 38h1408q53 0 90.5 -37.5t37.5 -90.5v-256q0 -52 -38 -90t-90 -38z" />
<glyph unicode="&#x201c;" horiz-adv-x="2048" d="M1920 1024q53 0 90.5 -37.5t37.5 -90.5v-640q0 -53 -37.5 -90.5t-90.5 -37.5h-640q-52 0 -90 38t-38 90v896q0 68 12.5 140t41.5 147.5t71 144.5t105 131t139.5 107t179 71.5t219.5 26.5v-512q-74 0 -126 -23t-78.5 -63t-38.5 -82t-13 -91v-125h256zM768 1024
q53 0 90.5 -37.5t37.5 -90.5v-640q0 -53 -37.5 -90.5t-90.5 -37.5h-640q-52 0 -90 38t-38 90v896q0 68 12.5 140t41.5 147.5t71 144.5t105 131t139.5 107t179 71.5t219.5 26.5v-512q-74 0 -126 -23t-78.5 -63t-38.5 -82t-13 -91v-125h256z" />
<glyph unicode="&#x2026;" horiz-adv-x="2048" d="M256 1280q106 0 181 -75t75 -181t-75 -181t-181 -75t-181 75t-75 181t75 181t181 75zM1792 1280q106 0 181 -75t75 -181t-75 -181t-181 -75t-181 75t-75 181t75 181t181 75zM1024 1280q106 0 181 -75t75 -181t-75 -181t-181 -75t-181 75t-75 181t75 181t181 75z" />
<glyph unicode="&#x2139;" horiz-adv-x="2048" d="M1024 1280q80 0 136 56t56 136t-56 136t-136 56t-136 -56t-56 -136t56 -136t136 -56zM1024 2048q209 0 398.5 -81t326.5 -218t218 -326.5t81 -398.5q0 -208 -81 -397.5t-218 -327t-327 -218.5t-398 -81t-397.5 81t-327 218.5t-218.5 327t-81 397.5t81 398t218.5 327
t327 218t397.5 81zM1152 448v640q0 26 -19 45t-45 19h-128q-26 0 -45 -19t-19 -45v-640q0 -26 19 -45t45 -19h128q26 0 45 19t19 45z" />
<glyph unicode="&#x21aa;" horiz-adv-x="2048" d="M1408 256v256h256v-512h-1664v1664h512v-256h-256v-1152h1152zM2003 2003q45 -43 45 -107l-101 -903q0 -63 -44.5 -107.5t-107.5 -44.5q-37 0 -78 27t-59 79l-79 348l-596 -596q-59 -59 -142 -59t-142 59t-59 142t59 142l596 596l-348 79q-52 18 -79 59t-27 78
q0 63 44.5 107.5t108.5 44.5l902 101q64 0 107 -45z" />
<glyph unicode="&#x21ba;" horiz-adv-x="2048" d="M76 640h439q90 -118 223 -187t286 -69q130 0 248.5 51t204 136.5t136.5 204t51 248.5t-51 248.5t-136.5 204t-204 136.5t-248.5 51q-201 0 -366 -116l205 -205q33 -31 33 -79q0 -46 -33 -79t-79 -33h-672q-46 0 -79 33t-33 79v672q0 46 33 79t79 33t79 -33l195 -194
q282 227 638 227q208 0 398 -81t327 -218.5t218 -327t81 -397.5t-81 -397.5t-218 -327t-327 -218.5t-398 -81q-317 0 -574.5 177t-373.5 463z" />
<glyph unicode="&#x21bb;" horiz-adv-x="2048" d="M1533 640h439q-116 -286 -373.5 -463t-574.5 -177q-208 0 -398 81t-327 218.5t-218 327t-81 397.5t81 397.5t218 327t327 218.5t398 81q356 0 638 -227l195 194q33 33 79 33t79 -33t33 -79v-672q0 -46 -33 -79t-79 -33h-672q-46 0 -79 33t-33 79q0 48 33 79l205 205
q-165 116 -366 116q-130 0 -248.5 -51t-204 -136.5t-136.5 -204t-51 -248.5t51 -248.5t136.5 -204t204 -136.5t248.5 -51q153 0 286 69t223 187z" />
<glyph unicode="&#x21c6;" horiz-adv-x="2048" d="M1472 1075l543 -428q33 -29 33 -71t-33 -71l-543 -427q-33 -30 -79.5 -30t-79.5 30q-33 29 -33 71v235h-1088q-80 0 -136 56t-56 136t56 136t136 56h1088v235q0 42 33 72q33 29 79.5 29t79.5 -29zM576 974l-543 427q-33 29 -33 71t33 71l543 427q33 30 79.5 30t79.5 -30
q33 -28 33 -71v-235h1088q80 0 136 -56t56 -136t-56 -136t-136 -56h-1088v-235q0 -43 -33 -71q-33 -30 -79.5 -30t-79.5 30z" />
<glyph unicode="&#x22c6;" horiz-adv-x="2048" d="M2018 1194l-450 -459l107 -650v-2q9 -55 -19.5 -75t-77.5 7l-435 240q-49 27 -119 27t-119 -27l-435 -240q-49 -27 -77.5 -7t-19.5 75l107 652l-450 459q-39 40 -27.5 74.5t67.5 43.5l618 94l278 591q24 51 58 51t58 -51l278 -591l618 -94q56 -9 67.5 -43.5t-27.5 -74.5z
" />
<glyph unicode="&#x2301;" horiz-adv-x="2048" d="M448 1024q-53 0 -70.5 33t10.5 79l380 800q28 46 85.5 79t110.5 33h572q53 0 66 -29t-22 -70l-428 -541h640q53 0 62.5 -25.5t-30.5 -61.5l-1407 -1300q-40 -36 -51.5 -27t12.5 58l518 972h-448z" />
<glyph unicode="&#x2302;" horiz-adv-x="2048" d="M2021 997q37 -42 23.5 -71.5t-69.5 -29.5h-183v-896h-512v640h-512v-640h-512v896h-183q-56 0 -69.5 29.5t23.5 71.5l907 1009q37 42 90 42t90 -42z" />
<glyph unicode="&#x2315;" horiz-adv-x="2048" d="M1508 1348q66 0 113 46.5t47 113.5q0 66 -47 113t-113 47q-67 0 -113.5 -47t-46.5 -113q0 -67 46.5 -113.5t113.5 -46.5zM540 381q67 0 113.5 46.5t46.5 113.5q0 66 -46.5 113t-113.5 47q-66 0 -113 -47t-47 -113q0 -67 47 -113.5t113 -46.5zM1890 1890
q104 -104 141 -243t0 -278t-141 -243q-78 -78 -177 -118.5t-205 -40.5t-205.5 40.5t-176.5 118.5q-50 49 -93 128l-239 -239q78 -42 129 -92q104 -104 141 -243.5t0 -278.5t-141 -243q-78 -78 -177.5 -118t-205.5 -40q-105 0 -204.5 40.5t-177.5 117.5
q-156 156 -157.5 377.5t151.5 379.5v1l6 6v1h1l967 967q77 77 176.5 117.5t205.5 40.5q105 0 204.5 -40.5t177.5 -117.5z" />
<glyph unicode="&#x2316;" horiz-adv-x="2048" d="M1915 1152q55 0 94 -37.5t39 -90.5t-39 -90.5t-94 -37.5h-135q-40 -241 -213.5 -414.5t-414.5 -213.5v-135q0 -55 -37.5 -94t-90.5 -39t-90.5 39t-37.5 94v135q-241 41 -414 214t-214 414h-135q-55 0 -94 37.5t-39 90.5t39 90.5t94 37.5h135q40 241 213.5 414.5
t414.5 213.5v135q0 55 37.5 94t90.5 39t90.5 -39t37.5 -94v-135q241 -40 414.5 -213.5t213.5 -414.5h135zM1024 512q104 0 198.5 40.5t163.5 109.5t109.5 163.5t40.5 198.5t-40.5 198.5t-109.5 163.5t-163.5 109.5t-198.5 40.5t-198.5 -40.5t-163.5 -109.5t-109.5 -163.5
t-40.5 -198.5t40.5 -198.5t109.5 -163.5t163.5 -109.5t198.5 -40.5z" />
<glyph unicode="&#x232b;" horiz-adv-x="2048" d="M1920 1920q52 0 90 -38t38 -90v-1536q0 -52 -38 -90t-90 -38h-896q-63 0 -103 31l-870 764q-51 38 -51 101t51 101l870 764q40 31 103 31h896zM1642 843l-181 181l181 181q38 37 38 90t-38 91t-91 38t-90 -38l-181 -181l-181 181q-37 38 -90 38t-91 -38t-38 -91t38 -90
l181 -181l-181 -181q-38 -37 -38 -90t38 -91t91 -38t90 38l181 181l181 -181q37 -38 90 -38t91 38t38 91t-38 90z" />
<glyph unicode="&#x2399;" horiz-adv-x="2048" d="M384 1280q53 0 90.5 37.5t37.5 90.5t-37.5 90.5t-90.5 37.5t-90.5 -37.5t-37.5 -90.5t37.5 -90.5t90.5 -37.5zM384 896h1280v-896h-1280v896zM1344 256q26 0 45 19t19 45t-19 45t-45 19h-640q-26 0 -45 -19t-19 -45t19 -45t45 -19h640zM1344 512q26 0 45 19t19 45t-19 45
t-45 19h-640q-26 0 -45 -19t-19 -45t19 -45t45 -19h640zM768 1280q53 0 90.5 37.5t37.5 90.5t-37.5 90.5t-90.5 37.5t-90.5 -37.5t-37.5 -90.5t37.5 -90.5t90.5 -37.5zM1920 1792q52 0 90 -38t38 -90v-512q0 -52 -38 -90t-90 -38h-1792q-52 0 -90 38t-38 90v512q0 52 38 90
t90 38h320l64 256h1024l64 -256h320z" />
<glyph unicode="&#x23cf;" horiz-adv-x="2048" d="M1616 896h-1184h-1q-73 0 -124 44t-51 100q0 59 52 101l592 609q51 42 124 42q72 0 125 -42l592 -609q51 -42 51 -101q0 -57 -51 -100.5t-124 -43.5h-1zM384 640h1280q53 0 90.5 -37.5t37.5 -90.5v-128q0 -53 -37.5 -90.5t-90.5 -37.5h-1280q-52 0 -90 38t-38 90v128
q0 52 38 90t90 38z" />
<glyph unicode="&#x23e9;" horiz-adv-x="2048" d="M1176 1741l696 -593q48 -51 48 -124q0 -72 -47 -124l-697 -592q-48 -52 -116 -52q-64 0 -114 51t-50 125v291l-488 -415q-48 -52 -116 -52q-64 0 -114 51t-50 125v1184q0 73 49.5 124.5t114.5 51.5q68 0 116 -51l488 -416v291q0 73 49.5 124.5t114.5 51.5q68 0 116 -51z
" />
<glyph unicode="&#x23ea;" horiz-adv-x="2048" d="M1756 1792q65 0 114.5 -51t49.5 -124v-1v-1184v-1q0 -73 -50 -124t-114 -51q-68 0 -116 52l-488 415v-291v-1q0 -73 -50 -124t-114 -51q-68 0 -116 52l-696 592q-48 51 -48 124q0 72 48 125l696 592q48 51 116 51q65 0 114.5 -51t49.5 -124v-1v-290l488 415q48 51 116 51
z" />
<glyph unicode="&#x23ed;" horiz-adv-x="2048" d="M1408 1792h128q53 0 90.5 -37.5t37.5 -90.5v-1280q0 -53 -37.5 -90.5t-90.5 -37.5h-128q-52 0 -90 38t-38 90v447l-616 -523q-48 -52 -116 -52q-64 0 -114 51t-50 125v1184q0 73 49.5 124.5t114.5 51.5q68 0 116 -51l616 -525v448q0 52 38 90t90 38z" />
<glyph unicode="&#x23ee;" horiz-adv-x="2048" d="M1500 1792q65 0 114.5 -51t49.5 -124v-1v-1184v-1q0 -73 -50 -124t-114 -51q-68 0 -116 52l-616 524v-448q0 -53 -37.5 -90.5t-90.5 -37.5h-128q-52 0 -90 38t-38 90v1280q0 52 38 90t90 38h128q53 0 90.5 -37.5t37.5 -90.5v-447l616 524q48 51 116 51z" />
<glyph unicode="&#x23f0;" horiz-adv-x="2048" d="M614 1967q-179 -72 -321.5 -202.5t-232.5 -301.5q-60 94 -60 201q0 159 112.5 271.5t271.5 112.5q126 0 230 -81zM1664 2048q159 0 271.5 -112.5t112.5 -271.5q0 -107 -60 -201q-90 171 -232.5 301.5t-321.5 202.5q104 81 230 81zM1024 256q191 0 353 94.5t256.5 256.5
t94.5 353t-94.5 353t-256.5 256.5t-353 94.5t-353 -94.5t-256.5 -256.5t-94.5 -353t94.5 -353t256.5 -256.5t353 -94.5zM1024 1424q24 0 42 -16t20 -40l47 -494q0 -17 -11 -28.5t-28 -11.5h-2l-446 46q-24 3 -40.5 21t-16.5 42t16.5 42t40.5 20l283 28l33 335q2 24 20 40
t42 16zM1024 1920q195 0 373 -76t306.5 -204.5t204.5 -306.5t76 -373t-76 -373t-204.5 -306.5t-306.5 -204.5t-373 -76t-373 76t-306.5 204.5t-204.5 306.5t-76 373t76 373t204.5 306.5t306.5 204.5t373 76z" />
<glyph unicode="&#x23f1;" horiz-adv-x="2048" d="M1676 2024l348 -348q24 -24 24 -58t-24 -58t-58 -24t-58 24l-83 84l-102 -102q97 -127 146.5 -277t49.5 -306q0 -196 -76 -373.5t-204 -305.5t-305.5 -204t-373.5 -76q-195 0 -373 76t-306.5 204t-204.5 306t-76 374t76 374t204 306t306 204t374 76q323 0 582 -197
l102 102l-84 83q-24 24 -24 58t24 58t58 24t58 -24zM960 256q139 0 268.5 55t225 148t153 224.5t57.5 276.5q0 139 -55 268.5t-148 225t-224.5 153t-276.5 57.5q-151 0 -283 -57.5t-223.5 -153.5t-144 -224.5t-52.5 -268.5q0 -145 56.5 -276t151.5 -224.5t224.5 -148.5
t270.5 -55zM768 896q0 40 48 184t96 268l48 124q22 -54 53.5 -137.5t85 -241t53.5 -197.5v-1q0 -70 -57.5 -130.5t-134.5 -60.5t-134 61t-58 131z" />
<glyph unicode="&#x23f2;" horiz-adv-x="2048" d="M1024 1616q31 0 54 -20.5t26 -51.5l64 -678q0 -21 -14 -35.5t-34 -14.5h-1l-615 64q-31 4 -51.5 26.5t-20.5 53.5t20.5 54t51.5 26l394 39l47 465q3 31 25.5 51.5t53.5 20.5zM1024 2048q209 0 398.5 -81t326.5 -218t218 -326.5t81 -398.5q0 -208 -81 -397.5t-218 -327
t-327 -218.5t-398 -81t-398 81t-327 218.5t-218 327t-81 397.5q0 209 81 398.5t218 326.5t326.5 218t398.5 81zM1024 256q208 0 385 103t280 280t103 385q0 209 -103 385.5t-279.5 279.5t-385.5 103q-208 0 -385 -103t-280 -280t-103 -385q0 -156 61 -298t164 -245t245 -164
t298 -61z" />
<glyph unicode="&#x2421;" horiz-adv-x="2048" d="M1334 1024l317 -317q37 -37 37 -90t-37 -91l-181 -181q-38 -37 -91 -37t-90 37l-317 317l-316 -317q-38 -37 -91 -37t-90 37l-181 181q-38 38 -38 91t38 90l316 317l-317 317q-37 37 -37 90t37 91l182 181q37 37 90 37t91 -37l316 -317l317 317q37 37 90.5 37t90.5 -37
l181 -181q37 -38 37 -91t-37 -90z" />
<glyph unicode="&#x25a0;" horiz-adv-x="2048" d="M1792 1664v-1280q0 -52 -38 -90t-90 -38h-1280q-52 0 -90 38t-38 90v1280q0 52 38 90t90 38h1280q52 0 90 -38t38 -90z" />
<glyph unicode="&#x25b6;" horiz-adv-x="2048" d="M743 287q-40 -31 -90 -31q-33 0 -60 13q-37 16 -59 48t-22 70v1272q0 39 22 72t59 49q29 12 60 12q52 0 90 -31l870 -636q51 -37 51 -101t-51 -101z" />
<glyph unicode="&#x25bb;" horiz-adv-x="2048" d="M1159 1024l-717 696q-58 56 -58 136t58 136t140 56q81 0 140 -56l903 -877q39 -37 39 -91t-39 -91l-903 -877q-58 -56 -140 -56t-140 56t-58 136t58 136z" />
<glyph unicode="&#x25c5;" horiz-adv-x="2048" d="M889 1024l717 -696q58 -56 58 -136t-58 -136q-59 -56 -140 -56t-140 56l-904 877q-38 37 -38 91t38 91l904 877q58 56 140 56t140 -56t58 -136t-58 -136z" />
<glyph unicode="&#x25ce;" horiz-adv-x="2048" d="M1024 2048q208 0 397.5 -81t327 -218.5t218.5 -327t81 -397.5t-81 -397.5t-218.5 -327t-327 -218.5t-397.5 -81t-398 81t-327 218.5t-218 327t-81 397.5t81 397.5t218 327t327 218.5t398 81zM1024 256q208 0 385 103t280 280t103 385t-103 385t-280 280t-385 103
q-209 0 -385.5 -103t-279.5 -279.5t-103 -385.5t103 -385.5t279.5 -279.5t385.5 -103zM1024 1557q109 0 207.5 -42t170 -113.5t113.5 -170t42 -207.5t-42 -207.5t-113.5 -170t-170 -113.5t-207.5 -42t-207.5 42t-170 113.5t-113.5 170t-42 207.5t42 207.5t113.5 170
t170 113.5t207.5 42zM1024 747q115 0 196 81t81 196t-81 196t-196 81t-196 -81t-81 -196t81 -196t196 -81z" />
<glyph unicode="&#x25cf;" horiz-adv-x="2048" d="M1792 1024q0 -209 -103 -385.5t-279.5 -279.5t-385.5 -103t-385.5 103t-279.5 279.5t-103 385.5t103 385.5t279.5 279.5t385.5 103t385.5 -103t279.5 -279.5t103 -385.5z" />
<glyph unicode="&#x2600;" horiz-adv-x="2048" d="M2010 805q23 -16 32.5 -42t1.5 -53q-16 -54 -81 -59l-271 7h-4q-69 0 -93 -35q-23 -33 -2 -88l84 -226q14 -20 14 -46q0 -34 -24 -58t-59 -25h-3q-27 0 -49 16l-214 157q-37 28 -75 28q-30 0 -53 -19.5t-34 -55.5l-77 -247q-7 -26 -29.5 -42.5t-49.5 -16.5
q-28 0 -50 16.5t-30 42.5l-76 247q-11 36 -34 55.5t-53 19.5q-38 0 -75 -28l-214 -157q-22 -16 -49 -16q-29 0 -51 17t-29.5 43.5t2.5 52.5l90 242q20 57 -2 88q-24 34 -91 36l-279 -8q-29 2 -50.5 18t-28.5 41q-8 27 1.5 53t32.5 41l223 146q54 35 54 76t-54 76l-224 145
q-23 16 -32 42.5t-1 52.5q8 27 30 43t51 16l271 -7q73 0 97 35q22 31 2 88l-90 242q-10 25 -2.5 52.5t29.5 43.5q23 17 50 17q26 0 50 -16l214 -158q38 -27 75 -27q30 0 53 19.5t34 55.5l76 247q8 25 30 40t50 15t50 -15t30 -40l76 -247q11 -36 34 -55.5t53 -19.5
q37 0 75 27l214 158q24 16 49 16q28 0 51 -17q22 -16 29.5 -43.5t-2.5 -52.5l-90 -242q-21 -55 2 -88q24 -35 91 -35l279 7q27 0 49 -16.5t30 -42.5t-1.5 -52.5t-32.5 -42.5l-223 -145q-54 -35 -54 -76t54 -76zM1024 576q185 0 316.5 131.5t131.5 316.5t-131.5 316.5
t-316.5 131.5t-316.5 -131.5t-131.5 -316.5t131.5 -316.5t316.5 -131.5z" />
<glyph unicode="&#x2601;" horiz-adv-x="2048" d="M1657 1136q166 -19 278.5 -143.5t112.5 -293.5q0 -184 -129.5 -313.5t-312.5 -129.5h-1099q-138 0 -254.5 68t-184.5 184.5t-68 254.5t68 254.5t184.5 184t254.5 67.5q3 0 10.5 -1t11.5 -1q21 217 182.5 365.5t382.5 148.5q116 0 221.5 -45t182 -121.5t121.5 -182
t45 -221.5q0 -17 -7 -75z" />
<glyph unicode="&#x2602;" horiz-adv-x="2048" d="M896 384v384h256v-384q0 -159 -112.5 -271.5t-271.5 -112.5t-271.5 112.5t-112.5 271.5q0 53 37.5 90.5t90.5 37.5t90.5 -37.5t37.5 -90.5t37.5 -90.5t90.5 -37.5t90.5 37.5t37.5 90.5zM1152 1783q231 -28 425 -150.5t318 -315t153 -421.5h-2048q21 171 99 325.5
t195.5 270.5t273 193t328.5 98v137q0 53 37.5 90.5t90.5 37.5t90.5 -37.5t37.5 -90.5v-137z" />
<glyph unicode="&#x2615;" horiz-adv-x="2048" d="M512 768v640h-256v-640h256zM1716 1114q3 27 3 28q0 96 -69 181t-161 85q-69 0 -125 -35t-84 -93q-27 58 -83.5 93t-124.5 35q-92 0 -161.5 -85t-69.5 -181q0 -1 3 -28q8 -67 51 -139.5t99 -127.5t111 -101t93 -70l37 -25q19 -11 45 -11t45 12q15 9 39.5 26t88.5 69.5
t114.5 104.5t95.5 124.5t53 137.5zM1920 1920q53 0 90.5 -37.5t37.5 -90.5v-1280q0 -159 -112.5 -271.5t-271.5 -112.5h-768q-159 0 -271.5 112.5t-112.5 271.5h-256q-106 0 -181 75t-75 181v640q0 106 75 181t181 75h256v128q0 53 37.5 90.5t90.5 37.5h1280z" />
<glyph unicode="&#x2639;" horiz-adv-x="2048" d="M1565 455q23 12 31.5 37t-3.5 49q-4 8 -11.5 20t-31 42.5t-52 57.5t-76.5 59.5t-102.5 56t-132 39.5t-162.5 16q-86 0 -163.5 -16t-132 -39.5t-103 -56t-77 -59.5t-52 -57.5t-31 -42.5t-11.5 -20q-12 -24 -3.5 -49t31.5 -37q24 -11 49 -3t37 31q4 7 9 15.5t24.5 32
t42 43.5t61.5 45.5t82.5 43t105.5 29.5t131 12q94 0 175.5 -23t128 -51t85.5 -66.5t48.5 -53t16.5 -27.5q17 -35 57 -35q16 0 29 7zM1025 2048q140 0 272.5 -37t245 -102.5t206.5 -160t160 -207t102.5 -245.5t36.5 -272q0 -167 -51.5 -323t-146 -282t-220 -221t-282 -146.5
t-323.5 -51.5q-208 0 -398 81t-327.5 218.5t-218.5 327t-81 397.5q0 167 51.5 323.5t146.5 282t221 220.5t282.5 146.5t323.5 51.5zM1408 1408q-53 0 -90.5 -37.5t-37.5 -90.5t37.5 -90.5t90.5 -37.5t90.5 37.5t37.5 90.5t-37.5 90.5t-90.5 37.5zM640 1408
q-53 0 -90.5 -37.5t-37.5 -90.5t37.5 -90.5t90.5 -37.5t90.5 37.5t37.5 90.5t-37.5 90.5t-90.5 37.5z" />
<glyph unicode="&#x263b;" horiz-adv-x="2048" d="M1024 384q109 0 225 44.5t207 115t149.5 165t58.5 187.5h-1280q0 -93 59 -187.5t150 -165t207 -115t224 -44.5zM640 1408q-53 0 -90.5 -37.5t-37.5 -90.5t37.5 -90.5t90.5 -37.5t90.5 37.5t37.5 90.5t-37.5 90.5t-90.5 37.5zM1408 1408q-53 0 -90.5 -37.5t-37.5 -90.5
t37.5 -90.5t90.5 -37.5t90.5 37.5t37.5 90.5t-37.5 90.5t-90.5 37.5zM1025 2048q140 0 272.5 -37t245 -102.5t206.5 -160t160 -207t102.5 -245.5t36.5 -272q0 -167 -51.5 -323t-146 -282t-220 -221t-282 -146.5t-323.5 -51.5q-208 0 -398 81t-327.5 218.5t-218.5 327
t-81 397.5q0 167 51.5 323.5t146.5 282t221 220.5t282.5 146.5t323.5 51.5z" />
<glyph unicode="&#x2665;" horiz-adv-x="2048" d="M2048 1171q0 -16 -7 -65h1q-11 -87 -49 -179.5t-93 -175.5t-124 -165.5t-142 -152.5t-145.5 -133.5t-137.5 -112.5t-114.5 -85t-78.5 -55l-29 -19q-43 -28 -105 -28t-105 26q-18 11 -48.5 31t-120 85t-172 133.5t-185 170.5t-179.5 202t-136 222t-72 236h1q-7 49 -7 65
q0 106 43 217.5t114 200.5t172.5 146t208.5 57q159 0 289.5 -82.5t196.5 -217.5q66 135 197 217.5t290 82.5q107 0 208 -57t172 -146t114 -200.5t43 -217.5z" />
<glyph unicode="&#x266b;" horiz-adv-x="2048" d="M2048 1941v-1429q0 -159 -131 -271.5t-317 -112.5q-185 0 -316.5 112.5t-131.5 271.5t131.5 271.5t316.5 112.5q100 0 192 -38v632l-896 -163v-943q0 -159 -131 -271.5t-317 -112.5q-185 0 -316.5 112.5t-131.5 271.5t131.5 271.5t316.5 112.5q100 0 192 -38v934v21
q0 52 37 96.5t89 54.5l1156 210q52 10 89 -21t37 -84z" />
<glyph unicode="&#x2680;" horiz-adv-x="2048" d="M1024 832q80 0 136 56t56 136t-56 136t-136 56t-136 -56t-56 -136t56 -136t136 -56zM1664 2048q159 0 271.5 -112.5t112.5 -271.5v-1280q0 -159 -112.5 -271.5t-271.5 -112.5h-1280q-159 0 -271.5 112.5t-112.5 271.5v1280q0 159 112.5 271.5t271.5 112.5h1280z" />
<glyph unicode="&#x2681;" horiz-adv-x="2048" d="M1472 384q80 0 136 56t56 136t-56 136t-136 56t-136 -56t-56 -136t56 -136t136 -56zM1664 2048q159 0 271.5 -112.5t112.5 -271.5v-1280q0 -159 -112.5 -271.5t-271.5 -112.5h-1280q-159 0 -271.5 112.5t-112.5 271.5v1280q0 159 112.5 271.5t271.5 112.5h1280zM576 1280
q80 0 136 56t56 136t-56 136t-136 56t-136 -56t-56 -136t56 -136t136 -56z" />
<glyph unicode="&#x2682;" horiz-adv-x="2048" d="M1472 384q80 0 136 56t56 136t-56 136t-136 56t-136 -56t-56 -136t56 -136t136 -56zM1664 2048q159 0 271.5 -112.5t112.5 -271.5v-1280q0 -159 -112.5 -271.5t-271.5 -112.5h-1280q-159 0 -271.5 112.5t-112.5 271.5v1280q0 159 112.5 271.5t271.5 112.5h1280zM1024 832
q80 0 136 56t56 136t-56 136t-136 56t-136 -56t-56 -136t56 -136t136 -56zM576 1280q80 0 136 56t56 136t-56 136t-136 56t-136 -56t-56 -136t56 -136t136 -56z" />
<glyph unicode="&#x2683;" horiz-adv-x="2048" d="M576 384q80 0 136 56t56 136t-56 136t-136 56t-136 -56t-56 -136t56 -136t136 -56zM1472 384q80 0 136 56t56 136t-56 136t-136 56t-136 -56t-56 -136t56 -136t136 -56zM1472 1280q80 0 136 56t56 136t-56 136t-136 56t-136 -56t-56 -136t56 -136t136 -56zM576 1280
q80 0 136 56t56 136t-56 136t-136 56t-136 -56t-56 -136t56 -136t136 -56zM1664 2048q159 0 271.5 -112.5t112.5 -271.5v-1280q0 -159 -112.5 -271.5t-271.5 -112.5h-1280q-159 0 -271.5 112.5t-112.5 271.5v1280q0 159 112.5 271.5t271.5 112.5h1280z" />
<glyph unicode="&#x2684;" horiz-adv-x="2048" d="M1664 2048q159 0 271.5 -112.5t112.5 -271.5v-1280q0 -159 -112.5 -271.5t-271.5 -112.5h-1280q-159 0 -271.5 112.5t-112.5 271.5v1280q0 159 112.5 271.5t271.5 112.5h1280zM1024 832q80 0 136 56t56 136t-56 136t-136 56t-136 -56t-56 -136t56 -136t136 -56zM576 1280
q80 0 136 56t56 136t-56 136t-136 56t-136 -56t-56 -136t56 -136t136 -56zM1472 384q80 0 136 56t56 136t-56 136t-136 56t-136 -56t-56 -136t56 -136t136 -56zM1472 1280q80 0 136 56t56 136t-56 136t-136 56t-136 -56t-56 -136t56 -136t136 -56zM576 384q80 0 136 56
t56 136t-56 136t-136 56t-136 -56t-56 -136t56 -136t136 -56z" />
<glyph unicode="&#x2685;" horiz-adv-x="2048" d="M1472 1408q80 0 136 56t56 136t-56 136t-136 56t-136 -56t-56 -136t56 -136t136 -56zM1664 2048q159 0 271.5 -112.5t112.5 -271.5v-1280q0 -159 -112.5 -271.5t-271.5 -112.5h-1280q-159 0 -271.5 112.5t-112.5 271.5v1280q0 159 112.5 271.5t271.5 112.5h1280z
M576 1408q80 0 136 56t56 136t-56 136t-136 56t-136 -56t-56 -136t56 -136t136 -56zM576 832q80 0 136 56t56 136t-56 136t-136 56t-136 -56t-56 -136t56 -136t136 -56zM576 256q80 0 136 56t56 136t-56 136t-136 56t-136 -56t-56 -136t56 -136t136 -56zM1472 832
q80 0 136 56t56 136t-56 136t-136 56t-136 -56t-56 -136t56 -136t136 -56zM1472 256q80 0 136 56t56 136t-56 136t-136 56t-136 -56t-56 -136t56 -136t136 -56z" />
<glyph unicode="&#x2691;" horiz-adv-x="2048" d="M128 2048q53 0 90.5 -37.5t37.5 -90.5v-1792q0 -53 -37.5 -90.5t-90.5 -37.5t-90.5 37.5t-37.5 90.5v1792q0 53 37.5 90.5t90.5 37.5zM1788 1050l238 -308q33 -42 17.5 -72t-70.5 -30h-662q-55 0 -121 26.5t-105 64.5l-78 75q-38 37 -104.5 63.5t-121.5 26.5h-397v1024
h662q55 0 121.5 -27t104.5 -64l78 -75q38 -37 104.5 -63.5t121.5 -26.5h397q55 0 70.5 -30t-17.5 -72l-238 -308q-33 -42 -33 -102t33 -102z" />
<glyph unicode="&#x2699;" horiz-adv-x="2048" d="M1777 875l181 -155q20 -17 25 -46t-9 -51l-128 -222q-13 -23 -40 -33t-52 -1l-226 79q-114 -100 -257 -148l-44 -235q-4 -26 -26.5 -44.5t-48.5 -18.5h-256q-27 0 -49.5 18.5t-26.5 44.5l-44 235q-143 48 -257 148l-226 -79q-25 -9 -52 1t-40 33l-128 222
q-13 23 -8.5 51.5t24.5 45.5l181 155q-14 75 -14 149t14 149l-181 155q-20 17 -24.5 45.5t8.5 51.5l128 222q13 23 40 33t52 1l226 -79q114 100 257 148l44 235q4 26 26.5 44.5t49.5 18.5h256q26 0 48.5 -18.5t26.5 -44.5l44 -235q143 -48 257 -148l226 79q25 9 52 -1
t40 -33l128 -222q14 -22 9 -51t-25 -46l-181 -155q15 -80 15 -149t-15 -149zM1024 640q159 0 271.5 112.5t112.5 271.5t-112.5 271.5t-271.5 112.5q-160 0 -272 -112.5t-112 -271.5t112 -271.5t272 -112.5z" />
<glyph unicode="&#x26a0;" horiz-adv-x="2048" d="M1024 256q80 0 136 56t56 136t-56 136t-136 56t-136 -56t-56 -136t56 -136t136 -56zM1994 488q52 -99 54 -189t-40.5 -155.5t-128 -104.5t-201.5 -39h-1308q-116 0 -201 39t-127.5 104t-41 155.5t53.5 188.5l714 1360q52 99 118.5 150t137.5 51t137.5 -51t118.5 -150z
M960 1664q-53 0 -88 -37.5t-31 -89.5l46 -641q4 -53 44.5 -90.5t92.5 -37.5t92.5 37.5t44.5 90.5l46 641q4 53 -31 90t-88 37h-128z" />
<glyph unicode="&#x26c5;" horiz-adv-x="2048" d="M1641 734q148 0 252.5 -107.5t104.5 -259.5t-104.5 -259.5t-252.5 -107.5h-1213q-177 0 -302.5 129t-125.5 312q0 182 125.5 311t302.5 129q70 0 143 -26q73 137 203.5 219t286.5 82q192 0 341.5 -120t198.5 -306q26 4 40 4zM1801 1187l208 -98q20 -10 31 -30.5t7 -43.5
q-3 -23 -20 -40t-39 -19l-234 -30q-4 0 -7 -1t-7 -2.5t-6 -2.5q-77 160 -221 271q0 95 -52.5 175.5t-137 125.5t-177.5 45q-107 0 -202 -66.5t-136 -168.5q-166 -60 -290 -195q-17 15 -26 19l-208 98q-21 10 -32 31t-7 44t20.5 39.5t38.5 18.5l235 30q59 10 76 45
q15 32 -10 80l-108 200q-11 20 -8 43t19 39q16 17 38 20.5t42 -7.5l202 -109q39 -21 71 -16q54 9 65 81l34 226q3 23 19 39t38 19q22 4 41.5 -7t29.5 -31l96 -206q31 -66 85 -58q31 5 64 37l162 165q16 16 38 19.5t42 -7.5t29 -32.5t5 -43.5l-46 -224q-11 -53 13 -79
q26 -30 85 -20l5 1l229 41q22 4 42 -6.5t31 -31.5q10 -21 5.5 -44t-21.5 -39l-171 -156q-43 -40 -38 -76q6 -37 58 -62z" />
<glyph unicode="&#x26d4;" horiz-adv-x="2048" d="M1664 832v384q0 26 -19 45t-45 19h-1152q-26 0 -45 -19t-19 -45v-384q0 -26 19 -45t45 -19h1152q26 0 45 19t19 45zM1024 2048q209 0 398.5 -81t326.5 -218t218 -326.5t81 -398.5t-81 -398.5t-218 -326.5t-326.5 -218t-398.5 -81q-208 0 -397.5 81t-327 218t-218.5 327
t-81 398t81 398t218.5 327t327 218t397.5 81z" />
<glyph unicode="&#x2702;" horiz-adv-x="2048" d="M584 535q11 43 -7 73q-27 47 -104 47q-59 0 -118 -34q-83 -48 -104 -126q-11 -43 7 -73q27 -47 104 -47q61 0 118 33q84 50 104 127zM925 775l367 178l756 -366l-446 -130q-49 -14 -114 -5t-108 36zM355 1427q59 -34 118 -34q77 0 104 47q18 30 7 73q-20 77 -104 127
q-57 33 -118 33q-77 0 -104 -47q-18 -29 -7 -73q21 -78 104 -126zM716 817q49 -41 74 -84q38 -65 43.5 -141.5t-19.5 -148.5t-79.5 -137.5t-130.5 -110.5q-116 -67 -242 -67q-101 0 -185.5 44t-131.5 125q-38 65 -43.5 141.5t19.5 148.5t79.5 137.5t130.5 110.5l300 189
l-300 190q-76 44 -130.5 109.5t-79.5 137.5t-19.5 148.5t43.5 141.5q47 81 131.5 125t185.5 44q126 0 242 -67q76 -44 130.5 -110t79.5 -138t19.5 -148.5t-43.5 -141.5q-25 -43 -74 -84q36 -17 81 -39l583 368q43 27 108 36t114 -5l446 -130q-1308 -633 -1332 -644z" />
<glyph unicode="&#x2708;" horiz-adv-x="2048" d="M1792 1280q106 0 181 -75t75 -181t-75 -181t-181 -75h-384l-640 -640h-256l313 640h-441l-256 -256h-128l128 512l-128 512h128l256 -256h441l-313 640h256l640 -640h384z" />
<glyph unicode="&#x2709;" horiz-adv-x="2048" d="M1024 460q37 0 68 19l956 598v-949q0 -53 -37.5 -90.5t-90.5 -37.5h-1792q-53 0 -90.5 37.5t-37.5 90.5v949l956 -598q31 -19 68 -19zM384 1280v-292l-384 240l1026 820l1022 -820l-384 -240v292q0 53 -37.5 90.5t-90.5 37.5h-1024q-53 0 -90.5 -37.5t-37.5 -90.5z
M960 896h128q26 0 45 -19t19 -45t-19 -45t-45 -19h-128q-26 0 -45 19t-19 45t19 45t45 19zM1408 1088q0 -26 -19 -45t-45 -19h-640q-26 0 -45 19t-19 45t19 45t45 19h640q26 0 45 -19t19 -45z" />
<glyph unicode="&#x270e;" horiz-adv-x="2048" d="M1210 1697l487 -487l-1089 -1089l-608 -121l121 608zM1947 1947q101 -101 101 -244t-101 -243l-159 -160l-487 487l159 160q101 101 243.5 101t243.5 -101z" />
<glyph unicode="&#x2713;" horiz-adv-x="2048" d="M1755 1619q43 -30 52.5 -82.5t-21.5 -95.5l-789 -1127q-30 -43 -83 -53q-52 -10 -96 21l-206 145l-3 2l-420 294q-43 30 -52 82.5t21 95.5l147 210q30 43 82.5 52.5t95.5 -21.5l315 -220l569 812q31 43 83.5 52.5t95.5 -20.5z" />
<glyph unicode="&#x2753;" horiz-adv-x="2048" d="M864 416q0 -66 47 -113t113 -47q67 0 113.5 47t46.5 113t-46.5 113t-113.5 47q-66 0 -113 -47t-47 -113zM1153 822v8q174 36 288 151.5t114 262.5q0 123 -73 228.5t-196.5 167t-266.5 61.5q-223 0 -377 -129q-22 -18 -34 -47.5t-12 -48.5q0 -53 42.5 -93t96.5 -40
q47 0 85 30q80 65 200 65q107 0 188 -57.5t81 -133.5v-2q-2 -77 -80 -132t-187 -55q-51 0 -90 -36.5t-39 -83.5q0 -1 2 -116q1 -49 38.5 -83.5t90.5 -34.5t90.5 34.5t38.5 83.5zM0 1024q0 208 81 398t218.5 327t327 218t397.5 81q209 0 398.5 -81t326.5 -218t218 -326.5
t81 -398.5t-81 -398.5t-218 -326.5t-326.5 -218t-398.5 -81q-208 0 -397.5 81t-327 218t-218.5 327t-81 398z" />
<glyph unicode="&#x27a1;" horiz-adv-x="2048" d="M1127 287q-40 -31 -90 -31q-33 0 -60 13q-37 16 -59 48t-22 70v381h-640q-106 0 -181 75t-75 181t75 180t181 74h640v381q0 39 22 71.5t59 48.5q27 13 60 13q50 0 90 -31l870 -636q51 -38 51 -101t-51 -101z" />
<glyph unicode="&#x2922;" horiz-adv-x="2048" d="M1120 1792q-40 0 -68 -28t-28 -68t28 -68l152 -152l-124 -124q-56 -56 -56 -136t56 -136t136 -56t136 56l124 125l152 -153q28 -28 68 -28t68 28t28 68v479v2v95q0 40 -28 68t-68 28h-95h-1h-1h-479zM256 928v-576q0 -40 28 -68t68 -28h576q40 0 68 28t28 68t-28 68
l-152 152l124 124q56 56 56 136t-56 136q-58 56 -136 56t-136 -56l-124 -124l-152 152q-28 28 -68 28t-68 -28t-28 -68zM1792 2048q106 0 181 -75t75 -181v-1536q0 -106 -75 -181t-181 -75h-1536q-106 0 -181 75t-75 181v1536q0 106 75 181t181 75h1536z" />
<glyph unicode="&#x2940;" horiz-adv-x="2048" d="M1020 818h-2q-17 0 -28 11.5t-11 28.5l47 494q2 24 20 40t42 16t42 -16t20 -40l33 -335l283 -28q25 -2 41 -20t16 -42q0 -25 -16 -42.5t-41 -20.5zM1152 1920q182 0 348 -71t286 -191t191 -286t71 -348t-71 -348t-191 -286t-286 -191t-348 -71q-311 0 -555 193l151 189
q182 -143 404 -143q133 0 255 52t210 140t140 210t52 255t-52 255t-140 210t-210 140t-255 52q-218 0 -390.5 -130.5t-234.5 -334.5h127q106 0 134 -59t-38 -141l-272 -340q-33 -41 -80.5 -41t-79.5 41l-273 340q-65 82 -37 141t134 59h135q44 200 169 360.5t310 252
t396 91.5z" />
<glyph unicode="&#x2b05;" horiz-adv-x="2048" d="M921 1761q40 31 91 31q32 0 59 -13q38 -16 59.5 -47.5t21.5 -70.5v-381l640 -1q106 0 181 -74.5t75 -180.5t-75 -180.5t-181 -74.5l-640 1v-381q0 -39 -21.5 -71.5t-59.5 -48.5q-27 -13 -59 -13q-51 0 -91 31l-870 636q-51 37 -51 101t51 101z" />
<glyph unicode="&#x2b06;" horiz-adv-x="2048" d="M1761 1127q31 -38 31 -91q0 -30 -12 -59q-16 -38 -48 -59.5t-71 -21.5h-381l-1 -640q0 -106 -74.5 -181t-180.5 -75t-180.5 75t-74.5 181l1 640h-381q-39 0 -71.5 21.5t-48.5 59.5q-13 27 -13 59q0 51 31 91l636 870q40 51 101 51q63 0 101 -51z" />
<glyph unicode="&#x2b07;" horiz-adv-x="2048" d="M287 921q-31 40 -31 91q0 33 13 59q16 38 48 59.5t71 21.5h380l1 640q0 106 74.5 181t180.5 75t180.5 -75t74.5 -181l-1 -640h381q39 0 72 -21.5t49 -59.5q12 -27 12 -59q0 -53 -31 -91l-636 -870q-38 -51 -101 -51q-61 0 -101 51z" />
<glyph unicode="&#x2b08;" horiz-adv-x="2048" d="M1628 601q-6 -50 -42 -84q-23 -23 -50 -33q-38 -15 -75 -7.5t-64 33.5l-265 265l-520 -519q-74 -74 -178 -74t-178 74t-74 178t74 178l521 519l-266 265q-27 27 -34.5 64.5t7.5 75.5q10 27 33 50q36 36 84 42l1049 163q62 8 106 -35q43 -44 35 -106z" />
<glyph unicode="&#x2b09;" horiz-adv-x="2048" d="M1447 1664q49 -6 85 -42q21 -21 33 -50q14 -38 6.5 -75t-33.5 -64l-265 -265l519 -520q74 -74 74 -178t-74 -178q-73 -74 -177.5 -73.5t-178.5 74.5l-519 520l-265 -265q-27 -27 -64.5 -35t-75.5 7q-28 11 -50 33q-36 38 -42 84l-162 1049q-9 62 35 106t105 35z" />
<glyph unicode="&#x2b0a;" horiz-adv-x="2048" d="M601 420q-48 6 -84 42q-23 23 -33 50q-15 38 -7.5 75t33.5 64l265 265l-518 520q-74 74 -74.5 178.5t73.5 177.5q74 74 178 74t178 -74l519 -520l265 265q27 27 64.5 34.5t75.5 -7.5q26 -9 50 -32q36 -36 42 -85l163 -1049q8 -62 -35 -106q-44 -43 -106 -35z" />
<glyph unicode="&#x2b0b;" horiz-adv-x="2048" d="M421 1447q4 47 41 85q23 22 50 32q38 15 75.5 7.5t63.5 -33.5l265 -265l520 519q74 74 178 74t178 -74t74 -178t-74 -178l-520 -519l265 -265q27 -27 34.5 -64.5t-7.5 -75.5q-11 -28 -32 -50q-36 -36 -85 -42l-1049 -163q-62 -8 -106 35q-43 44 -35 106z" />
<glyph unicode="&#xe001;" horiz-adv-x="2048" d="M1845 565q75 -75 75 -181t-75 -181t-181 -75t-181 75l-758 758l-100 -442q-23 -66 -75.5 -100.5t-99.5 -34.5q-80 0 -137 57t-57 137l-128 1148q0 80 57 137t137 57l1148 -128q80 0 137 -57t57 -137q0 -47 -34 -99t-100 -75l-443 -101z" />
<glyph unicode="&#xe002;" horiz-adv-x="2048" d="M56 56q-56 56 -56 136t56 136l452 452q-124 202 -124 436q0 169 66 323t177 265.5t265.5 177.5t323.5 66t323 -66t265.5 -177.5t177.5 -265.5t66 -323t-66 -323t-177.5 -265.5t-265.5 -177.5t-323 -66q-235 0 -436 125l-452 -453q-58 -56 -136 -56t-136 56zM768 1216
q0 -37 26 -63.5t63 -26.5h269v-268q0 -38 26 -64t64 -26q37 0 63.5 26.5t26.5 63.5v268h268q37 0 63.5 26.5t26.5 63.5q0 38 -26 64t-64 26h-268v268q0 37 -26.5 63.5t-63.5 26.5q-38 0 -64 -26t-26 -64v-268h-269q-37 0 -63 -26.5t-26 -63.5z" />
<glyph unicode="&#xe003;" horiz-adv-x="2048" d="M56 56q-56 56 -56 136t56 136l452 452q-124 202 -124 436q0 169 66 323t177 265.5t265.5 177.5t323.5 66t323 -66t265.5 -177.5t177.5 -265.5t66 -323t-66 -323t-177.5 -265.5t-265.5 -177.5t-323 -66q-235 0 -436 125l-452 -453q-58 -56 -136 -56t-136 56zM768 1216
q0 -37 26 -63.5t63 -26.5h717q37 0 63.5 26.5t26.5 63.5q0 38 -26 64t-64 26h-717q-37 0 -63 -26.5t-26 -63.5z" />
<glyph unicode="&#xe010;" horiz-adv-x="2048" d="M512 192q133 0 226.5 93.5t93.5 226.5t-93.5 226.5t-226.5 93.5t-226.5 -93.5t-93.5 -226.5t93.5 -226.5t226.5 -93.5zM1536 192q133 0 226.5 93.5t93.5 226.5t-93.5 226.5t-226.5 93.5t-226.5 -93.5t-93.5 -226.5t93.5 -226.5t226.5 -93.5zM1792 1664l256 -1024v-128
q0 -212 -150 -362t-362 -150t-362 150t-150 362q0 -212 -150 -362t-362 -150t-362 150t-150 362v128l256 1024h1536zM1408 2048q106 0 181 -75t75 -181h-512q0 106 75 181t181 75zM640 2048q106 0 181 -75t75 -181h-512q0 106 75 181t181 75z" />
<glyph unicode="&#xe013;" horiz-adv-x="2048" d="M1688 541l323 -322q37 -37 37 -90.5t-37 -91.5q-38 -37 -91 -37q-54 0 -91 37l-1792 1792q-37 37 -37 91t37 91q38 37 91 37t91 -37l351 -352q231 133 454 133q102 0 206 -27.5t192.5 -74.5t173.5 -107.5t152.5 -126.5t124.5 -132.5t95 -125.5t59 -104.5t21 -69.5
q0 -59 -103.5 -205.5t-256.5 -277.5zM1024 1408q-84 0 -164 -39l509 -509q39 81 39 164q0 159 -112.5 271.5t-271.5 112.5zM646 965q19 -123 107.5 -211t211.5 -108l338 -338q-145 -52 -279 -52q-135 0 -272 48t-246 123t-205.5 165t-161.5 176t-102 154.5t-37 101.5
q0 44 63.5 147t164.5 212z" />
<glyph unicode="&#xe070;" horiz-adv-x="2048" d="M2009 1108q39 -34 39 -84t-39 -84l-379 -339q-39 -35 -66.5 -22t-27.5 65v188h-320v-320h188q52 0 65 -27.5t-22 -66.5l-339 -379q-34 -39 -84 -39t-84 39l-339 379q-35 39 -22 66.5t65 27.5h188v320h-320v-188q0 -52 -27.5 -65t-66.5 22l-379 339q-39 34 -39 84t39 84
l379 339q39 35 66.5 22t27.5 -65v-188h320v320h-188q-52 0 -65 27.5t22 66.5l339 379q34 39 84 39t84 -39l339 -379q35 -39 22 -66.5t-65 -27.5h-188v-320h320v188q0 52 27.5 65t66.5 -22z" />
<glyph unicode="&#xe071;" horiz-adv-x="2048" d="M1358 871l653 -652q37 -37 37 -90t-37 -91t-90 -38t-91 38l-1792 1791q-38 37 -38 90t38 91t91 38t90 -38l652 -652l339 339l487 -487zM121 608l433 433l487 -487l-433 -433l-608 -121zM1947 1460l-159 -159l-488 486l160 160q101 101 243.5 101t243.5 -101t101 -244
t-101 -243z" />
<glyph unicode="&#xe0d0;" horiz-adv-x="2048" d="M256 128v1024h1536v-1024q0 -53 -37.5 -90.5t-90.5 -37.5h-1280q-53 0 -90.5 37.5t-37.5 90.5zM2047 1408h1v-128h-2048v128h1q3 104 77 176t178 72h256v136q0 106 75 181t181 75h512q106 0 181 -75t75 -181v-136h256q104 0 178 -72t77 -176zM1280 1656v136h-512v-136
h512z" />
<glyph unicode="&#xe100;" horiz-adv-x="2048" d="M1612 1452q67 0 113.5 47t46.5 113t-46.5 113t-113.5 47q-66 0 -113 -47t-47 -113t47 -113t113 -47zM2048 1861v-617v-6h-2q-2 -75 -53 -126q-1 0 -1 -1l-1054 -1053q0 -1 -2 -3q-55 -55 -132 -55t-132 55l-617 617q-55 55 -55 132t55 132l1057 1057q51 51 126 53v2h623
q75 0 132 -55q55 -57 55 -132z" />
<glyph unicode="&#xe1aa;" horiz-adv-x="2048" d="M1714 515l297 -296q37 -37 37 -90.5t-37 -91.5q-37 -37 -91 -37t-91 37l-1792 1792q-37 37 -37 91t37 91q38 37 91.5 37t90.5 -37l228 -229q50 10 91 10q159 0 289.5 -82.5t196.5 -216.5q66 134 197 216.5t290 82.5q107 0 208 -57t172 -146t114 -200.5t43 -217.5
q0 -16 -7 -65h1q-34 -272 -328 -591zM0 1171q0 134 64 270l1268 -1269q-52 -40 -103 -76t-75 -52l-25 -16q-43 -28 -105 -28t-105 26q-18 11 -48.5 31t-120 85t-172 133.5t-185 170.5t-179.5 202t-136 222t-72 236h1q-7 49 -7 65z" />
<glyph unicode="&#xe1ab;" horiz-adv-x="2048" d="M2011 219q37 -37 37 -90.5t-37 -91.5q-37 -37 -91 -37t-91 37l-1792 1792q-37 37 -37 91t37 91q38 37 91.5 37t90.5 -37l512 -513l235 499q24 51 58 51t58 -51l278 -591l618 -94q56 -9 67.5 -43.5t-27.5 -74.5l-450 -459l15 -89zM69 1312l108 16l951 -951l-658 -362
q-49 -27 -77.5 -7t-19.5 75l106 652l-449 459q-39 40 -27.5 74.5t66.5 43.5z" />
<glyph unicode="&#xe200;" horiz-adv-x="2048" d="M1954 1954q94 -94 94 -226t-94 -226l-226 -227l-453 453l227 226q94 94 226 94t226 -94zM1095 1728l633 -634q19 -19 19 -45t-19 -45l-181 -181q-19 -19 -45.5 -19t-45.5 19l-97 97l-664 -639q-44 -42 -253.5 -143t-339.5 -138l-102 101q37 130 138 339.5t143 252.5
l642 664l-100 99q-19 19 -19 45.5t19 45.5l181 181q19 19 45.5 19t45.5 -19z" />
<glyph unicode="&#xe201;" horiz-adv-x="2048" d="M1920 768q53 0 90.5 -37.5t37.5 -90.5v-128q0 -53 -37.5 -90.5t-90.5 -37.5h-256v-256q0 -53 -37.5 -90.5t-90.5 -37.5h-128q-53 0 -90.5 37.5t-37.5 90.5v256h-768q-53 0 -90.5 37.5t-37.5 90.5v768h-256q-53 0 -90.5 37.5t-37.5 90.5v128q0 53 37.5 90.5t90.5 37.5h256
v256q0 53 37.5 90.5t90.5 37.5h128q53 0 90.5 -37.5t37.5 -90.5v-1152h512v512h-384v384h640q53 0 90.5 -37.5t37.5 -90.5v-768h256z" />
<glyph unicode="&#xe206;" horiz-adv-x="2048" d="M1408 1792q0 52 38 90t90 38t90 -38t38 -90v-1536q0 -52 -38 -90t-90 -38t-90 38t-38 90v1536zM896 1792q0 52 38 90t90 38t90 -38t38 -90v-1536q0 -52 -38 -90t-90 -38t-90 38t-38 90v1536zM640 256q0 -52 -38 -90t-90 -38t-90 38t-38 90v1536q0 52 38 90t90 38t90 -38
t38 -90v-1536z" />
<glyph unicode="&#xe208;" horiz-adv-x="2048" d="M2009 1634q39 -39 39 -94t-39 -94l-1407 -1407q-39 -39 -94 -39t-94 39l-375 375q-39 39 -39 94t39 94l115 115l234 -234l91 90l-234 235l181 181l143 -144l91 90l-144 144l181 181l235 -234l90 90l-234 235l181 181l144 -144l90 90l-144 144l181 181l235 -234l90 90
l-234 235l115 115q39 39 94 39t94 -39z" />
<glyph unicode="&#xe223;" horiz-adv-x="2048" d="M0 383v1152h512v-1152l-256 -383zM1536 1664h-128v-576q0 -26 -19 -45t-45 -19t-45 19t-19 45v704h256q1 106 75.5 180.5t180.5 74.5t181 -75t75 -181v-767h-512v640zM1536 383v513h512v-513l-256 -383zM768 128v768h256v-768q0 -53 -37.5 -90.5t-90.5 -37.5t-90.5 37.5
t-37.5 90.5zM256 2047q106 0 181 -75t75 -181v-128h-512v128q0 106 75 181t181 75zM753 2037q10 11 21.5 10.5t21.5 -6.5l9 -6q12 -13 33 -36t75.5 -95t98 -143.5t84.5 -172.5t53 -192t-14.5 -191.5t-101.5 -180.5h-265q-23 28 -47 67.5t-47 102t-31.5 127t7 142t60.5 147.5
q5 8 12.5 23t24 60t24.5 88t4 99t-28 102q-14 31 6 55z" />
<glyph unicode="&#xe225;" horiz-adv-x="2048" d="M1984 1792q27 0 45.5 -19t18.5 -45v-448q0 -22 -13 -39t-33 -22l-850 -243v-208q52 0 90 -38t38 -90v-512q0 -52 -38 -90t-90 -38h-128q-52 0 -90 38t-38 90v512q0 52 38 90t90 38v256q0 22 13 39t34 23l849 242v336h-128v128h192zM1664 1664q0 -106 -75 -181t-181 -75
h-1152q-106 0 -181 75t-75 181v128q0 106 75 181t181 75h1152q106 0 181 -75t75 -181v-128z" />
<glyph unicode="&#xe229;" horiz-adv-x="2048" d="M327 492q16 106 68 194.5t116 143.5t140 95.5t133 58.5t104 25l256 -228q3 -142 -56 -262t-155 -198t-213 -139t-234.5 -94t-214.5 -54.5t-158 -27.5l-61 -6q-6 0 -15 1.5t-23.5 12.5t-13.5 29t11.5 32.5t20.5 20.5l10 5q45 18 85.5 49t68.5 66.5t51.5 74.5t37.5 74.5
t24 64t14 45.5zM1980 2003q61 -51 67.5 -130t-44.5 -140l-6 -6l-776 -844l-248 221l-3 3l740 873q51 61 130 67.5t140 -44.5z" />
<glyph unicode="&#xe22a;" horiz-adv-x="2048" d="M2011 219q37 -37 37 -90.5t-37 -91.5q-37 -37 -91 -37t-91 37l-1792 1792q-37 37 -37 91t37 91q38 37 91.5 37t90.5 -37l821 -822l670 791q51 61 130 67.5t140 -44.5t67.5 -130t-44.5 -140l-6 -6l-716 -779zM327 492q40 259 278 408l446 -446q-54 -81 -138 -150
t-175.5 -114t-190 -81t-186 -55.5t-157.5 -32.5t-111 -17l-41 -4q-6 0 -15 1.5t-23.5 12.5t-13.5 29t11.5 32.5t20.5 20.5l10 5q45 18 85.5 49t68.5 66.5t51.5 74.5t37.5 74.5t24 64t14 45.5z" />
<glyph unicode="&#xe22b;" horiz-adv-x="2048" d="M1408 256v512h256v-768h-1664v1664h768v-256h-512v-1152h1152zM503 704q49 16 91.5 52.5t68 77.5t44 79.5t25.5 64.5l8 25q18 81 62 147.5t95.5 105.5t112 67t105 39.5t81.5 14.5l187 -187q-3 -86 -35 -160.5t-83.5 -127.5t-117.5 -97t-138 -72t-143.5 -49t-136.5 -31.5
t-114.5 -17t-78.5 -7.5l-30 -2q-5 0 -11.5 1.5t-17 10.5t-9.5 23q2 14 10.5 24.5t16.5 14.5zM2010 2011q38 -37 38 -91t-38 -91l-543 -543l-181 181l543 544q37 37 90 37t91 -37z" />
<glyph unicode="&#xe2a1;" horiz-adv-x="2048" d="M1920 2048q53 0 90.5 -37.5t37.5 -90.5v-256q0 -53 -37.5 -90.5t-90.5 -37.5h-256q-53 0 -90.5 37.5t-37.5 90.5v256q0 53 37.5 90.5t90.5 37.5h256zM1664 1152q53 0 90.5 -37.5t37.5 -90.5v-256q0 -53 -37.5 -90.5t-90.5 -37.5h-256q-53 0 -90.5 37.5t-37.5 90.5v256
q0 53 37.5 90.5t90.5 37.5h256zM1024 1792q53 0 90.5 -37.5t37.5 -90.5v-256q0 -53 -37.5 -90.5t-90.5 -37.5h-256q-53 0 -90.5 37.5t-37.5 90.5v256q0 53 37.5 90.5t90.5 37.5h256zM384 512q53 0 90.5 -37.5t37.5 -90.5v-256q0 -53 -37.5 -90.5t-90.5 -37.5h-256
q-53 0 -90.5 37.5t-37.5 90.5v256q0 53 37.5 90.5t90.5 37.5h256zM384 1792q53 0 90.5 -37.5t37.5 -90.5v-256q0 -53 -37.5 -90.5t-90.5 -37.5h-256q-53 0 -90.5 37.5t-37.5 90.5v256q0 53 37.5 90.5t90.5 37.5h256zM1024 512q53 0 90.5 -37.5t37.5 -90.5v-256
q0 -53 -37.5 -90.5t-90.5 -37.5h-256q-53 0 -90.5 37.5t-37.5 90.5v256q0 53 37.5 90.5t90.5 37.5h256zM384 1152q53 0 90.5 -37.5t37.5 -90.5v-256q0 -53 -37.5 -90.5t-90.5 -37.5h-256q-53 0 -90.5 37.5t-37.5 90.5v256q0 53 37.5 90.5t90.5 37.5h256zM1024 1152
q53 0 90.5 -37.5t37.5 -90.5v-256q0 -53 -37.5 -90.5t-90.5 -37.5h-256q-53 0 -90.5 37.5t-37.5 90.5v256q0 53 37.5 90.5t90.5 37.5h256zM1664 512q53 0 90.5 -37.5t37.5 -90.5v-256q0 -53 -37.5 -90.5t-90.5 -37.5h-256q-53 0 -90.5 37.5t-37.5 90.5v256q0 53 37.5 90.5
t90.5 37.5h256z" />
<glyph unicode="&#xe300;" horiz-adv-x="2048" d="M594 792l200 -201q1 1 33.5 18.5t43.5 24.5l380 -379q-365 -255 -694 -255q-112 0 -216 36.5t-180 109.5q-98 98 -128.5 144t-32.5 84q0 27 12.5 63t34.5 59l303 303q46 45 115 45q77 0 129 -52zM1634 596l377 -377q37 -37 37 -90t-37 -91t-90 -38t-91 38l-1792 1792
q-38 38 -38 91t38 90t91 37t90 -37l1049 -1050q83 101 178 272l5.5 11t5.5 10l-201 201q-52 52 -52 128q0 69 45 115l304 303q47 47 114 47q53 0 90 -26t145 -135q72 -74 109 -175t37 -213q0 -213 -106.5 -445.5t-307.5 -457.5z" />
<glyph unicode="&#xe350;" horiz-adv-x="2048" d="M512 1408q-53 0 -90.5 37.5t-37.5 90.5v128q0 53 37.5 90.5t90.5 37.5h384v181q0 48 46 68q15 7 34 7q29 0 51 -17l480 -374q29 -23 29 -57t-29 -57l-480 -374q-22 -17 -51 -17q-19 0 -34 7q-46 20 -46 68v53v128h-384zM1920 1280q53 0 90.5 -37.5t37.5 -90.5v-52
l-1024 -640l-1024 640v52q0 53 37.5 90.5t90.5 37.5h640v-53q0 -60 33.5 -110.5t89.5 -74.5q39 -18 85 -18q74 0 130 45l272 211h542zM1024 332q37 0 68 19l956 598v-821q0 -53 -37.5 -90.5t-90.5 -37.5h-1792q-53 0 -90.5 37.5t-37.5 90.5v821l956 -598q31 -19 68 -19z" />
<glyph unicode="&#xe353;" horiz-adv-x="2048" d="M1959 2033q49 26 73.5 6.5t10.5 -72.5l-469 -1819q-14 -53 -58 -72t-92 9l-404 233l-289 -289q-37 -37 -64 -26.5t-27 63.5v320q0 53 25.5 118t61.5 104l617 672l-955 -597l-342 197q-48 28 -47.5 66.5t49.5 64.5z" />
<glyph unicode="&#xe354;" horiz-adv-x="2048" d="M1920 512q52 0 90 -38t38 -90v-256q0 -52 -38 -90t-90 -38h-1792q-52 0 -90 38t-38 90v256q0 52 38 90t90 38h640q0 -106 75 -181t181 -75t181 75t75 181h640zM2023 1150q25 -123 25 -254v-128q0 -52 -38 -90t-90 -38h-1792q-52 0 -90 38t-38 90v128q0 131 25 254
l206 772q11 52 56 89t97 37h1280q52 0 97 -37t56 -89zM1280 1152h477l-170 640h-1126l-170 -640h477q0 -106 75 -181t181 -75t181 75t75 181z" />
<glyph unicode="&#xe396;" horiz-adv-x="2048" d="M1600 1408q26 0 45 19t19 45t-19 45t-45 19h-1152q-26 0 -45 -19t-19 -45t19 -45t45 -19h1152zM1600 1024q26 0 45 19t19 45t-19 45t-45 19h-1152q-26 0 -45 -19t-19 -45t19 -45t45 -19h1152zM1408 2048q173 0 320.5 -86t233.5 -233.5t86 -320.5v-256q0 -173 -86 -320.5
t-233.5 -233.5t-320.5 -86h-128l-640 -512v512q-173 0 -320.5 86t-233.5 233.5t-86 320.5v256q0 173 86 320.5t233.5 233.5t320.5 86h768z" />
<glyph unicode="&#xe399;" horiz-adv-x="2048" d="M512 1120q67 0 113.5 47t46.5 113t-46.5 113t-113.5 47q-66 0 -113 -47t-47 -113t47 -113t113 -47zM1536 1120q66 0 113 47t47 113t-47 113t-113 47t-113 -47t-47 -113t47 -113t113 -47zM1024 1120q67 0 113.5 47t46.5 113t-46.5 113t-113.5 47q-66 0 -113 -47t-47 -113
t47 -113t113 -47zM1408 2048q173 0 320.5 -86t233.5 -233.5t86 -320.5v-256q0 -173 -86 -320.5t-233.5 -233.5t-320.5 -86h-128l-640 -512v512q-173 0 -320.5 86t-233.5 233.5t-86 320.5v256q0 173 86 320.5t233.5 233.5t320.5 86h768z" />
<glyph unicode="&#xe440;" horiz-adv-x="2048" d="M1792 896v-256h-1536v256q0 198 93.5 368t254.5 275.5t356 121.5v151q-64 37 -64 108q0 53 37.5 90.5t90.5 37.5t90.5 -37.5t37.5 -90.5q0 -71 -64 -108v-151q195 -16 356 -121.5t254.5 -275.5t93.5 -368zM704 864q66 0 113 47t47 113t-47 113t-113 47t-113 -47t-47 -113
t47 -113t113 -47zM1344 864q66 0 113 47t47 113t-47 113t-113 47t-113 -47t-47 -113t47 -113t113 -47zM1984 512q26 0 45 -19t19 -45v-384q0 -26 -19 -45t-45 -19h-1920q-26 0 -45 19t-19 45v384q0 26 19 45t45 19h1920z" />
<glyph unicode="&#xe500;" horiz-adv-x="2048" d="M896 512q106 0 181 -75t75 -181t-75 -181t-181 -75t-181 75t-75 181t75 181t181 75zM1536 512q106 0 181 -75t75 -181t-75 -181t-181 -75t-181 75t-75 181t75 181t181 75zM2024 1611q38 -53 17 -115l-256 -768q-13 -40 -46.5 -64t-74.5 -24h-896q-41 0 -75 24t-47 64
l-354 1064h-164q-53 0 -90.5 37.5t-37.5 90.5t37.5 90.5t90.5 37.5h256q41 0 74.5 -24t46.5 -64l99 -296h1316q65 0 104 -53z" />
<glyph unicode="&#xe520;" horiz-adv-x="2048" d="M768 1536v-128h512v128q0 106 -75 181t-181 75t-181 -75t-75 -181zM1536 1408h384v-1152q0 -106 -75 -181t-181 -75h-1280q-106 0 -181 75t-75 181v1152h384v128q0 139 68.5 257t186.5 186.5t257 68.5q212 0 362 -150t150 -362v-128z" />
<glyph unicode="&#xe551;" horiz-adv-x="2048" d="M1536 320v512q0 26 -19 45t-45 19h-128q-26 0 -45 -19t-19 -45v-512q0 -26 19 -45t45 -19h128q26 0 45 19t19 45zM1536 1536v256h-1024v-256h1024zM768 704v128q0 26 -19 45t-45 19h-128q-26 0 -45 -19t-19 -45v-128q0 -26 19 -45t45 -19h128q26 0 45 19t19 45z
M1152 1088v128q0 26 -19 45t-45 19h-128q-26 0 -45 -19t-19 -45v-128q0 -26 19 -45t45 -19h128q26 0 45 19t19 45zM1536 2048q106 0 181 -75t75 -181v-1536q0 -106 -75 -181t-181 -75h-1024q-106 0 -181 75t-75 181v1536q0 106 75 181t181 75h1024zM768 1088v128
q0 26 -19 45t-45 19h-128q-26 0 -45 -19t-19 -45v-128q0 -26 19 -45t45 -19h128q26 0 45 19t19 45zM1536 1088v128q0 26 -19 45t-45 19h-128q-26 0 -45 -19t-19 -45v-128q0 -26 19 -45t45 -19h128q26 0 45 19t19 45zM768 320v128q0 26 -19 45t-45 19h-128q-26 0 -45 -19
t-19 -45v-128q0 -26 19 -45t45 -19h128q26 0 45 19t19 45zM1152 704v128q0 26 -19 45t-45 19h-128q-26 0 -45 -19t-19 -45v-128q0 -26 19 -45t45 -19h128q26 0 45 19t19 45zM1152 320v128q0 26 -19 45t-45 19h-128q-26 0 -45 -19t-19 -45v-128q0 -26 19 -45t45 -19h128
q26 0 45 19t19 45z" />
<glyph unicode="&#xe552;" horiz-adv-x="2048" d="M768 896q52 0 90 -38t38 -90v-640q0 -52 -38 -90t-90 -38h-640q-52 0 -90 38t-38 90v640q0 52 38 90t90 38h640zM629 358l-91 90l91 91q19 18 19 44.5t-19 45.5t-45.5 19t-44.5 -19l-91 -91l-90 91q-19 19 -45.5 19t-45.5 -19t-19 -45.5t19 -44.5l91 -91l-91 -90
q-19 -19 -19 -45.5t19 -45.5t45.5 -19t45.5 19l90 91l91 -91q18 -19 44.5 -19t45.5 19t19 45.5t-19 45.5zM768 2048q52 0 90 -38t38 -90v-640q0 -52 -38 -90t-90 -38h-640q-52 0 -90 38t-38 90v640q0 52 38 90t90 38h640zM640 1536q26 0 45 19t19 45t-19 45t-45 19h-128v128
q0 26 -19 45t-45 19t-45 -19t-19 -45v-128h-128q-26 0 -45 -19t-19 -45t19 -45t45 -19h128v-128q0 -26 19 -45t45 -19t45 19t19 45v128h128zM1920 896q52 0 90 -38t38 -90v-640q0 -52 -38 -90t-90 -38h-640q-52 0 -90 38t-38 90v640q0 52 38 90t90 38h640zM1792 256
q26 0 45 19t19 45t-19 45t-45 19h-384q-26 0 -45 -19t-19 -45t19 -45t45 -19h384zM1792 512q26 0 45 19t19 45t-19 45t-45 19h-384q-26 0 -45 -19t-19 -45t19 -45t45 -19h384zM1920 2048q52 0 90 -38t38 -90v-640q0 -52 -38 -90t-90 -38h-640q-52 0 -90 38t-38 90v640
q0 52 38 90t90 38h640zM1792 1536q26 0 45 19t19 45t-19 45t-45 19h-384q-26 0 -45 -19t-19 -45t19 -45t45 -19h384z" />
<glyph unicode="&#xe570;" horiz-adv-x="2048" d="M896 1917v-1021h1021q-12 -185 -92.5 -350.5t-207 -285.5t-298.5 -190t-359 -70q-195 0 -373 76t-306.5 204.5t-204.5 306.5t-76 373q0 187 70 359t190 298.5t285.5 207t350.5 92.5zM1024 2048q271 -18 499.5 -157.5t367.5 -367.5t157 -499h-1024v1024zM1280 1280h448
q-65 151 -181 267t-267 181v-448z" />
<glyph unicode="&#xe57a;" horiz-adv-x="2048" d="M1920 7h-348l-164 491l-164 -491h-453l-151 755l-151 -762h-361q-54 5 -91 43.5t-37 91.5t37.5 90.5t90.5 37.5h151l361 1785l361 -1785h59l348 1044l348 -1044h164q53 0 90.5 -37.5t37.5 -90.5t-37.5 -90.5t-90.5 -37.5z" />
<glyph unicode="&#xe57b;" horiz-adv-x="2048" d="M1984 1920q26 0 45 -19t19 -45v-1280q0 -26 -19 -45t-45 -19h-1920q-26 0 -45 19t-19 45v1280q0 26 19 45t45 19h832q0 53 37.5 90.5t90.5 37.5t90.5 -37.5t37.5 -90.5h832zM1679 384l99 -199q24 -47 7 -97.5t-64 -73.5q-25 -14 -57 -14q-36 0 -67 19t-47 52l-157 313
h286zM270 185l99 199h286l-157 -313q-16 -33 -47 -52t-67 -19q-32 0 -57 14q-48 23 -64.5 73.5t7.5 97.5z" />
<glyph unicode="&#xe601;" horiz-adv-x="2048" d="M1792 2048l256 -256v-1728q0 -26 -19 -45t-45 -19h-384q-27 0 -45.5 19t-18.5 45v320h-128v256h128v384h-128v256h128v512zM0 1792l256 256l256 -256v-1728q0 -26 -19 -45t-45 -19h-384q-26 0 -45 19t-19 45v1728zM768 1792l256 256l256 -256v-1728q0 -26 -19 -45
t-45 -19h-384q-26 0 -45 19t-19 45v320h-128v256h128v384h-128v256h128v512z" />
<glyph unicode="&#xe670;" horiz-adv-x="2048" d="M2034 1973l-964 -1927q-16 -32 -28 -42t-16.5 5t-0.5 51l105 951q6 56 -29 91t-91 28l-950 -105q-36 -4 -51 0.5t-5 16.5t42 28l1927 964q50 25 68 7t-7 -68z" />
<glyph unicode="&#xe671;" horiz-adv-x="2048" d="M934 1115q-38 -37 -38 -90t38 -91t91 -38t90 38t37 91t-37 90t-90 37t-91 -37zM572 572l11 49.5t32.5 119.5t54 164.5t75.5 162.5t98 137t135 97.5t167.5 77t160 53.5t124.5 33l47 11q-4 -18 -11 -50t-32.5 -119.5t-54.5 -164.5t-76 -163t-98 -137t-134.5 -97.5
t-167 -76.5t-160 -53t-123.5 -34zM1024 2048q208 0 398 -81t327 -218.5t218 -327t81 -397.5t-81 -397.5t-218 -327t-327 -218.5t-398 -81t-397.5 81t-327 218.5t-218.5 327t-81 397.5t81 397.5t218.5 327t327 218.5t397.5 81zM1024 256q156 0 298 61t245 164t164 245t61 298
q0 208 -103 385t-280 280t-385 103t-385 -103t-280 -280t-103 -385q0 -156 61 -298t164 -245t245 -164t298 -61z" />
<glyph unicode="&#xe672;" horiz-adv-x="2048" d="M2048 768l-256 -256h-640v-384q0 -53 -37.5 -90.5t-90.5 -37.5t-90.5 37.5t-37.5 90.5v384h-512q-53 0 -90.5 37.5t-37.5 90.5v256q0 53 37.5 90.5t90.5 37.5h512h256h640zM896 1280h-640l-256 256l256 256h640v128q0 53 37.5 90.5t90.5 37.5t90.5 -37.5t37.5 -90.5v-128
h512q53 0 90.5 -37.5t37.5 -90.5v-256q0 -53 -37.5 -90.5t-90.5 -37.5h-512v-128h-256v128z" />
<glyph unicode="&#xe673;" horiz-adv-x="2048" d="M1408 2048v-1818l-768 -230v1809zM512 1862v-1793l-396 215q-48 23 -82 77.5t-34 107.5v1470q0 53 35 78t85 7zM1934 1831q47 -24 80.5 -79.5t33.5 -108.5v-1514q0 -53 -34.5 -75.5t-82.5 -0.5l-395 170v1812z" />
<glyph unicode="&#xe6d0;" horiz-adv-x="2048" d="M1024 2048q149 0 276 -43t216 -116.5t152.5 -172t93.5 -209t30 -227.5q0 -78 -42.5 -191t-110 -231t-149.5 -242.5t-164 -233t-149.5 -195t-110.5 -137.5l-42 -50q-16 19 -43.5 52t-107.5 133.5t-152.5 198.5t-161 230t-152.5 245.5t-107.5 228t-43.5 192.5
q0 117 30 227.5t93.5 209t152.5 172t216 116.5t276 43zM1024 1024q106 0 181 75t75 181t-75 181t-181 75t-181 -75t-75 -181t75 -181t181 -75z" />
<glyph unicode="&#xe710;" horiz-adv-x="2048" d="M1728 1024q133 0 226.5 -93.5t93.5 -226.5t-93.5 -226.5t-226.5 -93.5q-85 0 -161 45l1 -1l-1 1l-9 6q-48 29 -70 29q-33 0 -56.5 -23.5t-23.5 -56.5v-384h-384q-33 0 -56.5 23.5t-23.5 56.5q0 22 29 70q1 1 2 3t2 3.5t2 2.5q0 1 1 1l-1 -1q45 76 45 161
q0 133 -93.5 226.5t-226.5 93.5t-226.5 -93.5t-93.5 -226.5q0 -83 44 -160q10 -12 23 -39.5t13 -40.5q0 -33 -23.5 -56.5t-56.5 -23.5h-384v1408h384q33 0 56.5 23.5t23.5 56.5q0 13 -13 40.5t-23 39.5q-44 77 -44 160q0 133 93.5 226.5t226.5 93.5t226.5 -93.5t93.5 -226.5
q0 -85 -45 -161l1 1l-1 -1l-6 -9q-29 -48 -29 -70q0 -33 23.5 -56.5t56.5 -23.5h384v-384q0 -33 23.5 -56.5t56.5 -23.5q13 0 40.5 13t39.5 23q77 44 160 44z" />
<glyph unicode="&#xe714;" horiz-adv-x="2048" d="M1792 256v1024h-1536v-1024h1536zM384 1792q-53 0 -90.5 -37.5t-37.5 -90.5t37.5 -90.5t90.5 -37.5t90.5 37.5t37.5 90.5t-37.5 90.5t-90.5 37.5zM768 1792q-53 0 -90.5 -37.5t-37.5 -90.5t37.5 -90.5t90.5 -37.5t90.5 37.5t37.5 90.5t-37.5 90.5t-90.5 37.5zM1756 2048
q121 0 206.5 -86t85.5 -207v-1755h-2048v1755q0 121 86 207t207 86h1463zM1152 1792q-53 0 -90.5 -37.5t-37.5 -90.5t37.5 -90.5t90.5 -37.5t90.5 37.5t37.5 90.5t-37.5 90.5t-90.5 37.5z" />
<glyph unicode="&#xe780;" horiz-adv-x="2048" d="M2011 1115q37 -37 37 -90.5t-37 -91.5l-384 -384q-38 -37 -91 -37q-54 0 -91 37t-37 91t37 91l294 293l-294 293q-37 38 -37 91.5t37 90.5t90.5 37t91.5 -37zM603 1499q37 -37 37 -91t-37 -91l-294 -293l294 -293q37 -37 37 -91t-37 -91q-38 -37 -91 -37q-54 0 -91 37
l-384 384q-37 37 -37 91t37 91l384 384q38 37 91 37t91 -37zM1315 2043q51 -14 76.5 -60.5t11.5 -97.5l-512 -1792q-12 -42 -46.5 -67.5t-76.5 -25.5q-15 0 -35 5q-51 14 -77 60.5t-11 97.5l512 1792q14 51 61 76.5t97 11.5z" />
<glyph unicode="&#xe800;" horiz-adv-x="2048" d="M1125 1101l636 -870q31 -38 31 -91q0 -30 -12 -59q-16 -38 -48 -59.5t-71 -21.5h-1272q-39 0 -72 21.5t-49 59.5q-12 28 -12 59q0 53 31 91l636 870q37 51 101 51t101 -51zM0 2048h2048v-1408h-269l-187 256h200v896h-1536v-896h200l-187 -256h-269v1408z" />
<glyph unicode="&#xe808;" horiz-adv-x="2048" d="M1883 1025l146 -146q19 -19 19 -45.5t-19 -45.5l-62 -62q-19 -19 -45 -19t-45 19l-147 146l-149 -149q-19 -19 -45.5 -19t-45.5 19l-63 63q-19 19 -19 45.5t19 45.5l149 149l-143 143q-19 19 -19 45.5t19 45.5l62 62q19 19 45.5 19t45.5 -19l143 -143l146 146
q19 19 45.5 19t45.5 -19l63 -63q19 -19 19 -45.5t-19 -45.5zM128 1408h282l678 512v-1792l-678 512h-282q-52 0 -90 38t-38 90v512q0 52 38 90t90 38z" />
<glyph unicode="&#xe851;" horiz-adv-x="2048" d="M256 1792v-640h384v-640h-512q-53 0 -90.5 37.5t-37.5 90.5v1280q0 53 37.5 90.5t90.5 37.5h1024q53 0 90.5 -37.5t37.5 -90.5v-256h-256v128h-768zM1920 1536q53 0 90.5 -37.5t37.5 -90.5v-1280q0 -53 -37.5 -90.5t-90.5 -37.5h-1024q-53 0 -90.5 37.5t-37.5 90.5v1280
q0 53 37.5 90.5t90.5 37.5h1024zM1792 640v640h-768v-640h768z" />
<glyph unicode="&#xe8a0;" horiz-adv-x="2048" d="M768 1792q52 0 90 -38t38 -90v-1280q0 -52 -38 -90t-90 -38h-256q-52 0 -90 38t-38 90v1280q0 52 38 90t90 38h256zM1536 1792q52 0 90 -38t38 -90v-1280q0 -52 -38 -90t-90 -38h-256q-52 0 -90 38t-38 90v1280q0 52 38 90t90 38h256z" />
<glyph unicode="&#xe8b0;" horiz-adv-x="2048" d="M1280 1920v-256h-1280v256h256q0 52 38 90t90 38h512q52 0 90 -38t38 -90h256zM1152 1536v-1280h128v-256h-1280v256h128v1280h1024zM1280 1536h768v-768q-159 0 -271.5 -112.5t-112.5 -271.5h-384v1152zM1792 1024v256h-256v-256h256z" />
<glyph unicode="&#xe8c0;" horiz-adv-x="2048" d="M0 384h2048v-384h-512q0 52 -38 90t-90 38h-768q-52 0 -90 -38t-38 -90h-512v384zM256 1664v-768q0 -52 38 -90t90 -38h1280q52 0 90 38t38 90v768q0 52 -38 90t-90 38h-1280q-52 0 -90 -38t-38 -90zM2048 512h-2048v1408q0 52 38 90t90 38h1792q52 0 90 -38t38 -90
v-1408z" />
<glyph unicode="&#xe900;" horiz-adv-x="2048" d="M0 640v640h2048v-640h-2048zM1920 2048q53 0 90.5 -37.5t37.5 -90.5v-512h-2048v512q0 53 37.5 90.5t90.5 37.5h1792zM704 1024q-26 0 -45 -19t-19 -45t19 -45t45 -19h640q26 0 45 19t19 45t-19 45t-45 19h-640zM1344 1664q26 0 45 19t19 45t-19 45t-45 19h-640
q-26 0 -45 -19t-19 -45t19 -45t45 -19h640zM0 128v384h2048v-384q0 -53 -37.5 -90.5t-90.5 -37.5h-1792q-53 0 -90.5 37.5t-37.5 90.5z" />
<glyph unicode="&#xe9a0;" horiz-adv-x="2048" d="M1984 2048q26 0 45 -19t19 -45v-384q0 -26 -19 -45t-45 -19h-384q-26 0 -45 19t-19 45v384q0 26 19 45t45 19h384zM1216 2048q26 0 45 -19t19 -45v-384q0 -26 -19 -45t-45 -19h-384q-26 0 -45 19t-19 45v384q0 26 19 45t45 19h384zM1216 512q26 0 45 -19t19 -45v-384
q0 -26 -19 -45t-45 -19h-384q-26 0 -45 19t-19 45v384q0 26 19 45t45 19h384zM1216 1280q26 0 45 -19t19 -45v-384q0 -26 -19 -45t-45 -19h-384q-26 0 -45 19t-19 45v384q0 26 19 45t45 19h384zM1984 1280q26 0 45 -19t19 -45v-384q0 -26 -19 -45t-45 -19h-384q-26 0 -45 19
t-19 45v384q0 26 19 45t45 19h384zM1984 512q26 0 45 -19t19 -45v-384q0 -26 -19 -45t-45 -19h-384q-26 0 -45 19t-19 45v384q0 26 19 45t45 19h384zM448 1280q26 0 45 -19t19 -45v-384q0 -26 -19 -45t-45 -19h-384q-26 0 -45 19t-19 45v384q0 26 19 45t45 19h384zM448 2048
q26 0 45 -19t19 -45v-384q0 -26 -19 -45t-45 -19h-384q-26 0 -45 19t-19 45v384q0 26 19 45t45 19h384zM448 512q26 0 45 -19t19 -45v-384q0 -26 -19 -45t-45 -19h-384q-26 0 -45 19t-19 45v384q0 26 19 45t45 19h384z" />
<glyph unicode="&#xe9a1;" horiz-adv-x="2048" d="M2048 447v-384q0 -26 -19 -44.5t-45 -18.5h-1920q-26 0 -45 18.5t-19 44.5v384q0 26 19 45.5t45 19.5h1920q26 0 45 -19.5t19 -45.5zM2048 1983v-384q0 -26 -19 -44.5t-45 -18.5h-1920q-26 0 -45 18.5t-19 44.5v384q0 26 19 45.5t45 19.5h1920q26 0 45 -19.5t19 -45.5z
M2048 1215v-384q0 -26 -19 -44.5t-45 -18.5h-1920q-26 0 -45 18.5t-19 44.5v384q0 26 19 45.5t45 19.5h1920q26 0 45 -19.5t19 -45.5z" />
<glyph unicode="&#xe9a2;" horiz-adv-x="2048" d="M1601 2048h384q26 0 44.5 -19t18.5 -45v-1920q0 -26 -18.5 -45t-44.5 -19h-384q-26 0 -45.5 19t-19.5 45v1920q0 26 19.5 45t45.5 19zM65 2048h384q26 0 44.5 -19t18.5 -45v-1920q0 -26 -18.5 -45t-44.5 -19h-384q-26 0 -45.5 19t-19.5 45v1920q0 26 19.5 45t45.5 19z
M833 2048h384q26 0 44.5 -19t18.5 -45v-1920q0 -26 -18.5 -45t-44.5 -19h-384q-26 0 -45.5 19t-19.5 45v1920q0 26 19.5 45t45.5 19z" />
<glyph unicode="&#xe9a3;" horiz-adv-x="2048" d="M768 2048q52 0 90 -38t38 -90v-640q0 -52 -38 -90t-90 -38h-640q-52 0 -90 38t-38 90v640q0 52 38 90t90 38h640zM768 896q52 0 90 -38t38 -90v-640q0 -52 -38 -90t-90 -38h-640q-52 0 -90 38t-38 90v640q0 52 38 90t90 38h640zM1920 2048q52 0 90 -38t38 -90v-640
q0 -52 -38 -90t-90 -38h-640q-52 0 -90 38t-38 90v640q0 52 38 90t90 38h640zM1920 896q52 0 90 -38t38 -90v-640q0 -52 -38 -90t-90 -38h-640q-52 0 -90 38t-38 90v640q0 52 38 90t90 38h640z" />
<glyph unicode="&#xe9b0;" horiz-adv-x="2048" d="M256 1792h1536q67 0 104.5 -26t37.5 -69q0 -47 -46 -105l-291 -364q89 -51 142 -139t53 -193q0 -159 -112.5 -271.5t-271.5 -112.5q-64 0 -128 24v-280h-498v576l-622 760q-46 58 -46 105q0 43 37.5 69t104.5 26zM1408 704q80 0 136 56t56 136q0 61 -34.5 109.5
t-90.5 69.5l-195 -243v-78q55 -50 128 -50z" />
<glyph unicode="&#xea00;" horiz-adv-x="2048" d="M384 1792v-640h1280v640h-1280zM1280 768h658l92 -641q7 -52 -25 -89.5t-85 -37.5h-1792q-53 0 -85 37.5t-25 89.5l92 641h658v-128h512v128zM768 896h-645q5 77 5 128v896q0 52 38 90t90 38h1536q52 0 90 -38t38 -90v-896q0 -51 5 -128h-645h-512z" />
<glyph unicode="&#xea01;" horiz-adv-x="2048" d="M1024 128q53 0 90.5 37.5t37.5 90.5t-37.5 90.5t-90.5 37.5t-90.5 -37.5t-37.5 -90.5t37.5 -90.5t90.5 -37.5zM1664 512v1280h-1280v-1280h1280zM1664 2048q106 0 181 -75t75 -181v-1536q0 -106 -75 -181t-181 -75h-1280q-106 0 -181 75t-75 181v1536q0 106 75 181
t181 75h1280z" />
<glyph unicode="&#xea10;" horiz-adv-x="2048" d="M1344 1280v-512h-960v512h960zM1920 1344h128v-640h-128v-64q0 -106 -75 -181t-181 -75h-1408q-106 0 -181 75t-75 181v768q0 106 75 181t181 75h1408q106 0 181 -75t75 -181v-64zM1664 640v768h-1408v-768h1408z" />
<glyph unicode="&#xea11;" horiz-adv-x="2048" d="M960 1280v-512h-576v512h576zM1920 1344h128v-640h-128v-64q0 -106 -75 -181t-181 -75h-1408q-106 0 -181 75t-75 181v768q0 106 75 181t181 75h1408q106 0 181 -75t75 -181v-64zM1664 640v768h-1408v-768h1408z" />
<glyph unicode="&#xea12;" horiz-adv-x="2048" d="M640 1280v-512h-256v512h256zM1920 1344h128v-640h-128v-64q0 -106 -75 -181t-181 -75h-1408q-106 0 -181 75t-75 181v768q0 106 75 181t181 75h1408q106 0 181 -75t75 -181v-64zM1664 640v768h-1408v-768h1408z" />
<glyph unicode="&#xea13;" horiz-adv-x="2048" d="M1920 1344h128v-640h-128v-64q0 -106 -75 -181t-181 -75h-1408q-106 0 -181 75t-75 181v768q0 106 75 181t181 75h1408q106 0 181 -75t75 -181v-64zM1664 640v768h-1408v-768h1408z" />
<glyph unicode="&#xea15;" horiz-adv-x="2048" d="M256 640h651l256 -256h-907q-106 0 -181 75t-75 181v768q0 58 27 112l229 -229v-651zM1920 640q0 -66 -31.5 -122.5t-85.5 -91.5l208 -207q37 -37 37 -90.5t-37 -91.5q-37 -37 -91 -37t-91 37l-1792 1792q-37 37 -37 91t37 91q38 37 91.5 37t90.5 -37l346 -347h1099
q106 0 181 -75t75 -181v-64h128v-640h-128v-64zM821 1408l768 -768h75v768h-843z" />
<glyph unicode="&#xea89;" horiz-adv-x="2048" d="M1152 2048l896 -896l-128 -128l-896 896zM802 1255l177 529l805 -805l-529 -177l-765 -765q-38 -37 -91 -37t-90 37l-272 272q-37 37 -37 90t37 91zM1088 896q0 80 -56 136q-58 56 -136 56q-80 0 -136 -56l-256 -256q-56 -56 -56 -136t56 -136t136 -56q78 0 136 56
l256 256q56 56 56 136zM805 987q37 37 91 37t91 -37t37 -91t-37 -91t-91 -37t-91 37t-37 91t37 91z" />
<glyph unicode="&#xea8a;" horiz-adv-x="2048" d="M2037 1013q23 -48 -0.5 -82.5t-78.5 -34.5h-422v-212q64 -38 64 -108q0 -53 -37.5 -90.5t-90.5 -37.5t-90.5 37.5t-37.5 90.5q0 70 64 108v212h-1318q-55 0 -78.5 34.5t-1.5 82.5l426 918q23 48 78 82.5t110 34.5h800q55 0 110 -34.5t78 -82.5zM1152 247
q167 -22 275.5 -90.5t108.5 -156.5h-1024q0 88 108.5 156.5t275.5 90.5v521h256v-521z" />
<glyph unicode="&#xeab1;" horiz-adv-x="2048" d="M1792 1536h-1536q-53 0 -90.5 37.5t-37.5 90.5v128q0 53 37.5 90.5t90.5 37.5h1536q53 0 90.5 -37.5t37.5 -90.5v-128q0 -53 -37.5 -90.5t-90.5 -37.5zM1671 1024h249q53 0 90.5 -37.5t37.5 -90.5t-37.5 -90.5t-90.5 -37.5h-179l108 -397q7 -24 7 -51q0 -64 -39 -116
t-102 -69q-24 -7 -51 -7q-64 0 -116 39t-69 103l-136 498h-638l-136 -498q-17 -64 -69 -103t-116 -39q-26 0 -51 7q-63 17 -102 69t-39 116q0 27 7 51l108 397h-179q-53 0 -90.5 37.5t-37.5 90.5t37.5 90.5t90.5 37.5h249l105 384h398l-105 -384h498l-105 384h398z" />
<glyph unicode="&#xeab4;" horiz-adv-x="2048" d="M1024 768q106 0 181 75t75 181t-75 181t-181 75t-181 -75t-75 -181t75 -181t181 -75zM2021 997q37 -42 23.5 -71.5t-69.5 -29.5h-183v-896h-1536v896h-183q-56 0 -69.5 29.5t23.5 71.5l907 1010q37 41 90 41t90 -41zM1024 256q53 0 90.5 37.5t37.5 90.5t-37.5 90.5
t-90.5 37.5t-90.5 -37.5t-37.5 -90.5t37.5 -90.5t90.5 -37.5z" />
<glyph unicode="&#xeb00;" horiz-adv-x="2048" d="M1594 1274q193 -22 323.5 -166t130.5 -340q0 -212 -150 -362t-362 -150h-410l250 312q66 82 38 141t-134 59h-128v256q0 53 -37.5 90.5t-90.5 37.5t-90.5 -37.5t-37.5 -90.5v-256h-128q-106 0 -134 -59t38 -141l250 -312h-410q-212 0 -362 150t-150 362q0 196 130.5 340
t323.5 166q23 220 185.5 369t384.5 149t385 -149.5t185 -368.5z" />
<glyph unicode="&#xeb01;" horiz-adv-x="2048" d="M900 554l-592 609q-52 42 -52 101.5t52 101.5q51 42 124 42h336v384q0 106 75 181t181 75t181 -75t75 -181v-384h336q72 0 125 -42q51 -42 51 -101.5t-51 -101.5l-593 -609q-51 -42 -124 -42t-124 42zM1792 384q53 0 90.5 -37.5t37.5 -90.5v-128q0 -53 -37.5 -90.5
t-90.5 -37.5h-1536q-52 0 -90 38t-38 90v128q0 52 38 90t90 38h1536z" />
<glyph unicode="&#xeb40;" horiz-adv-x="2048" d="M1594 1274q193 -22 323.5 -166t130.5 -340q0 -212 -150 -362t-362 -150h-384v256h128q106 0 134 59t-38 141l-272 340q-33 41 -80 41t-80 -41l-272 -340q-66 -82 -38 -141t134 -59h128v-256h-384q-212 0 -362 150t-150 362q0 196 130.5 340t323.5 166q23 220 185.5 369
t384.5 149t385 -149.5t185 -368.5z" />
<glyph unicode="&#xeb41;" horiz-adv-x="2048" d="M1149 2006l592 -609q51 -42 51 -101.5t-51 -101.5q-53 -42 -125 -42h-336v-384q0 -106 -75 -181t-181 -75t-181 75t-75 181v384h-336q-73 0 -124 42q-52 42 -52 101.5t52 101.5l592 609q52 42 124.5 42t124.5 -42zM1792 384q53 0 90.5 -37.5t37.5 -90.5v-128
q0 -53 -37.5 -90.5t-90.5 -37.5h-1536q-52 0 -90 38t-38 90v128q0 52 38 90t90 38h1536z" />
<glyph unicode="&#xeb82;" horiz-adv-x="2048" d="M1936 2048q46 0 79 -33t33 -79v-672q0 -46 -33 -79t-79 -33h-672q-46 0 -79 33t-33 79q0 48 33 79l205 205q-165 116 -366 116q-153 0 -286 -69t-223 -187h-440q116 286 373.5 463t575.5 177q356 0 638 -227l195 194q33 33 79 33zM1024 384q153 0 286 69t223 187h440
q-116 -286 -373.5 -463t-575.5 -177q-356 0 -638 227l-195 -194q-33 -33 -79 -33t-79 33t-33 79v672q0 46 33 79t79 33h672q46 0 79 -33t33 -79q0 -48 -33 -79l-205 -205q165 -116 366 -116z" />
<glyph unicode="&#xeb83;" horiz-adv-x="2048" d="M1024 1920q53 0 90.5 -37.5t37.5 -90.5v-256q0 -53 -37.5 -90.5t-90.5 -37.5t-90.5 37.5t-37.5 90.5v256q0 53 37.5 90.5t90.5 37.5zM1024 640q53 0 90.5 -37.5t37.5 -90.5v-256q0 -53 -37.5 -90.5t-90.5 -37.5t-90.5 37.5t-37.5 90.5v256q0 53 37.5 90.5t90.5 37.5z
M571 1658l181 -181q38 -37 38 -90t-38 -91t-90 -38q-53 0 -91 38l-181 181q-38 37 -38 90t38 91t91 38t90 -38zM1476 752l181 -181q37 -37 37 -90t-37 -91q-37 -37 -90 -37t-91 37l-181 181q-37 37 -37 90t37 91t90 38t91 -38zM640 1024q0 -53 -37.5 -90.5t-90.5 -37.5h-256
q-53 0 -90.5 37.5t-37.5 90.5t37.5 90.5t90.5 37.5h256q53 0 90.5 -37.5t37.5 -90.5zM1792 1152q53 0 90.5 -37.5t37.5 -90.5t-37.5 -90.5t-90.5 -37.5h-256q-53 0 -90.5 37.5t-37.5 90.5t37.5 90.5t90.5 37.5h256zM571 752q37 38 90 38t91 -38t38 -91t-38 -90l-181 -181
q-37 -37 -90 -37q-54 0 -91 37q-38 38 -38 91t38 90zM1386 1258q-53 0 -91 38q-37 38 -37 91t37 90l181 181q38 38 91 38t90 -38t37 -91t-37 -90l-181 -181q-38 -38 -90 -38z" />
<glyph unicode="&#xeb84;" horiz-adv-x="2048" d="M1024 1421q-233 0 -442 -88.5t-368 -247.5l-214 214q200 200 464.5 312t559.5 112t559.5 -112t464.5 -312l-213 -214q-159 159 -368.5 247.5t-442.5 88.5zM1024 1180q184 0 349.5 -70t290.5 -195l-213 -214q-84 84 -194 130.5t-233 46.5t-233 -46.5t-193 -130.5l-214 214
q125 125 290.5 195t349.5 70zM1024 637q150 0 256 -106l-170 -171q-35 -35 -85.5 -35t-85.5 35l-171 171q108 106 256 106z" />
<glyph unicode="&#xec00;" horiz-adv-x="2048" d="M1728 768q26 0 45 19t19 45t-19 45t-45 19h-640q-26 0 -45 -19t-19 -45t19 -45t45 -19h640zM1728 1152q26 0 45 19t19 45t-19 45t-45 19h-640q-26 0 -45 -19t-19 -45t19 -45t45 -19h640zM1728 1536q26 0 45 19t19 45t-19 45t-45 19h-640q-26 0 -45 -19t-19 -45t19 -45
t45 -19h640zM768 2048h1280v-1664h-1280v1664zM640 384v-128h640v-256h-1280v1664h640v-384h-320q-26 0 -45 -19t-19 -45t19 -45t45 -19h320v-256h-320q-26 0 -45 -19t-19 -45t19 -45t45 -19h320v-256h-320q-26 0 -45 -19t-19 -45t19 -45t45 -19h320z" />
<glyph unicode="&#xec05;" horiz-adv-x="2048" d="M960 384q26 0 45 19t19 45t-19 45t-45 19h-640q-26 0 -45 -19t-19 -45t19 -45t45 -19h640zM1152 1024q159 0 271.5 112.5t112.5 271.5t-112.5 271.5t-271.5 112.5t-271.5 -112.5t-112.5 -271.5t112.5 -271.5t271.5 -112.5zM2010 731q38 -37 38 -90t-38 -91t-90 -38
q-53 0 -91 38l-320 320q-1 1 -3 5q-163 -107 -354 -107q-130 0 -248.5 51t-204 136.5t-136.5 204t-51 248.5t51 248.5t136.5 204t204 136.5t248.5 51t248.5 -51t204 -136.5t136.5 -204t51 -248.5q0 -191 -107 -354q4 -2 5 -3zM729 768q191 -128 423 -128q56 0 128 12v-652
h-1280v1664h429q-45 -124 -45 -256q0 -56 12 -128h-76q-26 0 -45 -19t-19 -45t19 -45t45 -19h109q51 -143 152 -256h-261q-26 0 -45 -19t-19 -45t19 -45t45 -19h409z" />
<glyph unicode="&#xec76;" horiz-adv-x="2048" d="M1951 1280q55 0 81.5 -35.5t9.5 -85.5l-314 -910q-17 -50 -68 -85.5t-106 -35.5h-428l250 312q66 82 38 141t-134 59h-128v256q0 53 -37.5 90.5t-90.5 37.5t-90.5 -37.5t-37.5 -90.5v-256h-128q-106 0 -134 -59t38 -141l250 -312h-825q-55 0 -81.5 36t-8.5 85l313 910
q17 50 68.5 85.5t105.5 35.5h1457zM494 1408q-95 0 -179.5 -59.5t-115.5 -147.5l-199 -577v1196q0 41 29.5 70.5t70.5 29.5h412l256 -256h896v-256h-1170z" />
<glyph unicode="&#xec77;" horiz-adv-x="2048" d="M1951 1280q55 0 81.5 -35.5t9.5 -85.5l-314 -910q-17 -50 -68 -85.5t-106 -35.5h-402v256h128q106 0 134 59t-38 141l-272 340q-33 41 -80 41t-80 -41l-272 -340q-66 -82 -38 -141t134 -59h128v-256h-799q-55 0 -81.5 36t-8.5 85l313 910q17 50 68.5 85.5t105.5 35.5
h1457zM494 1408q-95 0 -179.5 -59.5t-115.5 -147.5l-199 -578v1197q0 41 29.5 70.5t70.5 29.5h412l256 -256h896v-256h-1170z" />
<glyph unicode="&#xed10;" horiz-adv-x="2048" d="M1968 768q33 0 56.5 -23.5t23.5 -56.5v-480q0 -33 -23.5 -56.5t-56.5 -23.5q-34 0 -56 24l-150 149l-172 -173q-57 -56 -144.5 -92t-165.5 -36h-512q-79 0 -166 36t-143 92l-173 173l-149 -150q-25 -23 -57 -23q-33 0 -56.5 23.5t-23.5 56.5v480q0 33 23.5 56.5
t56.5 23.5h480q33 0 56.5 -23.5t23.5 -56.5q0 -32 -23 -57l-150 -149l173 -173q19 -19 60 -36t68 -17h128v1048q-113 40 -184.5 138t-71.5 222q0 159 112.5 271.5t271.5 112.5t271.5 -112.5t112.5 -271.5q0 -124 -71.5 -222t-184.5 -138v-1048h128q28 0 69 16.5t61 36.5
l171 173l-149 150q-24 22 -24 56q0 33 23.5 56.5t56.5 23.5h480zM1024 1792q-53 0 -90.5 -37.5t-37.5 -90.5t37.5 -90.5t90.5 -37.5t90.5 37.5t37.5 90.5t-37.5 90.5t-90.5 37.5z" />
<glyph unicode="&#xed40;" horiz-adv-x="2048" d="M1216 0v384h128v-384h-128zM960 0v384h128v-384h-128zM1472 0v384h128v-384h-128zM384 768q53 0 90.5 37.5t37.5 90.5t-37.5 90.5t-90.5 37.5t-90.5 -37.5t-37.5 -90.5t37.5 -90.5t90.5 -37.5zM768 768q53 0 90.5 37.5t37.5 90.5t-37.5 90.5t-90.5 37.5t-90.5 -37.5
t-37.5 -90.5t37.5 -90.5t90.5 -37.5zM1664 2048v-640h-1280v640h1280zM1344 1664q26 0 45 19t19 45t-19 45t-45 19h-640q-26 0 -45 -19t-19 -45t19 -45t45 -19h640zM1920 1280q52 0 90 -38t38 -90v-512q0 -52 -38 -90t-90 -38h-1792q-52 0 -90 38t-38 90v512q0 52 38 90
t90 38h1792zM704 0v384h128v-384h-128zM448 0v384h128v-384h-128z" />
<glyph unicode="&#xed41;" horiz-adv-x="2048" d="M704 1792q-26 0 -45 -19t-19 -45t19 -45t45 -19h640q26 0 45 19t19 45t-19 45t-45 19h-640zM128 1024q-53 0 -90.5 37.5t-37.5 90.5t37.5 90.5t90.5 37.5h256v768h1280v-768h256q53 0 90.5 -37.5t37.5 -90.5t-37.5 -90.5t-90.5 -37.5h-1792zM704 1536q-26 0 -45 -19
t-19 -45t19 -45t45 -19h640q26 0 45 19t19 45t-19 45t-45 19h-640zM448 512q26 0 45 19t19 45t-19 45t-45 19h-128q-26 0 -45 -19t-19 -45t19 -45t45 -19h128zM1472 256q26 0 45 19t19 45t-19 45t-45 19h-128q-26 0 -45 -19t-19 -45t19 -45t45 -19h128zM1728 512q26 0 45 19
t19 45t-19 45t-45 19h-128q-26 0 -45 -19t-19 -45t19 -45t45 -19h128zM1088 256q26 0 45 19t19 45t-19 45t-45 19h-128q-26 0 -45 -19t-19 -45t19 -45t45 -19h128zM1152 576q0 -26 19 -45t45 -19h128q26 0 45 19t19 45t-19 45t-45 19h-128q-26 0 -45 -19t-19 -45zM832 512
q26 0 45 19t19 45t-19 45t-45 19h-128q-26 0 -45 -19t-19 -45t19 -45t45 -19h128zM704 256q26 0 45 19t19 45t-19 45t-45 19h-128q-26 0 -45 -19t-19 -45t19 -45t45 -19h128zM1280 896h585l183 -512q0 -186 -106.5 -285t-277.5 -99h-1280q-171 0 -277.5 99t-106.5 285
l183 512h585q0 -53 37.5 -90.5t90.5 -37.5h256q53 0 90.5 37.5t37.5 90.5z" />
<glyph unicode="&#xed50;" horiz-adv-x="2048" d="M384 1664q0 -80 -56 -136t-136 -56t-136 56t-56 136t56 136t136 56t136 -56t56 -136zM2048 1664q0 53 -37.5 90.5t-90.5 37.5h-1280q-53 0 -90.5 -37.5t-37.5 -90.5t37.5 -90.5t90.5 -37.5h1280q53 0 90.5 37.5t37.5 90.5zM2048 384q0 53 -37.5 90.5t-90.5 37.5h-1280
q-53 0 -90.5 -37.5t-37.5 -90.5t37.5 -90.5t90.5 -37.5h1280q53 0 90.5 37.5t37.5 90.5zM2048 1024q0 53 -37.5 90.5t-90.5 37.5h-1280q-53 0 -90.5 -37.5t-37.5 -90.5t37.5 -90.5t90.5 -37.5h1280q53 0 90.5 37.5t37.5 90.5zM384 1024q0 -80 -56 -136t-136 -56t-136 56
t-56 136t56 136t136 56t136 -56t56 -136zM384 384q0 -80 -56 -136t-136 -56t-136 56t-56 136t56 136t136 56t136 -56t56 -136z" />
<glyph unicode="&#xee00;" horiz-adv-x="2048" d="M768 1472q-106 0 -134 56t38 139l272 340q33 41 80 41t80 -41l272 -340q66 -83 38 -139t-134 -56h-128v-832q0 -53 -37.5 -90.5t-90.5 -37.5t-90.5 37.5t-37.5 90.5v832h-128zM1408 1216h640v-1216h-2048v1216h640v-256h-384v-704h1536v704h-384v256z" />
<glyph unicode="&#xee01;" horiz-adv-x="2048" d="M1760 1088q40 0 68 28t28 68t-28 68l-153 152l125 124q56 56 56 136t-56 136t-136 56t-136 -56l-124 -125l-152 153q-30 28 -68 28q-40 0 -68 -28t-28 -68v-479v-2v-95q0 -40 28 -68t68 -28h95h1h1h479zM960 288v576q0 40 -28 68t-68 28h-576q-40 0 -68 -28t-28 -68
q0 -38 28 -68l152 -152l-124 -124q-56 -56 -56 -136t56 -136q58 -56 136 -56t136 56l124 125l152 -153q30 -28 68 -28q40 0 68 28t28 68zM1792 2048q106 0 181 -75t75 -181v-1536q0 -106 -75 -181t-181 -75h-1536q-106 0 -181 75t-75 181v1536q0 106 75 181t181 75h1536z
" />
<glyph unicode="&#xee04;" horiz-adv-x="2048" d="M1952 776q40 0 68 -28t28 -68v-576q0 -40 -28 -68t-68 -28h-576q-40 0 -68 28t-28 68q0 38 28 68l152 152l-244 244q-56 56 -56 136t56 136t135.5 56t135.5 -56l245 -244l152 152q28 28 68 28zM96 1280q-40 0 -68 28t-28 68v576q0 40 28 68t68 28l576 -1q40 0 68 -28
t28 -67q0 -40 -28 -68l-152 -153l244 -244q56 -56 56 -135q0 -80 -56 -136t-136 -56t-136 56l-244 244l-152 -152q-28 -28 -68 -28zM561 840q56 56 135.5 56t135.5 -56t56 -135.5t-56 -135.5l-244 -245l152 -152q28 -26 28 -68q0 -40 -28 -68t-68 -28h-479h-1h-1h-95
q-40 0 -68 28t-28 68v95v2l1 479q0 40 27.5 68t67.5 28q42 0 68 -28l152 -152zM1952 2048q40 0 68 -28t28 -68v-95v-2v-479q0 -40 -28 -68t-68 -28t-68 28l-152 153l-245 -245q-56 -56 -135.5 -56t-135.5 56t-56 136t56 136l244 244l-152 152q-28 28 -28 68t28 68t68 28h479
h1h1h95z" />
<glyph unicode="&#xee05;" horiz-adv-x="2048" d="M1747 580l245 -244q56 -58 56 -136t-56 -136q-56 -56 -136 -56t-136 56l-244 244l-153 -152q-28 -28 -67 -28q-40 0 -68 28t-28 68v576q0 40 28 68t68 28h576q40 0 68 -28t28 -68q0 -38 -28 -68zM792 896q40 0 68 -28t28 -68v-95v-2v-479q0 -40 -28 -68t-68 -28
q-38 0 -68 28l-152 153l-244 -245q-56 -56 -136 -56t-136 56t-56 136t56 136l245 244l-153 152q-28 30 -28 68q0 40 28 68t68 28h479h1h1h95zM1256 1160q-40 0 -68 28t-28 68v95v1v480q0 40 28 68t68 28t67 -29l153 -152l244 245q56 56 136 56t136 -56t56 -136t-56 -136
l-245 -244l152 -153q27 -26 29 -67q0 -40 -28.5 -68t-67.5 -28h-479h-2h-1h-94zM792 1928q40 0 68 -28t28 -68v-576q0 -40 -28 -68t-68 -28h-576q-40 0 -68 28t-28 68q0 38 28 68l153 152l-245 244q-56 58 -56 136t56 136q56 56 136 56t136 -56l244 -245l152 153
q30 28 68 28z" />
<glyph unicode="&#xee06;" horiz-adv-x="2048" d="M256 1408q-52 0 -90 38t-38 90t38 90t90 38h1536q53 0 90.5 -37.5t37.5 -90.5t-37.5 -90.5t-90.5 -37.5h-1536zM1792 640q53 0 90.5 -37.5t37.5 -90.5t-37.5 -90.5t-90.5 -37.5h-1536q-52 0 -90 38t-38 90t38 90t90 38h1536zM1792 1152q53 0 90.5 -37.5t37.5 -90.5
t-37.5 -90.5t-90.5 -37.5h-1536q-52 0 -90 38t-38 90t38 90t90 38h1536z" />
<glyph unicode="&#xee09;" horiz-adv-x="2048" d="M512 768q0 -106 75 -181t181 -75h640v-384q0 -52 -38 -90t-90 -38h-1152q-52 0 -90 38t-38 90v1152q0 52 38 90t90 38h384v-640zM1920 2048q52 0 90 -38t38 -90v-1152q0 -52 -38 -90t-90 -38h-1152q-52 0 -90 38t-38 90v1152q0 52 38 90t90 38h1152zM1664 1280
q26 0 45 19t19 45t-19 45t-45 19h-256v256q0 26 -19 45t-45 19t-45 -19t-19 -45v-256h-256q-26 0 -45 -19t-19 -45t19 -45t45 -19h256v-256q0 -26 19 -45t45 -19t45 19t19 45v256h256z" />
<glyph unicode="&#xee0b;" horiz-adv-x="2048" d="M512 768q0 -106 75 -181t181 -75h640v-384q0 -52 -38 -90t-90 -38h-1152q-52 0 -90 38t-38 90v1152q0 52 38 90t90 38h384v-640zM1920 2048q52 0 90 -38t38 -90v-1152q0 -52 -38 -90t-90 -38h-1152q-52 0 -90 38t-38 90v1152q0 52 38 90t90 38h1152zM1736 1620
q15 22 10.5 48t-26.5 41t-48 10.5t-41 -26.5l-353 -507l-210 204q-19 19 -45 18.5t-45 -19.5q-19 -20 -18.5 -46t19.5 -45l264 -256q18 -18 45 -18h6q30 3 46 27z" />
<glyph unicode="&#xee11;" horiz-adv-x="2048" d="M704 1024q0 -133 94 -226q92 -94 226 -94t226 94q94 93 94 226t-94 226q-92 94 -226 94t-226 -94q-94 -93 -94 -226zM1024 2048q200 0 388.5 -76.5t335.5 -223.5t223.5 -335.5t76.5 -388.5t-76.5 -388.5t-223.5 -335.5t-335.5 -223.5t-388.5 -76.5t-388.5 76.5
t-335.5 223.5t-223.5 335.5t-76.5 388.5t76.5 388.5t223.5 335.5t335.5 223.5t388.5 76.5zM1174 1445l240 240q-181 107 -390 107t-389 -107l240 -240q76 27 149 27q72 0 150 -27zM1445 875l239 -239q105 180 105 388t-105 388l-239 -239q26 -73 26 -149t-26 -149zM875 603
l-240 -240q180 -107 389 -107t390 107l-240 240q-78 -27 -150 -27q-73 0 -149 27zM365 636l238 239q-25 71 -25 149t25 149l-238 239q-106 -179 -106 -388t106 -388z" />
<glyph unicode="&#xef60;" horiz-adv-x="2048" d="M1760 1728q119 0 203.5 -84.5t84.5 -203.5t-84.5 -203.5t-203.5 -84.5q-101 0 -181 66l-748 -749q65 -81 65 -181q0 -119 -84.5 -203.5t-203.5 -84.5t-203.5 84.5t-84.5 203.5q0 12 4 36q-24 -4 -36 -4q-119 0 -203.5 84.5t-84.5 203.5t84.5 203.5t203.5 84.5
q100 0 181 -65l748 748q-65 81 -65 181q0 119 84.5 203.5t203.5 84.5t203.5 -84.5t84.5 -203.5q0 -12 -4 -36q24 4 36 4z" />
<glyph unicode="&#xef61;" horiz-adv-x="2048" d="M1654 1782q66 -69 102 -170.5t36 -198.5q0 -190 -125 -342q-2 -1 -4 -5q-3 -3 -11.5 -14.5t-26.5 -43t-34 -69.5t-32 -97t-23 -122q5 -184 -55 -333t-179 -247q-29 -24 -60 -4q-30 20 -22 57q12 54 20 126t10.5 163.5t-15.5 177t-58 136.5q-54 70 -153 70t-154 -70
q-38 -49 -56 -131t-16.5 -170t9 -160t19.5 -129q6 -16 6 -25q0 -22 -15 -37.5t-37 -15.5h-2q-17 0 -32 12q-119 98 -179 248t-55 339q-7 62 -23 120t-32 95t-34 67.5t-26.5 42t-11.5 14.5q-1 1 -2 3t-2 3q-125 151 -125 341q0 97 36 198.5t102 170.5q132 138 317 138
q112 -2 214 -52q2 -1 36 -24t63 -43q66 46 93 63q105 54 212 56q193 0 325 -138z" />
<glyph unicode="&#xf000;" horiz-adv-x="2048" d="M1646 1171q7 -25 -7 -48t-40 -28q-4 -2 -14 -2q-23 0 -40 13.5t-23 35.5q-6 26 8 48.5t39 28.5q26 7 49 -7.5t28 -40.5zM522 1421q16 21 42.5 24t47.5 -14q21 -16 24 -42t-14 -47q-20 -25 -50 -25q-22 0 -39 14q-21 16 -24 42.5t13 47.5zM476 1212q26 -5 40.5 -27
t8.5 -48q-6 -23 -23.5 -36.5t-39.5 -13.5q-9 0 -14 1q-26 6 -40 28.5t-8 48.5q5 26 28 40t48 7zM836 648q0 46 47 223t94 331l47 153q21 -68 52 -171t83.5 -296.5t52.5 -239.5q0 -78 -55 -133t-133 -56q-78 1 -133 56t-55 133zM1024 2048q209 0 398.5 -81t326.5 -218
t218 -326.5t81 -398.5q0 -208 -81 -397.5t-218 -327t-327 -218.5t-398 -81t-398 81t-327 218.5t-218 327t-81 397.5q0 209 81 398.5t218 326.5t326.5 218t398.5 81zM1298 1603q24 -12 33 -37t-2 -49q-19 -36 -59 -36q-16 0 -27 6q-24 11 -33 36t2 49q12 24 37 33t49 -2z
M1521 1426q17 -20 14 -46.5t-23 -43.5q-19 -14 -40 -14q-31 0 -50 25q-17 20 -14.5 46t23.5 43t47.5 14t42.5 -24zM1024 256q208 0 385 103t280 280t103 385q0 209 -103 385.5t-279.5 279.5t-385.5 103q-208 0 -385 -103t-280 -280t-103 -385q0 -156 61 -298t164 -245
t245 -164t298 -61zM1020 1536q-26 0 -44 18.5t-20 45.5q0 26 18.5 45t45.5 19t45.5 -18.5t18.5 -45.5q0 -26 -18.5 -45t-43.5 -19h-2zM744 1599q24 12 48.5 3t37.5 -33q11 -23 2 -48t-32 -36q-14 -8 -28 -8q-39 0 -58 37q-11 23 -2.5 48t32.5 37z" />
<glyph unicode="&#xf001;" horiz-adv-x="2048" d="M1152 1024q52 0 90 -38t38 -90v-256q0 -52 -38 -90t-90 -38v-512h-256v512q-52 0 -90 38t-38 90v256q0 52 38 90t90 38v1024h256v-1024zM1920 1408q52 0 90 -38t38 -90v-256q0 -52 -38 -90t-90 -38v-896h-256v896q-52 0 -90 38t-38 90v256q0 52 38 90t90 38v640h256v-640
zM1920 1088v128q0 26 -19 45t-45 19h-128q-26 0 -45 -19t-19 -45v-128q0 -26 19 -45t45 -19h128q26 0 45 19t19 45zM384 1663q52 -2 90 -39t38 -88v-256q0 -51 -38 -88t-90 -39v-1153h-252v1152h-4q-52 0 -90 38t-38 90v256q0 52 38 90t90 38h4v384h252v-385zM384 1344v128
q0 26 -19 45t-45 19h-128q-26 0 -45 -19t-19 -45v-128q0 -26 19 -45t45 -19h128q26 0 45 19t19 45zM1152 704v128q0 26 -19 45t-45 19h-128q-26 0 -45 -19t-19 -45v-128q0 -26 19 -45t45 -19h128q26 0 45 19t19 45z" />
<glyph unicode="&#xf004;" horiz-adv-x="2048" d="M2048 1024v0q0 -200 -76.5 -388.5t-223.5 -335.5t-338.5 -224t-385.5 -77t-385.5 77t-338.5 224t-224 338.5t-77 385.5t77 385.5t224 338.5t335.5 223.5t388.5 76.5v0q200 0 388.5 -76.5t335.5 -223.5t223.5 -335.5t76.5 -388.5zM1567 572l43 -43q158 187 179 431h-61
q-26 0 -45 19t-19 45t19 45t45 19h61q-21 244 -179 431l-43 -42q-19 -19 -45 -19t-45 19q-19 18 -19 44.5t19 45.5l43 43q-188 158 -432 179v-61q0 -26 -19 -45t-45 -19t-45 19t-19 45v61q-244 -21 -431 -179l43 -43q19 -19 19 -45.5t-19 -44.5q-19 -19 -45.5 -19t-45.5 19
l-43 42q-158 -187 -179 -431h61q26 0 45 -19t19 -45t-19 -45t-45 -19h-61q21 -244 179 -431l43 43q19 18 45.5 18t45.5 -18q19 -19 19 -45.5t-19 -45.5l-43 -43q187 -158 431 -179v61q0 26 19 45t45 19t45 -19t19 -45v-61q244 21 432 179l-43 43q-19 19 -19 45.5t19 45.5
q19 18 45 18t45 -18zM732 1316q43 -13 108.5 -34.5t190.5 -72.5t158 -84q55 -55 55 -132.5t-55 -132.5q-55 -56 -133 -56t-133 56q-33 32 -80.5 146t-78.5 212z" />
<glyph unicode="&#xf011;" horiz-adv-x="2048" d="M2011 219q37 -37 37 -90.5t-37 -91.5q-37 -37 -91 -37t-91 37l-1792 1792q-37 37 -37 91t37 91q38 37 91.5 37t90.5 -37l396 -397l153 322q28 46 85.5 79t110.5 33h572q52 0 65 -29t-21 -70l-428 -541h640q53 0 62 -25.5t-31 -61.5l-476 -440zM377 52l389 729l227 -227
l-576 -533q-40 -36 -51.5 -27t11.5 58z" />
<glyph unicode="&#xf012;" horiz-adv-x="2048" d="M2033 1536q15 -192 15 -358q0 -199 -50 -380t-143 -325.5t-218 -251t-282.5 -164t-330.5 -57.5t-330.5 57.5t-282.5 164t-218 251t-143 325.5t-50 380q0 166 15 358h661q-18 -188 -18 -358q0 -226 103.5 -373t262.5 -147t262.5 147t103.5 373q0 151 -18 358h661z
M1358 1664q-5 42 -14 110t-16 115t-7 49q-8 45 24 77.5t84 32.5h413q53 0 96 -34.5t50 -83.5q0 -1 6.5 -51.5t15 -117t11.5 -97.5h-663zM689 1664h-662q4 41 12.5 107t14.5 112t6 47q7 49 50 83.5t96 34.5h412q53 0 85 -32.5t24 -77.5q-20 -122 -38 -274z" />
<glyph unicode="&#xf030;" horiz-adv-x="2048" d="M1280 1536v256h-512v-256h512zM1280 896v-256h-512v256h512zM1536 1536h512v-768h-640v128q0 53 -37.5 90.5t-90.5 37.5h-512q-53 0 -90.5 -37.5t-37.5 -90.5v-128h-640v768h512v256q0 106 75 181t181 75h512q106 0 181 -75t75 -181v-256zM1280 512q53 0 90.5 37.5
t37.5 90.5h512v-640h-1792v640h512q0 -53 37.5 -90.5t90.5 -37.5h512z" />
<glyph unicode="&#xf0d0;" horiz-adv-x="2048" d="M1024 704v128q0 26 -19 45t-45 19h-128q-26 0 -45 -19t-19 -45v-128q0 -26 19 -45t45 -19h128q26 0 45 19t19 45zM640 1216v-128q0 -26 19 -45t45 -19h128q26 0 45 19t19 45v128q0 26 -19 45t-45 19h-128q-26 0 -45 -19t-19 -45zM256 1536h1536q106 0 181 -75t75 -181
v-1024q0 -106 -75 -181t-181 -75h-1536q-106 0 -181 75t-75 181v1024q0 106 75 181t181 75zM256 832v-128q0 -26 19 -45t45 -19h256q26 0 45 19t19 45v128q0 26 -19 45t-45 19h-256q-26 0 -45 -19t-19 -45zM1792 704v128q0 26 -19 45t-45 19h-128q-26 0 -45 -19t-19 -45
v-128q0 -26 19 -45t45 -19h128q26 0 45 19t19 45zM1664 320v128q0 26 -19 45t-45 19h-1152q-26 0 -45 -19t-19 -45v-128q0 -26 19 -45t45 -19h1152q26 0 45 19t19 45zM1408 704v128q0 26 -19 45t-45 19h-128q-26 0 -45 -19t-19 -45v-128q0 -26 19 -45t45 -19h128q26 0 45 19
t19 45zM1024 1216v-128q0 -26 19 -45t45 -19h128q26 0 45 19t19 45v128q0 26 -19 45t-45 19h-128q-26 0 -45 -19t-19 -45zM1792 1088v128q0 26 -19 45t-45 19h-256q-26 0 -45 -19t-19 -45v-128q0 -26 19 -45t45 -19h256q26 0 45 19t19 45zM1344 1664h-640q-26 0 -45 14
t-19 34q0 18 15 31l320 288q19 17 49 17t50 -17l319 -288q15 -13 15 -31q0 -19 -19 -33.5t-45 -14.5zM256 1216v-128q0 -26 19 -45t45 -19h128q26 0 45 19t19 45v128q0 26 -19 45t-45 19h-128q-26 0 -45 -19t-19 -45z" />
<glyph unicode="&#xf0d1;" horiz-adv-x="2048" d="M1664 832v128q0 26 -19 45t-45 19h-1152q-26 0 -45 -19t-19 -45v-128q0 -26 19 -45t45 -19h1152q26 0 45 19t19 45zM1024 1216v128q0 26 -19 45t-45 19h-128q-26 0 -45 -19t-19 -45v-128q0 -26 19 -45t45 -19h128q26 0 45 19t19 45zM256 1344v-128q0 -26 19 -45t45 -19
h256q26 0 45 19t19 45v128q0 26 -19 45t-45 19h-256q-26 0 -45 -19t-19 -45zM1792 1600v128q0 26 -19 45t-45 19h-256q-26 0 -45 -19t-19 -45v-128q0 -26 19 -45t45 -19h256q26 0 45 19t19 45zM1408 1216v128q0 26 -19 45t-45 19h-128q-26 0 -45 -19t-19 -45v-128
q0 -26 19 -45t45 -19h128q26 0 45 19t19 45zM704 384h640q26 0 45 -14.5t19 -33.5q0 -18 -15 -31l-320 -288q-19 -17 -49 -17t-49 17l-320 288q-15 13 -15 31q0 20 19 34t45 14zM1792 1216v128q0 26 -19 45t-45 19h-128q-26 0 -45 -19t-19 -45v-128q0 -26 19 -45t45 -19h128
q26 0 45 19t19 45zM640 1728v-128q0 -26 19 -45t45 -19h128q26 0 45 19t19 45v128q0 26 -19 45t-45 19h-128q-26 0 -45 -19t-19 -45zM256 2048h1536q106 0 181 -75t75 -181v-1024q0 -106 -75 -181t-181 -75h-1536q-106 0 -181 75t-75 181v1024q0 106 75 181t181 75z
M1024 1728v-128q0 -26 19 -45t45 -19h128q26 0 45 19t19 45v128q0 26 -19 45t-45 19h-128q-26 0 -45 -19t-19 -45zM256 1728v-128q0 -26 19 -45t45 -19h128q26 0 45 19t19 45v128q0 26 -19 45t-45 19h-128q-26 0 -45 -19t-19 -45z" />
<glyph unicode="&#xf0d2;" horiz-adv-x="2048" d="M1792 960v128q0 26 -19 45t-45 19h-128q-26 0 -45 -19t-19 -45v-128q0 -26 19 -45t45 -19h128q26 0 45 19t19 45zM1024 1088q0 26 -19 45t-45 19h-128q-26 0 -45 -19t-19 -45v-128q0 -26 19 -45t45 -19h128q26 0 45 19t19 45v128zM1792 1344v128q0 26 -19 45t-45 19h-256
q-26 0 -45 -19t-19 -45v-128q0 -26 19 -45t45 -19h256q26 0 45 19t19 45zM1408 1088q0 26 -19 45t-45 19h-128q-26 0 -45 -19t-19 -45v-128q0 -26 19 -45t45 -19h128q26 0 45 19t19 45v128zM1792 1792q106 0 181 -75t75 -181v-1024q0 -106 -75 -181t-181 -75h-1536
q-106 0 -181 75t-75 181v1024q0 106 75 181t181 75h1536zM256 960q0 -26 19 -45t45 -19h256q26 0 45 19t19 45v128q0 26 -19 45t-45 19h-256q-26 0 -45 -19t-19 -45v-128zM1664 576v128q0 26 -19 45t-45 19h-1152q-26 0 -45 -19t-19 -45v-128q0 -26 19 -45t45 -19h1152
q26 0 45 19t19 45zM1024 1472v-128q0 -26 19 -45t45 -19h128q26 0 45 19t19 45v128q0 26 -19 45t-45 19h-128q-26 0 -45 -19t-19 -45zM256 1472v-128q0 -26 19 -45t45 -19h128q26 0 45 19t19 45v128q0 26 -19 45t-45 19h-128q-26 0 -45 -19t-19 -45zM640 1472v-128
q0 -26 19 -45t45 -19h128q26 0 45 19t19 45v128q0 26 -19 45t-45 19h-128q-26 0 -45 -19t-19 -45z" />
<glyph unicode="&#xf120;" horiz-adv-x="2048" d="M493 127l-197 1281h1457l-197 -1281q-8 -53 -51.5 -90t-96.5 -37h-768q-53 0 -96.5 37.5t-50.5 89.5zM1485 512l79 512h-1080l79 -512h922zM1859 1812q25 -8 43 -33t18 -51v-128q0 -26 -19 -45t-45 -19h-1664q-26 0 -45 19t-19 45v128q0 26 18 51t43 33q95 32 121 60
q23 23 54 115q8 25 33 43t51 18h1152q26 0 51 -18t33 -43q32 -93 52 -115q27 -27 123 -60z" />
<glyph unicode="&#xf161;" horiz-adv-x="2048" d="M1792 1792l256 256v-1920q0 -53 -37.5 -90.5t-90.5 -37.5h-512v1792l192 256zM1024 2048l256 -256v-1792h-1152q-53 0 -90.5 37.5t-37.5 90.5v1920l256 -256l256 256l256 -256z" />
<glyph unicode="&#xf282;" horiz-adv-x="2048" d="M1621 1920q116 0 214.5 -120t155.5 -326.5t57 -449.5t-57 -449.5t-155.5 -326.5t-214.5 -120h-1194q-116 0 -214.5 120t-155.5 326.5t-57 449.5t57 449.5t155.5 326.5t214.5 120h1194zM768 1024v384q0 52 -38 90t-90 38t-90 -38t-38 -90v-384q0 -52 38 -90t90 -38t90 38
t38 90zM1216 384v64q0 79 -56.5 135.5t-135.5 56.5t-134.5 -56t-55.5 -136v-64h382zM1536 1024v384q0 52 -38 90t-90 38t-90 -38t-38 -90v-384q0 -52 38 -90t90 -38t90 38t38 90z" />
<glyph unicode="&#xf4c0;" horiz-adv-x="2048" d="M640 1792q-53 0 -90.5 37.5t-37.5 90.5t37.5 90.5t90.5 37.5h768q53 0 90.5 -37.5t37.5 -90.5t-37.5 -90.5t-90.5 -37.5h-768zM704 256q80 0 136 56t56 136t-56 136t-136 56t-136 -56t-56 -136t56 -136t136 -56zM2024 390q28 -76 24 -146.5t-29.5 -124.5t-83 -86.5
t-136.5 -32.5h-1550q-79 0 -136.5 32t-83.5 86t-29.5 124.5t24.5 146.5q233 433 616 1069v206h256v-277q-95 -163 -211 -363h678l-211 363v277h256v-206q171 -283 325 -550t223 -392z" />
<glyph unicode="&#xf500;" horiz-adv-x="2048" d="M1024 1159l-696 -717q-56 -58 -136 -58t-136 58q-56 59 -56 140t56 140l877 903q37 39 91 39t91 -39l877 -903q56 -58 56 -140t-56 -140t-136 -58t-136 58z" />
<glyph unicode="&#xf501;" horiz-adv-x="2048" d="M1024 889l696 717q56 58 136 58t136 -58q56 -59 56 -140t-56 -140l-877 -903q-37 -39 -91 -39t-91 39l-877 903q-56 58 -56 140t56 140t136 58t136 -58z" />
<glyph unicode="&#xf601;" horiz-adv-x="2048" d="M1696 704q146 0 249 -103t103 -249t-103 -249t-249 -103q-145 0 -247.5 102t-104.5 246l-793 386q-91 -62 -199 -62q-146 0 -249 103t-103 249t103 249t249 103q108 0 199 -62l793 386q2 144 104.5 246t247.5 102q146 0 249 -103t103 -249t-103 -249t-249 -103
q-116 0 -209 69l-784 -380q0 -1 0.5 -4t0.5 -5t-0.5 -5t-0.5 -4l784 -380q93 69 209 69z" />
<glyph unicode="&#x1f304;" horiz-adv-x="2048" d="M1920 2048q53 0 90.5 -37.5t37.5 -90.5v-1792q0 -53 -37.5 -90.5t-90.5 -37.5h-1792q-53 0 -90.5 37.5t-37.5 90.5v1792q0 53 37.5 90.5t90.5 37.5h1792zM1792 512v1280h-1536v-1280h1536zM1472 1312q-66 0 -113 47t-47 113t47 113t113 47t113 -47t47 -113t-47 -113
t-113 -47zM1664 640h-1280l512 896l329 -575l119 191z" />
<glyph unicode="&#x1f310;" horiz-adv-x="2048" d="M1088 269q121 47 213.5 237t104.5 454h-318v-691zM1789 1088q-18 208 -138 377t-305 255q81 -115 131 -279t57 -353h255zM960 1779q-121 -47 -213.5 -237t-104.5 -454h318v691zM1024 2048q208 0 397.5 -81t327 -218.5t218.5 -327t81 -397.5t-81 -397.5t-218.5 -327
t-327 -218.5t-397.5 -81t-397.5 81t-327 218.5t-218.5 327t-81 397.5t81 397.5t218.5 327t327 218.5t397.5 81zM960 960h-318q12 -264 104.5 -454t213.5 -237v691zM259 960q18 -208 138 -377t305 -255q-81 115 -131 279t-57 353h-255zM702 1720q-185 -86 -305 -255
t-138 -377h255q7 189 57 353t131 279zM1346 328q185 86 305 255t138 377h-255q-7 -189 -57 -353t-131 -279zM1088 1088h318q-12 264 -104.5 454t-213.5 237v-691z" />
<glyph unicode="&#x1f319;" horiz-adv-x="2048" d="M1836 769q31 -24 16 -60q-66 -172 -197 -304t-304.5 -204.5t-362.5 -72.5q-150 0 -291 45.5t-255 128.5t-199.5 193t-132 246.5t-46.5 282.5t46.5 282.5t132 246.5t199.5 193t255 128.5t291 45.5q39 0 51 -38t-21 -59q-136 -89 -212.5 -229.5t-76.5 -298.5
q0 -130 52.5 -248.5t141.5 -204t212 -136.5t257 -51q209 0 381 117q14 9 32 8t31 -11z" />
<glyph unicode="&#x1f332;" horiz-adv-x="2048" d="M2048 384h-832v-192q0 -80 -56 -136t-136 -56t-136 56t-56 136v192h-832l512 512h-384l512 512h-256l640 640l640 -640h-256l512 -512h-384z" />
<glyph unicode="&#x1f354;" horiz-adv-x="2048" d="M192 1024q-80 0 -136 -56t-56 -136t56 -136t136 -56h1664q80 0 136 56t56 136t-56 136t-136 56h-858l-358 -256l-256 256h-192zM192 1152q-53 0 -90.5 37.5t-37.5 90.5q0 127 76 245t204.5 204.5t306.5 138.5t373 52t373 -52t306.5 -138.5t204.5 -204.5t76 -245
q0 -52 -38 -90t-90 -38h-1664zM1568 1664q-40 0 -68 -19t-28 -45t28 -45t68 -19t68 19t28 45t-28 45t-68 19zM1248 1792q-40 0 -68 -19t-28 -45t28 -45t68 -19t68 19t28 45t-28 45t-68 19zM800 1792q-40 0 -68 -19t-28 -45t28 -45t68 -19t68 19t28 45t-28 45t-68 19z
M480 1664q-40 0 -68 -19t-28 -45t28 -45t68 -19t68 19t28 45t-28 45t-68 19zM1856 512q52 0 90 -38t38 -90v-32q0 -92 -113 -158t-271 -66h-1152q-158 0 -271 66t-113 158v32q0 53 37.5 90.5t90.5 37.5h1664z" />
<glyph unicode="&#x1f357;" horiz-adv-x="2048" d="M731 459l-140 -140q49 -56 49 -127q0 -80 -56 -136t-136 -56t-136 56t-56 136q0 42 20 84q-42 -20 -84 -20q-80 0 -136 56t-56 136t56 136t136 56q71 0 127 -49l140 140zM1840 1841q100 -100 153 -220.5t55.5 -249.5t-59 -265t-183.5 -259q-78 -78 -202 -142
t-245.5 -99.5t-231.5 -60t-179 -33.5l-68 -8q-2 0 -6 -1t-5 -1l-367 367q0 2 1 6t1 5q3 29 9.5 78.5t36 185.5t68.5 251q34 -7 76 -7q166 0 283.5 118t117.5 284q0 92 -40 174q215 111 419 75t366 -198z" />
<glyph unicode="&#x1f374;" horiz-adv-x="2048" d="M576 2048q27 0 45.5 -19t18.5 -45v-704q0 -53 -37.5 -90.5t-90.5 -37.5h-64v-1024q0 -53 -37.5 -90.5t-90.5 -37.5t-90.5 37.5t-37.5 90.5v1024h-64q-53 0 -90.5 37.5t-37.5 90.5v704q0 26 19 45t45 19q27 0 45.5 -19t18.5 -45v-448h128v448q0 26 19 45t45 19
q27 0 45.5 -19t18.5 -45v-448h128v448q0 26 19 45t45 19zM960 2048q80 0 136 -56t56 -136v-1728q0 -53 -37.5 -90.5t-90.5 -37.5t-90.5 37.5t-37.5 90.5v640q-53 0 -90.5 37.5t-37.5 90.5v960q0 80 56 136t136 56zM2048 1536q0 -164 -71.5 -295.5t-184.5 -185.5v-927
q0 -53 -37.5 -90.5t-90.5 -37.5t-90.5 37.5t-37.5 90.5v927q-113 54 -184.5 185.5t-71.5 295.5q0 139 51.5 257t140 186.5t192.5 68.5t192.5 -68.5t140 -186.5t51.5 -257z" />
<glyph unicode="&#x1f375;" horiz-adv-x="2048" d="M256 768h256v640h-256v-640zM1920 1920q53 0 90.5 -37.5t37.5 -90.5v-1280q0 -159 -112.5 -271.5t-271.5 -112.5h-768q-159 0 -271.5 112.5t-112.5 271.5h-256q-106 0 -181 75t-75 181v640q0 106 75 181t181 75h256v128q0 53 37.5 90.5t90.5 37.5h1280z" />
<glyph unicode="&#x1f377;" horiz-adv-x="2048" d="M1370 1792h-692q-90 -215 -134 -384h960q-44 169 -134 384zM1792 1212q0 -135 -83.5 -258.5t-231 -208.5t-325.5 -110v-336l267 -135q22 -15 37.5 -44.5t15.5 -55.5t-19 -45t-45 -19h-768q-26 0 -45 19t-19 45t15.5 55.5t37.5 44.5l267 135v336q-178 25 -325.5 110
t-231 208.5t-83.5 258.5q0 85 26.5 202.5t64 224.5t75 201.5t64.5 151.5l26 56h1024q10 -22 27.5 -59.5t61.5 -145.5t78 -206.5t61.5 -219t27.5 -205.5z" />
<glyph unicode="&#x1f3a4;" horiz-adv-x="2048" d="M1664 1536q53 0 90.5 -37.5t37.5 -90.5v-384q0 -187 -84 -349.5t-230 -269.5t-326 -137v-268h-256v268q-134 23 -252.5 91t-203.5 167t-134.5 228.5t-49.5 269.5v384q0 53 37.5 90.5t90.5 37.5t90.5 -37.5t37.5 -90.5v-384q0 -104 40.5 -198.5t109.5 -163.5t163.5 -109.5
t198.5 -40.5q139 0 257 68.5t186.5 186.5t68.5 257v384q0 53 37.5 90.5t90.5 37.5zM1024 640q-158 0 -271 113t-113 271v640q0 158 113 271t271 113t271 -113t113 -271v-640q0 -158 -113 -271t-271 -113z" />
<glyph unicode="&#x1f3a7;" horiz-adv-x="2048" d="M1920 1051q128 -139 128 -325q0 -172 -109 -304t-275 -166v1024q0 104 -40.5 198.5t-109.5 163.5t-163.5 109.5t-198.5 40.5h-256q-104 0 -198.5 -40.5t-163.5 -109.5t-109.5 -163.5t-40.5 -198.5v-1024q-166 34 -275 166t-109 304q0 186 128 325v229q0 155 61 297.5
t164 245.5t245.5 164t297.5 61h256q155 0 297.5 -61t245.5 -164t164 -245.5t61 -297.5v-229zM1408 1152q52 0 90 -38t38 -90v-896q0 -52 -38 -90t-90 -38t-90 38t-38 90v896q0 52 38 90t90 38zM640 1152q52 0 90 -38t38 -90v-896q0 -52 -38 -90t-90 -38t-90 38t-38 90v896
q0 52 38 90t90 38z" />
<glyph unicode="&#x1f3ac;" horiz-adv-x="2048" d="M0 128v640h2048v-640q0 -53 -37.5 -90.5t-90.5 -37.5h-1792q-53 0 -90.5 37.5t-37.5 90.5zM1378 1494l-369 -107l-230 333l369 107zM896 896l128 384h384l-128 -384h-384zM1792 1280h256v-384h-384zM640 1280l-128 -384h-512v598l410 119zM1992 1672l-246 -71l-230 333
l369 114z" />
<glyph unicode="&#x1f3ad;" horiz-adv-x="2048" d="M1152 1024q-53 0 -90.5 -37.5t-37.5 -90.5t37.5 -90.5t90.5 -37.5t90.5 37.5t37.5 90.5t-37.5 90.5t-90.5 37.5zM512 1792q-53 0 -90.5 -37.5t-37.5 -90.5t37.5 -90.5t90.5 -37.5t90.5 37.5t37.5 90.5t-37.5 90.5t-90.5 37.5zM1920 1280q53 0 90.5 -37.5t37.5 -90.5v-512
q0 -187 -95 -334.5t-255 -226.5t-354 -79q-145 0 -274 46t-224 127.5t-150.5 202.5t-55.5 264v512q0 53 37.5 90.5t90.5 37.5h1152zM896 1792q-53 0 -90.5 -37.5t-37.5 -90.5t37.5 -90.5t90.5 -37.5t90.5 37.5t37.5 90.5t-37.5 90.5t-90.5 37.5zM768 1408q-95 -1 -183 -27.5
t-160 -85.5t-101 -143h188v-362q-228 53 -370 218t-142 400v512q0 53 37.5 90.5t90.5 37.5h1152q53 0 90.5 -37.5t37.5 -90.5v-512h-640zM1344 256q146 0 264 65.5t161 190.5h-828q55 -115 163.5 -185.5t239.5 -70.5zM1536 1024q-53 0 -90.5 -37.5t-37.5 -90.5t37.5 -90.5
t90.5 -37.5t90.5 37.5t37.5 90.5t-37.5 90.5t-90.5 37.5z" />
<glyph unicode="&#x1f3e2;" horiz-adv-x="2048" d="M640 1664q53 0 90.5 -37.5t37.5 -90.5v-1536h-768v1536q0 53 37.5 90.5t90.5 37.5v192q0 26 19 45t45 19t45 -19t19 -45v-192h256v192q0 26 19 45t45 19t45 -19t19 -45v-192zM1792 1472v128q0 26 -19 45t-45 19h-128q-27 0 -45.5 -19t-18.5 -45v-128q0 -26 18.5 -45
t45.5 -19h128q26 0 45 19t19 45zM1408 1472v128q0 26 -19 45t-45 19h-128q-27 0 -45.5 -19t-18.5 -45v-128q0 -26 18.5 -45t45.5 -19h128q26 0 45 19t19 45zM512 832v128q0 27 -19 45.5t-45 18.5h-128q-26 0 -45 -18.5t-19 -45.5v-128q0 -26 19 -45t45 -19h128q26 0 45 19
t19 45zM1920 2048q53 0 90.5 -37.5t37.5 -90.5v-1920h-1152v1920q0 53 37.5 90.5t90.5 37.5h896zM1408 1088v128q0 27 -19 45.5t-45 18.5h-128q-27 0 -45.5 -18.5t-18.5 -45.5v-128q0 -26 18.5 -45t45.5 -19h128q26 0 45 19t19 45zM512 1216v128q0 27 -19 45.5t-45 18.5
h-128q-26 0 -45 -18.5t-19 -45.5v-128q0 -26 19 -45t45 -19h128q26 0 45 19t19 45zM1792 704v128q0 27 -19 45.5t-45 18.5h-128q-27 0 -45.5 -18.5t-18.5 -45.5v-128q0 -26 18.5 -45t45.5 -19h128q26 0 45 19t19 45zM1408 704v128q0 27 -19 45.5t-45 18.5h-128
q-27 0 -45.5 -18.5t-18.5 -45.5v-128q0 -26 18.5 -45t45.5 -19h128q26 0 45 19t19 45zM1792 1088v128q0 27 -19 45.5t-45 18.5h-128q-27 0 -45.5 -18.5t-18.5 -45.5v-128q0 -26 18.5 -45t45.5 -19h128q26 0 45 19t19 45z" />
<glyph unicode="&#x1f3e6;" horiz-adv-x="2048" d="M1949 327l70 -142q29 -56 29 -121q0 -26 -19 -45t-45 -19h-1920q-26 0 -45 19t-19 45q0 65 29 121l70 142q12 23 39.5 40t53.5 17h1664q26 0 53.5 -17t39.5 -40zM64 1408q-26 0 -45 19.5t-19 46.5t17 55t40 40l910 467q23 12 57 12t57 -12l910 -467q23 -12 40 -40t17 -55
t-19 -46.5t-45 -19.5h-1920zM1792 512h-384v768h384v-768zM1216 512h-384v768h384v-768zM640 512h-384v768h384v-768z" />
<glyph unicode="&#x1f3e8;" horiz-adv-x="2048" d="M1664 896v-128h-896v512h768q53 0 90.5 -37.5t37.5 -90.5v-256zM640 1280v-512h-256v512h256zM1920 1664q53 0 90.5 -37.5t37.5 -90.5v-1280q0 -53 -37.5 -90.5t-90.5 -37.5t-90.5 37.5t-37.5 90.5v128h-1536v-128q0 -53 -37.5 -90.5t-90.5 -37.5t-90.5 37.5t-37.5 90.5
v1536q0 53 37.5 90.5t90.5 37.5t90.5 -37.5t37.5 -90.5v-1152h1536v896q0 53 37.5 90.5t90.5 37.5z" />
<glyph unicode="&#x1f3ea;" horiz-adv-x="2048" d="M1664 919q66 -23 128 -23q64 0 128 24v-920h-1774v914q57 -18 110 -18q57 0 128 30v-542h1280v535zM1792 2048l256 -512v-256q0 -106 -75 -181t-181 -75t-181 75t-75 181q0 -106 -75 -181t-181 -75t-181 75t-75 181q0 -106 -75 -181t-181 -75t-181 75t-75 181
q0 -106 -75 -181t-181 -75t-181 75t-75 181v256l256 512h1536z" />
<glyph unicode="&#x1f41f;" horiz-adv-x="2048" d="M1933 2029q34 -6 62 -34t34 -62q3 -15 6.5 -41t8.5 -106t3.5 -160t-17 -190t-45 -208t-87.5 -203t-139 -186q-70 -71 -179 -122t-214.5 -73.5t-201 -35t-154.5 -13.5l-59 -1q-33 0 -60 -21.5t-32 -52.5l-88 -520l-143 242l-98 164q-19 32 -55.5 68.5t-68.5 55.5l-164 98
l-242 143l520 88q31 5 52.5 32t21.5 60q0 23 1 62t13.5 148.5t35 206t73.5 208.5t122 183q81 81 184.5 139.5t205.5 87.5t206 45t192 16.5t157.5 -3t109.5 -9.5zM1536 1408q53 0 90.5 37.5t37.5 90.5t-37.5 90.5t-90.5 37.5t-90.5 -37.5t-37.5 -90.5t37.5 -90.5t90.5 -37.5z
" />
<glyph unicode="&#x1f426;" horiz-adv-x="2048" d="M652 144l139 242q93 -34 192 -51l-164 -287q-26 -48 -83 -48q-26 0 -48 13q-35 20 -45 58t9 73zM2048 1344q0 -283 -163.5 -514.5t-422.5 -325.5q-2 -7 -3 -8l-256 -448q-26 -48 -83 -48q-26 0 -48 13q-35 20 -45 58t10 73l175 307q-7 0 -19 -1t-22 -1.5t-19 -0.5
q-172 0 -329.5 62t-275.5 168.5t-194.5 254t-92.5 312.5l-260 163l256 147v52q0 182 131 311.5t317 129.5q185 0 316.5 -129.5t131.5 -311.5q0 -123 76 -193t204 -70h616zM704 1466q53 0 90.5 37.5t37.5 90.5t-37.5 90.5t-90.5 37.5t-90.5 -37.5t-37.5 -90.5t37.5 -90.5
t90.5 -37.5z" />
<glyph unicode="&#x1f440;" horiz-adv-x="2048" d="M1024 640q159 0 271.5 112.5t112.5 271.5t-112.5 271.5t-271.5 112.5t-271.5 -112.5t-112.5 -271.5t112.5 -271.5t271.5 -112.5zM1024 1792q135 0 272 -48t246 -123t205.5 -165t161.5 -176t102 -154.5t37 -101.5t-37 -101.5t-102 -154.5t-161.5 -176t-205.5 -165
t-246 -123t-272 -48q-102 0 -206 27.5t-192.5 74.5t-173.5 107.5t-152.5 126.5t-124.5 132.5t-95 125.5t-59 104.5t-21 69.5t21 69.5t59 104.5t95 125.5t124.5 132.5t152.5 126.5t173.5 107.5t192.5 74.5t206 27.5z" />
<glyph unicode="&#x1f446;" horiz-adv-x="2048" d="M1831 1152q63 0 108 -44.5t45 -107.5v-360q0 -130 -61 -248.5t-163.5 -204.5t-245 -136.5t-298.5 -50.5q-374 0 -553 184l-543 543q-56 56 -56 136t56 136q56 55 136 55t135 -55l313 -313v1170q0 80 56 136t136 56t136 -56t56 -136v-488q43 40 99 40h77q56 0 98 -36.5
t51 -91.5h163q56 0 97 -36.5t50 -91.5h108z" />
<glyph unicode="&#x1f447;" horiz-adv-x="2048" d="M217 896q-63 0 -108 44.5t-45 107.5v360q0 130 61 248.5t163.5 204.5t245 136.5t298.5 50.5q374 0 553 -184l543 -543q56 -56 56 -136t-56 -136q-56 -55 -136 -55t-135 55l-313 313v-1170q0 -80 -56 -136t-136 -56t-136 56t-56 136v488q-43 -40 -99 -40h-77
q-56 0 -98 36.5t-51 91.5h-163q-56 0 -97 36.5t-50 91.5h-108z" />
<glyph unicode="&#x1f448;" horiz-adv-x="2048" d="M896 217v108q-55 9 -91.5 50t-36.5 97v163q-55 9 -91.5 51t-36.5 98v77q0 56 40 99h-488q-80 0 -136 56t-56 136t56 136t136 56h1170l-313 313q-55 55 -55 135t55 136q56 56 136 56t136 -56l543 -543q184 -179 184 -553q0 -156 -50.5 -298.5t-136.5 -245t-204.5 -163.5
t-248.5 -61h-360q-63 0 -107.5 45t-44.5 108z" />
<glyph unicode="&#x1f449;" horiz-adv-x="2048" d="M1152 217q0 -63 -44.5 -108t-107.5 -45h-360q-130 0 -248.5 61t-204.5 163.5t-136.5 245t-50.5 298.5q0 374 184 553l543 543q56 56 136 56t136 -56q55 -56 55 -136t-55 -135l-313 -313h1170q80 0 136 -56t56 -136t-56 -136t-136 -56h-488q40 -43 40 -99v-77
q0 -56 -36.5 -98t-91.5 -51v-163q0 -56 -36.5 -97t-91.5 -50v-108z" />
<glyph unicode="&#x1f44d;" horiz-adv-x="2048" d="M0 0v1280h384v-1280h-384zM2048 1178q0 -80 -72 -127q72 -45 72 -126v-77q0 -56 -36.5 -98t-91.5 -51v-162q0 -56 -36.5 -97.5t-91.5 -50.5v-108q0 -63 -44.5 -108t-107.5 -45h-744q-103 5 -206.5 48.5t-177.5 111.5v1032q42 58 70.5 134.5t39.5 144t16 127.5t4 95l-2 35
q0 80 56 136t136 56t136 -56t56 -136v-448h872q63 0 107.5 -45t44.5 -108v-77z" />
<glyph unicode="&#x1f44e;" horiz-adv-x="2048" d="M0 768v1280h384v-1280h-384zM2048 870v-77q0 -63 -44.5 -108t-107.5 -45h-872v-448q0 -80 -56 -136t-136 -56t-136 56t-56 136q1 13 1.5 36.5t-4 91.5t-15.5 131t-39.5 141t-70.5 136v1032q74 68 177.5 111.5t206.5 48.5h744q63 0 107.5 -44.5t44.5 -108.5v-108
q55 -9 91.5 -50t36.5 -97v-163q55 -9 91.5 -51t36.5 -98v-76q0 -82 -72 -127q72 -45 72 -127z" />
<glyph unicode="&#x1f464;" horiz-adv-x="2048" d="M1024 896q156 0 298 -61t245 -164t164 -245.5t61 -297.5q0 -53 -37.5 -90.5t-90.5 -37.5h-1280q-52 0 -90 38t-38 90q0 155 61 297.5t164 245.5t245.5 164t297.5 61zM1024 1024q-158 0 -271 113t-113 271v256q0 158 113 271t271 113t271 -113t113 -271v-256
q0 -158 -113 -271t-271 -113z" />
<glyph unicode="&#x1f465;" horiz-adv-x="2048" d="M704 896q-132 0 -226 94t-94 226v213q0 132 94 226t226 94t226 -94t94 -226v-213q0 -132 -94 -226t-226 -94zM704 768q190 0 352.5 -88.5t257 -240t94.5 -329.5q0 -46 -34.5 -78t-83.5 -32h-1172q-49 0 -83.5 32t-34.5 78q0 178 94.5 329.5t256.5 240t353 88.5z
M1152 1261v168q0 179 -127 311q5 128 98 218t221 90q132 0 226 -94t94 -226v-213q0 -132 -94 -226t-226 -94q-107 0 -192 66zM1344 1067q143 0 273 -52.5t224.5 -141t150.5 -210.5t56 -255q0 -43 -33 -65.5t-84 -22.5h-422q-51 192 -194.5 331t-347.5 204q90 66 140 172
q118 40 237 40z" />
<glyph unicode="&#x1f467;" horiz-adv-x="2048" d="M1024 896q156 0 298 -61t245 -164t164 -245.5t61 -297.5q0 -53 -37.5 -90.5t-90.5 -37.5h-1280q-52 0 -90 38t-38 90q0 155 61 297.5t164 245.5t245.5 164t297.5 61zM757 1149q-61 5 -109 15t-72.5 20.5t-40 20.5t-19.5 16l-4 6q36 21 62.5 72.5t38.5 110t18.5 114
t7.5 92.5l1 36q0 52 25.5 118t71 129t122 106t165.5 43q92 0 168.5 -43t121.5 -106.5t69.5 -128.5t24.5 -118q0 -14 1 -38t7.5 -88.5t18.5 -117.5t38.5 -106.5t62.5 -74.5q-1 -2 -4 -6.5t-19.5 -15.5t-40.5 -20.5t-72 -20t-110 -16.5l2 2q-55 -52 -132.5 -89t-135.5 -37
q-57 0 -135 36.5t-132 88.5z" />
<glyph unicode="&#x1f47b;" horiz-adv-x="2048" d="M1344 896q80 0 136 56t56 136t-56 136t-136 56t-136 -56t-56 -136t56 -136t136 -56zM704 896q80 0 136 56t56 136t-56 136t-136 56t-136 -56t-56 -136t56 -136t136 -56zM1024 2048q209 0 398.5 -81t326.5 -218t218 -326.5t81 -398.5v-987q0 -27 -13 -32t-31 14l-117 126
q-18 19 -43.5 19t-43.5 -19l-118 -126q-18 -19 -43.5 -19t-43.5 19l-117 126q-18 19 -44 19t-44 -19l-118 -126q-18 -19 -43.5 -19t-43.5 19l-117 126q-18 19 -43.5 19t-43.5 -19l-118 -126q-18 -19 -43.5 -19t-43.5 19l-118 126q-18 19 -43.5 19t-43.5 -19l-117 -126
q-18 -19 -44 -19t-44 19l-118 126q-18 19 -43.5 19t-43.5 -19l-117 -126q-18 -19 -31 -14t-13 32v987q0 208 81 398t218.5 327t327 218t397.5 81z" />
<glyph unicode="&#x1f480;" horiz-adv-x="2048" d="M1408 768q106 0 181 75t75 181t-75 181t-181 75t-181 -75t-75 -181t75 -181t181 -75zM640 768q106 0 181 75t75 181t-75 181t-181 75t-181 -75t-75 -181t75 -181t181 -75zM1024 2048q208 0 397.5 -71t327 -191t218.5 -286t81 -348q0 -208 -102.5 -391t-281.5 -308v-325
q0 -53 -37.5 -90.5t-90.5 -37.5h-128v192q0 26 -19 45t-45 19q-27 0 -45.5 -19t-18.5 -45v-192h-192v192q0 26 -19 45t-45 19t-45 -19t-19 -45v-192h-192v192q0 26 -19 45t-45 19t-45 -19t-19 -45v-192h-128q-53 0 -90.5 37.5t-37.5 90.5v325q-179 125 -281.5 308
t-102.5 391q0 182 81 348t218.5 286t327 191t397.5 71z" />
<glyph unicode="&#x1f4a1;" horiz-adv-x="2048" d="M1664 1408q0 -211 -131 -384h3q-10 -16 -27.5 -42.5t-61.5 -99.5t-78 -135.5t-61.5 -130.5t-27.5 -104h-512q0 57 -64 185t-128 227l-64 100h3q-131 173 -131 384q0 130 51 248.5t136.5 204t204 136.5t248.5 51t248.5 -51t204 -136.5t136.5 -204t51 -248.5zM768 256v128
h512v-128q0 -70 -64 -108v-20q0 -52 -38 -90t-90 -38h-128q-53 0 -90.5 37.5t-37.5 90.5v20q-64 37 -64 108z" />
<glyph unicode="&#x1f4a7;" horiz-adv-x="2048" d="M1072 1962q20 -27 41.5 -57.5t85 -126t117.5 -183t121.5 -210.5t114.5 -228.5t79.5 -218t32.5 -196.5q0 -119 -49.5 -240.5t-133.5 -218.5t-205 -158t-252 -61t-252 61t-205 158t-133.5 218.5t-49.5 240.5q0 84 32.5 196.5t79.5 218t114.5 228.5t121.5 210.5t117.5 183
t85 126t41.5 57.5q16 22 48 22t48 -22z" />
<glyph unicode="&#x1f4a9;" horiz-adv-x="2048" d="M1785 810q116 -39 189.5 -138t73.5 -224q0 -158 -113 -271t-271 -113h-1280q-158 0 -271 113t-113 271q0 125 73.5 224t189.5 138q-50 69 -50 150q0 106 75 181t181 75h42q-30 128 -19 230.5t54 182.5t101 140t123 101t119.5 66.5t90.5 36.5l35 11q-34 -55 -51.5 -102.5
t-18.5 -81.5t7.5 -62t26.5 -46.5t38.5 -32.5t42 -21.5t39 -12t29.5 -5.5l11 -1q110 2 194.5 -22.5t131.5 -66.5t70.5 -96t21 -109.5t-25.5 -108.5h48q105 0 180.5 -75t75.5 -181q0 -81 -50 -150z" />
<glyph unicode="&#x1f4ac;" horiz-adv-x="2048" d="M1408 2048q173 0 320.5 -86t233.5 -233.5t86 -320.5v-256q0 -173 -86 -320.5t-233.5 -233.5t-320.5 -86h-128l-640 -512v512q-173 0 -320.5 86t-233.5 233.5t-86 320.5v256q0 173 86 320.5t233.5 233.5t320.5 86h768z" />
<glyph unicode="&#x1f4b3;" horiz-adv-x="2048" d="M0 448v704h2048v-704q0 -80 -56 -136t-136 -56h-1664q-79 0 -135.5 56.5t-56.5 135.5zM1856 1664q80 0 136 -56t56 -136v-64h-2048v64q0 79 56.5 135.5t135.5 56.5h1664z" />
<glyph unicode="&#x1f4b5;" horiz-adv-x="2048" d="M1285 863v2q0 84 -51.5 129.5t-159.5 74.5q-89 23 -116.5 39.5t-27.5 49.5v2q0 26 22.5 42.5t63.5 16.5q62 0 140 -46q18 -10 37 -10q29 0 49 20t20 48q0 39 -33 60q-59 38 -130 51v46q0 31 -22 53.5t-53 22.5t-53 -22.5t-22 -53.5v-46q-75 -18 -119.5 -69.5
t-44.5 -126.5v-2q0 -49 14.5 -83.5t46.5 -58t67.5 -37t92.5 -28.5q81 -21 107.5 -39t26.5 -48v-2q0 -29 -25.5 -46.5t-70.5 -17.5q-88 0 -171 62q-19 13 -42 13q-29 0 -48.5 -20t-19.5 -49q0 -36 27 -56q72 -51 159 -70v-37q0 -31 22 -53.5t53 -22.5t53 22.5t22 53.5v30
q86 15 136 68t50 138zM1615 1775q163 0 305 -53q52 -18 90 -76.5t38 -113.5v-1049q0 -53 -37.5 -72t-90.5 2q-142 53 -305 53q-108 0 -234 -23.5t-241.5 -57t-231.5 -66.5t-241.5 -56.5t-234.5 -23.5q-163 0 -304 53q-51 19 -89.5 77.5t-38.5 113.5v1049q0 52 38 71.5
t90 -1.5q142 -53 305 -53q132 0 296 35.5t295.5 77.5t295.5 77.5t295 35.5z" />
<glyph unicode="&#x1f4bb;" horiz-adv-x="2048" d="M256 1792v-896h1536v896h-1536zM128 512q-52 0 -90 38t-38 90v1280q0 52 38 90t90 38h1792q52 0 90 -38t38 -90v-1280q0 -52 -38 -90t-90 -38h-1792zM1280 256q0 -52 38 -90t90 -38h128v-128h-1024v128h128q52 0 90 38t38 90v128h512v-128z" />
<glyph unicode="&#x1f4bc;" horiz-adv-x="2048" d="M1280 2048q106 0 181 -75t75 -181v-1792h-1024v1792q0 106 75 181t181 75h512zM1792 1536q106 0 181 -75t75 -181v-1024q0 -106 -75 -181t-181 -75h-128v1536h128zM768 1536h512v256h-512v-256zM0 1280q0 106 75 181t181 75h128v-1536h-128q-106 0 -181 75t-75 181v1024z
" />
<glyph unicode="&#x1f4be;" horiz-adv-x="2048" d="M1792 2048l256 -256v-1792h-2048v2048h512v-512q0 -60 43 -103t103 -43h732q60 0 103 43t43 103v512h256zM1792 256v896h-1536v-896h1536zM1216 1536q-26 0 -45 19t-19 45v256q0 26 19 45t45 19h128q26 0 45 -19t19 -45v-256q0 -26 -19 -45t-45 -19h-128zM2024 2108
q-4 0 -4 5t4 5q3 0 4.5 -2.5t0 -5t-4.5 -2.5z" />
<glyph unicode="&#x1f4bf;" horiz-adv-x="2048" d="M1024 512q212 0 362 150t150 362t-150 362t-362 150t-362 -150t-150 -362t150 -362t362 -150zM1024 1408q159 0 271.5 -112.5t112.5 -271.5t-112.5 -271.5t-271.5 -112.5t-271.5 112.5t-112.5 271.5t112.5 271.5t271.5 112.5zM1024 2048q208 0 398 -81t327 -218.5
t218 -327t81 -397.5q0 -209 -81 -398.5t-218 -326.5t-326.5 -218t-398.5 -81q-208 0 -397.5 81t-327 218t-218.5 327t-81 398t81 397.5t218.5 327t327 218.5t397.5 81zM1024 896q53 0 90.5 37.5t37.5 90.5t-37.5 90.5t-90.5 37.5t-90.5 -37.5t-37.5 -90.5t37.5 -90.5
t90.5 -37.5z" />
<glyph unicode="&#x1f4c1;" horiz-adv-x="2048" d="M1951 1280q55 0 81.5 -35.5t9.5 -85.5l-314 -910q-17 -50 -68 -85.5t-106 -35.5h-1457q-55 0 -81.5 36t-8.5 85l313 910q17 50 68.5 85.5t105.5 35.5h1457zM494 1408q-95 0 -179.5 -59.5t-115.5 -147.5l-199 -578v1197q0 41 29.5 70.5t70.5 29.5h412l256 -256h896v-256
h-1170z" />
<glyph unicode="&#x1f4c4;" horiz-adv-x="2048" d="M1152 1536q0 -53 37.5 -90.5t90.5 -37.5h512v-1408h-1536v2048h896v-512zM1536 1088q0 26 -18.5 45t-45.5 19h-896q-26 0 -45 -19t-19 -45t19 -45t45 -19h896q27 0 45.5 19t18.5 45zM1280 2048l512 -512h-512v512zM1472 640q27 0 45.5 19t18.5 45t-18.5 45t-45.5 19h-896
q-26 0 -45 -19t-19 -45t19 -45t45 -19h896zM1472 256q27 0 45.5 19t18.5 45t-18.5 45t-45.5 19h-896q-26 0 -45 -19t-19 -45t19 -45t45 -19h896z" />
<glyph unicode="&#x1f4c5;" horiz-adv-x="2048" d="M1664 768v256h-256v-256h256zM128 1280h1792v-1152q0 -53 -37.5 -90.5t-90.5 -37.5h-1536q-53 0 -90.5 37.5t-37.5 90.5v1152zM640 768v256h-256v-256h256zM1664 256v256h-256v-256h256zM640 256v256h-256v-256h256zM1152 256v256h-256v-256h256zM1920 1408h-1792v128
q0 53 37.5 90.5t90.5 37.5h128v128q0 53 37.5 90.5t90.5 37.5t90.5 -37.5t37.5 -90.5v-128h768v128q0 53 37.5 90.5t90.5 37.5t90.5 -37.5t37.5 -90.5v-128h128q53 0 90.5 -37.5t37.5 -90.5v-128zM1152 768v256h-256v-256h256z" />
<glyph unicode="&#x1f4c7;" horiz-adv-x="2048" d="M1920 1920v-256h-1792v256q0 53 37.5 90.5t90.5 37.5h1536q53 0 90.5 -37.5t37.5 -90.5zM1728 768q26 0 45 19t19 45t-19 45t-45 19h-512q-26 0 -45 -19t-19 -45t19 -45t45 -19h512zM1728 1024q26 0 45 19t19 45t-19 45t-45 19h-512q-26 0 -45 -19t-19 -45t19 -45t45 -19
h512zM1920 1536q53 0 90.5 -37.5t37.5 -90.5v-1280q0 -53 -37.5 -90.5t-90.5 -37.5h-384v128h64q26 0 45 19t19 45t-19 45t-45 19h-64h-128h-64q-26 0 -45 -19t-19 -45t19 -45t45 -19h64v-128h-768v128h64q26 0 45 19t19 45t-19 45t-45 19h-64h-128h-64q-26 0 -45 -19
t-19 -45t19 -45t45 -19h64v-128h-384q-53 0 -90.5 37.5t-37.5 90.5v1280q0 53 37.5 90.5t90.5 37.5h1792zM896 512v64q0 79 -94 135.5t-226 56.5t-226 -56.5t-94 -135.5v-64h640zM576 1280q-80 0 -136 -56t-56 -136t56 -136t136 -56t136 56t56 136t-56 136t-136 56z" />
<glyph unicode="&#x1f4ca;" horiz-adv-x="2048" d="M1920 1536q52 0 90 -38t38 -90v-1280q0 -52 -38 -90t-90 -38h-256q-52 0 -90 38t-38 90v1280q0 52 38 90t90 38h256zM384 1152q52 0 90 -38t38 -90v-896q0 -52 -38 -90t-90 -38h-256q-52 0 -90 38t-38 90v896q0 52 38 90t90 38h256zM1152 2048q52 0 90 -38t38 -90v-1792
q0 -52 -38 -90t-90 -38h-256q-52 0 -90 38t-38 90v1792q0 52 38 90t90 38h256z" />
<glyph unicode="&#x1f4cb;" horiz-adv-x="2048" d="M1280 1792q53 0 90.5 -37.5t37.5 -90.5v-1536q0 -53 -37.5 -90.5t-90.5 -37.5h-1152q-53 0 -90.5 37.5t-37.5 90.5v1536q0 53 37.5 90.5t90.5 37.5h262q23 111 111 183.5t203 72.5t203 -72.5t111 -183.5h262zM704 1536q80 0 136 56t56 136t-56 136t-136 56t-136 -56
t-56 -136t56 -136t136 -56zM1792 2048q106 0 181 -75t75 -181v-128h-512v128q0 106 75 181t181 75zM1536 384v1152h512v-1152l-256 -383z" />
<glyph unicode="&#x1f4cc;" horiz-adv-x="2048" d="M1324 2048l724 -724q-76 -76 -179 -108t-212 -18l-294 -294q57 -141 41 -281t-106 -231l-906 905q91 91 231.5 107t283.5 -42l292 292q-15 110 16.5 213.5t108.5 180.5zM16 107l637 719l173 -174l-719 -636q-20 -17 -46.5 -15.5t-44.5 21.5q-16 18 -16 42.5t16 42.5z" />
<glyph unicode="&#x1f4cd;" horiz-adv-x="2048" d="M1024 2048q117 0 223.5 -45.5t184 -123t123 -184t45.5 -223.5t-45.5 -223.5t-123 -184t-184 -123t-223.5 -45.5t-223.5 45.5t-184 123t-123 184t-45.5 223.5t45.5 223.5t123 184t184 123t223.5 45.5zM896 780q72 -12 128 -12q58 0 128 12v-652q0 -52 -38 -90t-90 -38
t-90 38t-38 90v652zM1024 1536q80 0 136 56t56 136t-56 136t-136 56t-136 -56t-56 -136t56 -136t136 -56z" />
<glyph unicode="&#x1f4ce;" horiz-adv-x="2048" d="M1867 991l-810 -810q-89 -89 -202.5 -135t-235.5 -46q-121 0 -235 46t-202 135q-88 88 -135 201t-47 237t47 237t135 200l405 405q107 109 264 109q153 2 264 -109v0q109 -109 109 -264q0 -153 -109 -264l-302 -302q-37 -37 -90 -37t-91 37t-38 90t38 91l302 302
q34 34 34 83t-34 83v0q-33 35 -83 35q-48 0 -83 -35l-405 -405q-107 -105 -107 -256q0 -150 107 -257q106 -106 256.5 -106t256.5 106l810 810q106 106 106 256.5t-106 256.5q-107 106 -257 106t-256 -106l-15 -14q-120 79 -273 88l107 107q119 119 278.5 161t318.5 0
t278 -161t161 -278.5t0 -318.5t-161 -278z" />
<glyph unicode="&#x1f4d1;" horiz-adv-x="2048" d="M1664 1920v-1792h-1280q-53 0 -90.5 37.5t-37.5 90.5v256h-128q-53 0 -90.5 37.5t-37.5 90.5t37.5 90.5t90.5 37.5h128v640h-128q-53 0 -90.5 37.5t-37.5 90.5t37.5 90.5t90.5 37.5h128v128q0 53 37.5 90.5t90.5 37.5h1280zM1920 1920q53 0 90.5 -37.5t37.5 -90.5v-256
q0 -53 -37.5 -90.5t-90.5 -37.5h-128v512h128zM1920 1280q53 0 90.5 -37.5t37.5 -90.5v-256q0 -53 -37.5 -90.5t-90.5 -37.5h-128v512h128z" />
<glyph unicode="&#x1f4d3;" horiz-adv-x="2048" d="M0 1792q0 53 37.5 90.5t90.5 37.5h128v-1920h-128q-53 0 -90.5 37.5t-37.5 90.5v1664zM1792 2048q106 0 181 -75t75 -181v-128h-512v128q0 106 75 181t181 75zM1536 384v1152h512v-1152l-256 -383zM1280 1920q53 0 90.5 -37.5t37.5 -90.5v-1664q0 -53 -37.5 -90.5
t-90.5 -37.5h-896v1920h896z" />
<glyph unicode="&#x1f4da;" horiz-adv-x="2048" d="M768 384v1280h640v-1280h-640zM960 1408q-26 0 -45 -19t-19 -45t19 -45t45 -19h256q26 0 45 19t19 45t-19 45t-45 19h-256zM512 2048q53 0 90.5 -37.5t37.5 -90.5v-128h-640v128q0 53 37.5 90.5t90.5 37.5h384zM192 1408q-26 0 -45 -19t-19 -45t19 -45t45 -19h256
q26 0 45 19t19 45t-19 45t-45 19h-256zM0 384v1280h640v-1280h-640zM0 128v128h640v-128q0 -53 -37.5 -90.5t-90.5 -37.5h-384q-53 0 -90.5 37.5t-37.5 90.5zM1728 2048q26 0 45 -19t19 -45v-1920q0 -26 -19 -45t-45 -19t-45 19t-19 45v1920q0 26 19 45t45 19zM1280 2048
q53 0 90.5 -37.5t37.5 -90.5v-128h-640v128q0 53 37.5 90.5t90.5 37.5h384zM1984 2048q26 0 45 -19t19 -45v-1920q0 -26 -19 -45t-45 -19t-45 19t-19 45v1920q0 26 19 45t45 19zM768 128v128h640v-128q0 -53 -37.5 -90.5t-90.5 -37.5h-384q-53 0 -90.5 37.5t-37.5 90.5z" />
<glyph unicode="&#x1f4dd;" horiz-adv-x="2048" d="M616 977l814 815l362 -362l-814 -814l-452 -90zM1973 1973q75 -75 75 -181t-75 -181l-91 -91l-362 362l91 91q75 75 181 75t181 -75zM1408 256v512h256v-768h-1664v1664h256h512v-256h-512v-1152h1152z" />
<glyph unicode="&#x1f4de;" horiz-adv-x="2048" d="M161 146q-98 98 -128.5 144t-32.5 84q0 27 12.5 63t34.5 59l303 303q46 45 115 45q77 0 129 -52l200 -201q14 8 22 12q70 39 111 63t116 80t139 120t120 138.5t81 117t63 111.5l5.5 11t5.5 10l-201 201q-52 52 -52 128q0 69 45 115l304 303q47 47 114 47q53 0 90 -26
t145 -135q56 -58 92.5 -137.5t47.5 -158.5q6 -40 6 -101q0 -233 -130.5 -489.5t-371.5 -498.5q-242 -241 -498.5 -371.5t-489.5 -130.5q-43 0 -101 7q-78 9 -158 46t-138 93z" />
<glyph unicode="&#x1f4e0;" horiz-adv-x="2048" d="M1344 1152q26 0 45 19t19 45t-19 45t-45 19h-640q-26 0 -45 -19t-19 -45t19 -45t45 -19h640zM1344 1536q26 0 45 19t19 45t-19 45t-45 19h-640q-26 0 -45 -19t-19 -45t19 -45t45 -19h640zM768 256q53 0 90.5 37.5t37.5 90.5t-37.5 90.5t-90.5 37.5t-90.5 -37.5
t-37.5 -90.5t37.5 -90.5t90.5 -37.5zM1920 768q52 0 90 -38t38 -90v-512q0 -52 -38 -90t-90 -38h-1792q-52 0 -90 38t-38 90v512q0 52 38 90t90 38h1792zM384 256q53 0 90.5 37.5t37.5 90.5t-37.5 90.5t-90.5 37.5t-90.5 -37.5t-37.5 -90.5t37.5 -90.5t90.5 -37.5z
M1664 2048v-1152h-1280v1152h1280z" />
<glyph unicode="&#x1f4e4;" horiz-adv-x="2048" d="M2023 894q25 -123 25 -254v-512q0 -52 -38 -90t-90 -38h-1792q-52 0 -90 38t-38 90v512q0 131 25 254l206 1028q11 52 56 89t97 37h429l-205 -256h-142l-154 -768h328q0 -159 112.5 -271.5t271.5 -112.5t271.5 112.5t112.5 271.5h328l-154 768h-142l-205 256h429
q52 0 97 -37t56 -89zM768 1467q-106 0 -134 58.5t38 141.5l272 340q33 41 80 41t80 -41l272 -340q66 -83 38 -141.5t-134 -58.5h-128v-384q0 -53 -37.5 -90.5t-90.5 -37.5t-90.5 37.5t-37.5 90.5v384h-128z" />
<glyph unicode="&#x1f4e5;" horiz-adv-x="2048" d="M672 1336q-66 82 -38 141t134 59h128v384q0 53 37.5 90.5t90.5 37.5t90.5 -37.5t37.5 -90.5v-384h128q106 0 134 -59t-38 -141l-272 -340q-33 -41 -80 -41t-80 41zM2023 894q25 -123 25 -254v-512q0 -52 -38 -90t-90 -38h-1792q-52 0 -90 38t-38 90v512q0 131 25 254
l206 1028q11 52 56 89t97 37h420q-36 -62 -36 -128v-128h-302l-154 -768h328q0 -159 112.5 -271.5t271.5 -112.5t271.5 112.5t112.5 271.5h328l-154 768h-302v128q0 66 -36 128h420q52 0 97 -37t56 -89z" />
<glyph unicode="&#x1f4e6;" horiz-adv-x="2048" d="M1408 1024v256h512v-1024q0 -53 -37.5 -90.5t-90.5 -37.5h-1536q-52 0 -90 38t-38 90v1024h512v-256h768zM1920 1920q53 0 90.5 -37.5t37.5 -90.5v-384h-2048v384q0 52 38 90t90 38h1792z" />
<glyph unicode="&#x1f4eb;" horiz-adv-x="2048" d="M1408 1024h328l-154 768h-1116l-154 -768h328q0 -159 112.5 -271.5t271.5 -112.5t271.5 112.5t112.5 271.5zM2023 894q25 -123 25 -254v-512q0 -52 -38 -90t-90 -38h-1792q-52 0 -90 38t-38 90v512q0 131 25 254l206 1028q11 52 56 89t97 37h1280q52 0 97 -37t56 -89z
" />
<glyph unicode="&#x1f4f0;" horiz-adv-x="2048" d="M2048 2048v-1664q0 -159 -112.5 -271.5t-271.5 -112.5h-1280q-159 0 -271 112t-113 271v1v1280q0 53 37.5 90.5t90.5 37.5t90.5 -37.5t37.5 -90.5v-1216q0 -26 19 -45t45 -19t45 19t19 45v1600h1664zM1728 640q26 0 45 19t19 45t-19 45t-45 19h-1024q-26 0 -45 -19
t-19 -45t19 -45t45 -19h1024zM1792 1152v512h-1152v-512h1152zM1728 384q26 0 45 19t19 45t-19 45t-45 19h-1024q-26 0 -45 -19t-19 -45t19 -45t45 -19h1024z" />
<glyph unicode="&#x1f4f1;" horiz-adv-x="2048" d="M1024 128q53 0 90.5 37.5t37.5 90.5t-37.5 90.5t-90.5 37.5t-90.5 -37.5t-37.5 -90.5t37.5 -90.5t90.5 -37.5zM1536 512v1152h-1024v-1152h1024zM960 1920q-26 0 -45 -19t-19 -45t19 -45t45 -19h128q26 0 45 19t19 45t-19 45t-45 19h-128zM1536 2048q106 0 181 -75
t75 -181v-1536q0 -106 -75 -181t-181 -75h-1024q-106 0 -181 75t-75 181v1536q0 106 75 181t181 75h1024z" />
<glyph unicode="&#x1f4f7;" horiz-adv-x="2048" d="M1728 1344q53 0 90.5 37.5t37.5 90.5t-37.5 90.5t-90.5 37.5t-90.5 -37.5t-37.5 -90.5t37.5 -90.5t90.5 -37.5zM1024 256q104 0 198.5 40.5t163.5 109.5t109.5 163.5t40.5 198.5t-40.5 198.5t-109.5 163.5t-163.5 109.5t-198.5 40.5t-198.5 -40.5t-163.5 -109.5
t-109.5 -163.5t-40.5 -198.5t40.5 -198.5t109.5 -163.5t163.5 -109.5t198.5 -40.5zM1920 1792q52 0 90 -38t38 -90v-1152q0 -52 -38 -90t-90 -38h-232q-102 -175 -278.5 -279.5t-385.5 -104.5t-385.5 104.5t-278.5 279.5h-232q-52 0 -90 38t-38 90v1152q0 52 38 90t90 38
h327l80 144q25 46 81 79t109 33h598q53 0 109 -33t81 -79l80 -144h327z" />
<glyph unicode="&#x1f4f9;" horiz-adv-x="2048" d="M1152 1792q106 0 181 -75t75 -181v-1024q0 -106 -75 -181t-181 -75h-896q-106 0 -181 75t-75 181v1024q0 106 75 181t181 75h896zM1536 1280l512 256v-1024l-512 256v512z" />
<glyph unicode="&#x1f4fa;" horiz-adv-x="2048" d="M1728 896q53 0 90.5 37.5t37.5 90.5t-37.5 90.5t-90.5 37.5t-90.5 -37.5t-37.5 -90.5t37.5 -90.5t90.5 -37.5zM1408 384v768q0 52 -38 90t-90 38h-896q-52 0 -90 -38t-38 -90v-768q0 -52 38 -90t90 -38h896q52 0 90 38t38 90zM1792 1536q106 0 181 -75t75 -181v-1024
q0 -106 -75 -181t-181 -75h-1536q-106 0 -181 75t-75 181v1024q0 106 75 181t181 75h550l-403 403q-19 19 -19 45t19 45t45 19t45 -19l494 -493h75l493 493q19 19 45 19t45 -19t19 -45t-19 -45l-403 -403h550zM1728 384q53 0 90.5 37.5t37.5 90.5t-37.5 90.5t-90.5 37.5
t-90.5 -37.5t-37.5 -90.5t37.5 -90.5t90.5 -37.5z" />
<glyph unicode="&#x1f4fb;" horiz-adv-x="2048" d="M704 256q131 0 239.5 70.5t163.5 185.5h-806q55 -115 163.5 -185.5t239.5 -70.5zM1920 1408q52 0 90 -38t38 -90v-1152q0 -52 -38 -90t-90 -38h-1792q-52 0 -90 38t-38 90v1152q0 52 38 90t90 38h1472v404q-64 38 -64 108q0 53 37.5 90.5t90.5 37.5t90.5 -37.5
t37.5 -90.5q0 -71 -64 -108v-404h192zM1664 512q53 0 90.5 37.5t37.5 90.5t-37.5 90.5t-90.5 37.5t-90.5 -37.5t-37.5 -90.5t37.5 -90.5t90.5 -37.5zM704 1152q-131 0 -239.5 -70.5t-163.5 -185.5h806q-55 115 -163.5 185.5t-239.5 70.5zM1146 640q9 64 0 128h-883
q-9 -64 0 -128h883zM1664 896q53 0 90.5 37.5t37.5 90.5t-37.5 90.5t-90.5 37.5t-90.5 -37.5t-37.5 -90.5t37.5 -90.5t90.5 -37.5z" />
<glyph unicode="&#x1f508;" horiz-adv-x="2048" d="M128 1408h282l678 512v-1792l-678 512h-282q-52 0 -90 38t-38 90v512q0 52 38 90t90 38z" />
<glyph unicode="&#x1f509;" horiz-adv-x="2048" d="M1448 1545q104 -104 160 -239t56 -282q0 -148 -56 -283t-160 -239q-28 -27 -68.5 -27t-67.5 27q-28 28 -28 68t28 68q77 77 118.5 177t41.5 209t-41.5 208.5t-118.5 176.5q-28 28 -28 67.5t28 68.5q28 28 68 28q38 0 68 -28zM128 1408h282l678 512v-1792l-678 512h-282
q-52 0 -90 38t-38 90v512q0 52 38 90t90 38z" />
<glyph unicode="&#x1f50a;" horiz-adv-x="2048" d="M1448 1545q104 -104 160 -238.5t56 -282.5t-56 -282.5t-160 -238.5q-28 -27 -68.5 -27.5t-67.5 27.5q-28 28 -28 67.5t28 68.5q160 160 160 385t-160 385q-28 29 -28 68.5t28 67.5t68 28q38 0 68 -28zM1629 1927q200 -170 309.5 -406t109.5 -497t-109.5 -497t-309.5 -406
q-29 -25 -70 -21.5t-66 32.5q-25 31 -22 70q3 40 34 65q167 142 259 340t92 417t-92 417t-259 340q-31 25 -34 65q-3 39 22 70q29 34 74 34q34 0 62 -23zM128 1408h282l678 512v-1792l-678 512h-282q-52 0 -90 38t-38 90v512q0 52 38 90t90 38z" />
<glyph unicode="&#x1f50b;" horiz-adv-x="2048" d="M1920 1344h128v-640h-128v-64q0 -106 -75 -181t-181 -75h-1408q-106 0 -181 75t-75 181v768q0 106 75 181t181 75h1408q106 0 181 -75t75 -181v-64zM1664 640v768h-1408v-768h1408zM1536 1280v-512h-1152v512h1152z" />
<glyph unicode="&#x1f50c;" horiz-adv-x="2048" d="M128 1408h1792v-384h-256v-384q0 -158 -113 -271t-271 -113h-128v-256h-256v256h-128q-158 0 -271 113t-113 271v384h-256v384zM768 1920v-384h-256v384q0 53 37.5 90.5t90.5 37.5t90.5 -37.5t37.5 -90.5zM1536 1920v-384h-256v384q0 53 37.5 90.5t90.5 37.5t90.5 -37.5
t37.5 -90.5z" />
<glyph unicode="&#x1f50e;" horiz-adv-x="2048" d="M56 56q-56 56 -56 136t56 136l452 452q-124 202 -124 436q0 169 66 323t177 265.5t265.5 177.5t323.5 66t323 -66t265.5 -177.5t177.5 -265.5t66 -323t-66 -323t-177.5 -265.5t-265.5 -177.5t-323 -66q-235 0 -436 125l-452 -453q-58 -56 -136 -56t-136 56zM704 1216
q0 -139 68.5 -257t186.5 -186.5t257 -68.5q104 0 198.5 40.5t163.5 109.5t109.5 163.5t40.5 198.5t-40.5 198.5t-109.5 163.5t-163.5 109.5t-198.5 40.5q-139 0 -257 -68.5t-186.5 -186.5t-68.5 -257z" />
<glyph unicode="&#x1f511;" horiz-adv-x="2048" d="M1472 1280q80 0 136 56t56 136t-56 136t-136 56t-136 -56t-56 -136t56 -136t136 -56zM1344 2048q143 0 273.5 -55.5t225 -150t150 -225t55.5 -273.5t-55.5 -273.5t-150 -225t-225 -150t-273.5 -55.5q-85 0 -170 22l-105 -105q-18 -19 -50 -32t-59 -13h-128q-26 0 -45 -19
t-19 -45v-128q0 -26 -19 -45t-45 -19h-128q-26 0 -45 -19t-19 -45v-128q0 -26 -19 -45t-45 -19h-192h-192h-64v256v181q0 27 13.5 59t32.5 51l618 618q-24 91 -24 179q0 143 55.5 273.5t150 225t225 150t273.5 55.5z" />
<glyph unicode="&#x1f512;" horiz-adv-x="2048" d="M1280 1280v256q0 106 -75 181t-181 75t-181 -75t-75 -181v-256h512zM1664 1280q106 0 181 -75t75 -181v-768q0 -106 -75 -181t-181 -75h-1280q-106 0 -181 75t-75 181v768q0 106 75 181t181 75h128v256q0 212 150 362t362 150t362 -150t150 -362v-256h128zM1204 256
l-73 348q53 29 85 81.5t32 114.5q0 93 -65.5 158.5t-158.5 65.5q-92 0 -158 -65.5t-66 -158.5q0 -62 32 -114.5t85 -81.5l-72 -348h359z" />
<glyph unicode="&#x1f513;" horiz-adv-x="2048" d="M1204 256l-73 348q53 29 85 81.5t32 114.5q0 93 -65.5 158.5t-158.5 65.5q-92 0 -158 -65.5t-66 -158.5q0 -62 32 -114.5t85 -81.5l-72 -348h359zM1664 1280q106 0 181 -75t75 -181v-768q0 -106 -75 -181t-181 -75h-1280q-106 0 -181 75t-75 181v768q0 106 75 181t181 75
h128v256q0 212 150 362t362 150t362 -150t150 -362h-256q0 106 -75 181t-181 75t-181 -75t-75 -181v-256h896z" />
<glyph unicode="&#x1f514;" horiz-adv-x="2048" d="M1024 128q-106 0 -181 75t-75 181h512q0 -106 -75 -181t-181 -75zM256 512q-53 0 -67.5 30t16.5 73q12 17 33 46t74 114t93.5 163t73.5 174.5t33 167.5v64q0 156 68.5 289t186.5 210t257 77t257 -77t186.5 -210t68.5 -289v-64q0 -71 31.5 -165.5t77 -179t91 -158.5
t76.5 -118l32 -44q31 -43 16.5 -73t-67.5 -30h-1537z" />
<glyph unicode="&#x1f515;" horiz-adv-x="2048" d="M768 384h443l61 -60q-20 -85 -89.5 -140.5t-158.5 -55.5q-106 0 -181 75t-75 181zM1083 512h-827q-53 0 -68 30t16 73q8 11 22 30t52 77.5t71.5 115.5t71 134t59.5 143zM2011 219q37 -37 37 -90t-37 -91q-38 -38 -91 -38q-52 0 -90 38l-1792 1792q-38 38 -38 91t38 90
t91 37t90 -37l368 -369q69 127 184.5 202.5t252.5 75.5q139 0 257 -77t186.5 -210t68.5 -289v-64q0 -71 31.5 -165.5t77 -179t91 -158.5t76.5 -118l32 -44q31 -43 16.5 -73t-67.5 -30h-76z" />
<glyph unicode="&#x1f516;" horiz-adv-x="2048" d="M256 2048h1536v-1941q0 -78 -45 -100.5t-109 24.5l-461 341q-63 46 -153 46t-154 -46l-461 -341q-63 -47 -108 -24.5t-45 100.5v1941z" />
<glyph unicode="&#x1f517;" horiz-adv-x="2048" d="M1254 1345l92 -92q99 -99 134.5 -233t0 -268t-134.5 -233l-368 -368q-74 -74 -169.5 -112.5t-197.5 -38.5t-197.5 38.5t-169.5 112.5l-92 93q-99 99 -134.5 233t-0.5 268t135 233l208 208q-5 -163 59 -308l-84 -84q-76 -76 -76 -183.5t76 -183.5l92 -92q77 -75 184 -75
t184 75l367 368q76 76 76 183.5t-76 183.5l-92 92q-22 22 -53 40q1 1 2.5 4t2.5 4l180 179q29 -21 52 -44zM1438 2048q216 0 367 -152l92 -92q151 -152 151 -367t-151 -367l-209 -209q6 163 -58 309l83 84q76 76 76 183.5t-76 183.5l-92 92q-77 75 -183 75q-107 0 -184 -75
l-368 -368q-76 -76 -76 -183.5t76 -183.5l92 -92q16 -16 54 -40q-1 -1 -2.5 -3.5t-3.5 -4.5l-179 -179q-47 39 -52 44l-92 92q-151 151 -151 367t151 367l367 368q74 74 169.5 112.5t198.5 38.5z" />
<glyph unicode="&#x1f526;" horiz-adv-x="2048" d="M1152 2048l896 -896l-128 -128l-896 896zM802 1255l177 529l805 -805l-529 -177l-765 -765q-38 -37 -91 -37t-90 37l-272 272q-37 37 -37 90t37 91zM1088 896q0 80 -56 136t-136 56t-136 -56l-256 -256q-56 -56 -56 -136t56 -136t136 -56t136 56l256 256q56 56 56 136z
M549 731q37 37 91 37t91 -37t37 -91t-37 -91t-91 -37t-91 37t-37 91t37 91z" />
<glyph unicode="&#x1f527;" horiz-adv-x="2048" d="M2010 1626q63 -167 24 -351.5t-172 -317.5q-126 -126 -299 -167.5t-333 8.5l-709 -709q-89 -89 -216 -89t-216 89t-89 216t89 216l709 709q-50 160 -8.5 333t167.5 299q133 133 317.5 172t351.5 -24l-299 -299q-19 -19 -33 -51t-14 -58v-256q0 -27 19.5 -46.5t45.5 -19.5
h256q27 0 59 14t51 33zM320 192q53 0 90.5 37.5t37.5 90.5t-37.5 90.5t-90.5 37.5t-90.5 -37.5t-37.5 -90.5t37.5 -90.5t90.5 -37.5z" />
<glyph unicode="&#x1f62e;" horiz-adv-x="2048" d="M1025 2048q140 0 272.5 -37t245 -102.5t206.5 -160t160 -207t102.5 -245.5t36.5 -272q0 -167 -51.5 -323t-146 -282t-220 -221t-282 -146.5t-323.5 -51.5q-208 0 -398 81t-327.5 218.5t-218.5 327t-81 397.5q0 167 51.5 323.5t146.5 282t221 220.5t282.5 146.5
t323.5 51.5zM1408 1152q53 0 90.5 37.5t37.5 90.5t-37.5 90.5t-90.5 37.5t-90.5 -37.5t-37.5 -90.5t37.5 -90.5t90.5 -37.5zM1024 384q159 0 271.5 75t112.5 181t-112.5 181t-271.5 75t-271.5 -75t-112.5 -181t112.5 -181t271.5 -75zM512 1280q0 -53 37.5 -90.5t90.5 -37.5
t90.5 37.5t37.5 90.5t-37.5 90.5t-90.5 37.5t-90.5 -37.5t-37.5 -90.5z" />
<glyph unicode="&#x1f680;" horiz-adv-x="2048" d="M0 512q0 50 38.5 121t101.5 146t115 129.5t106 106.5l153 -656l-385 -268q-5 5 -14 15.5t-31 48.5t-39 82.5t-31 118.5t-14 156zM1687 1015q54 -52 106 -106.5t115 -129.5t101.5 -146t38.5 -121q0 -82 -13.5 -155.5t-32 -119.5t-37.5 -81t-33 -50l-13 -15l-386 268z
M793 256h461l154 -256h-768zM1056 2044q46 -10 105 -41.5t129 -86t130.5 -129t108.5 -172t63 -214.5t-6 -256l-178 -761h-768l-178 761q-21 139 -6 256t64 214.5t109.5 172t131 129t129.5 86t104 41.5q20 4 30 4q8 0 32 -4zM1024 800q66 0 113 47t47 113t-47 113t-113 47
t-113 -47t-47 -113t47 -113t113 -47zM1024 1440q66 0 113 47t47 113t-47 113t-113 47t-113 -47t-47 -113t47 -113t113 -47z" />
<glyph unicode="&#x1f686;" horiz-adv-x="2048" d="M512 512q-106 0 -181 75t-75 181v1024q0 106 75 181t181 75h1024q106 0 181 -75t75 -181v-1024q0 -106 -75 -181t-181 -75h-1024zM1664 896q0 53 -37.5 90.5t-90.5 37.5t-90.5 -37.5t-37.5 -90.5t37.5 -90.5t90.5 -37.5t90.5 37.5t37.5 90.5zM704 1920q-26 0 -45 -19
t-19 -45t19 -45t45 -19h640q26 0 45 19t19 45t-19 45t-45 19h-640zM512 1600v-384q0 -26 19 -45t45 -19h896q26 0 45 19t19 45v384q0 26 -19 45t-45 19h-896q-26 0 -45 -19t-19 -45zM512 1024q-53 0 -90.5 -37.5t-37.5 -90.5t37.5 -90.5t90.5 -37.5t90.5 37.5t37.5 90.5
t-37.5 90.5t-90.5 37.5zM1984 128q26 0 45 -19t19 -45t-19 -45t-45 -19h-1920q-26 0 -45 19t-19 45t19 45t45 19h1920zM192 256q-26 0 -45 19t-19 45t19 45t45 19h1664q26 0 45 -19t19 -45t-19 -45t-45 -19h-1664z" />
<glyph unicode="&#x1f68d;" horiz-adv-x="2048" d="M1536 192v64h384v-64q0 -80 -56 -136t-136 -56t-136 56t-56 136zM128 192v64h384v-64q0 -80 -56 -136t-136 -56t-136 56t-56 136zM1536 2048q212 0 362 -150t150 -362v-1152h-2048v1152q0 212 150 362t362 150h1024zM832 1920q-26 0 -45 -19t-19 -45t19 -45t45 -19h384
q26 0 45 19t19 45t-19 45t-45 19h-384zM384 640q53 0 90.5 37.5t37.5 90.5t-37.5 90.5t-90.5 37.5t-90.5 -37.5t-37.5 -90.5t37.5 -90.5t90.5 -37.5zM960 1024v640h-448q-106 0 -181 -75t-75 -181v-384h704zM1664 640q53 0 90.5 37.5t37.5 90.5t-37.5 90.5t-90.5 37.5
t-90.5 -37.5t-37.5 -90.5t37.5 -90.5t90.5 -37.5zM1792 1024v384q0 106 -75 181t-181 75h-448v-640h704z" />
<glyph unicode="&#x1f696;" horiz-adv-x="2048" d="M1792 1128q113 -40 184.5 -138.5t71.5 -221.5v-384h-2048v384q0 123 71.5 221.5t184.5 138.5v152q0 177 108 314t276 180v146q0 52 38 90t90 38h512q52 0 90 -38t38 -90v-147q168 -43 276 -179.5t108 -313.5v-152zM832 1920q-26 0 -45 -19t-19 -45t19 -45t45 -19h384
q26 0 45 19t19 45t-19 45t-45 19h-384zM384 640q53 0 90.5 37.5t37.5 90.5q0 52 -38 90t-90 38q-53 0 -90.5 -37.5t-37.5 -90.5t37.5 -90.5t90.5 -37.5zM512 1280v-128h1024v128q0 106 -75 181t-181 75h-512q-106 0 -181 -75t-75 -181zM1664 640q53 0 90.5 37.5t37.5 90.5
q0 52 -38 90t-90 38q-53 0 -90.5 -37.5t-37.5 -90.5t37.5 -90.5t90.5 -37.5zM1536 192v64h384v-64q0 -80 -56 -136t-136 -56t-136 56t-56 136zM128 192v64h384v-64q0 -80 -56 -136t-136 -56t-136 56t-56 136z" />
<glyph unicode="&#x1f698;" horiz-adv-x="2048" d="M512 1536v-256h1024v256q0 106 -75 181t-181 75h-512q-106 0 -181 -75t-75 -181zM1792 1257q113 -40 184.5 -138.5t71.5 -222.5v-384h-2048v384q0 124 71.5 222.5t184.5 138.5v279q0 212 150 362t362 150h512q212 0 362 -150t150 -362v-279zM1664 768q53 0 90.5 37.5
t37.5 90.5t-37.5 90.5t-90.5 37.5t-90.5 -37.5t-37.5 -90.5t37.5 -90.5t90.5 -37.5zM128 192v192h384v-192q0 -80 -56 -136t-136 -56t-136 56t-56 136zM1536 192v192h384v-192q0 -80 -56 -136t-136 -56t-136 56t-56 136zM384 768q53 0 90.5 37.5t37.5 90.5t-37.5 90.5
t-90.5 37.5t-90.5 -37.5t-37.5 -90.5t37.5 -90.5t90.5 -37.5z" />
<glyph unicode="&#x1f69a;" horiz-adv-x="2048" d="M1568 640q93 0 158.5 -65.5t65.5 -158.5t-65.5 -158.5t-158.5 -65.5t-158.5 65.5t-65.5 158.5t65.5 158.5t158.5 65.5zM544 640q93 0 158.5 -65.5t65.5 -158.5t-65.5 -158.5t-158.5 -65.5t-158.5 65.5t-65.5 158.5t65.5 158.5t158.5 65.5zM1024 1856q52 0 90 -38t38 -90
v-1152h-296q-45 87 -128.5 139.5t-183.5 52.5t-183.5 -52.5t-128.5 -139.5h-104q-52 0 -90 38t-38 90v1024q0 52 38 90t90 38h896zM1997 1174q21 -16 36 -46t15 -56v-432q0 -26 -19 -45t-45 -19h-104q-45 87 -128.5 139.5t-183.5 52.5q-88 0 -164 -41t-124 -112v857h256
q26 0 60 -11t55 -27zM1408 1088h491l-325 243q-15 10 -38 13h-128v-256z" />
<glyph unicode="&#x1f6ab;" horiz-adv-x="2048" d="M1477 572q91 90 139 206.5t48 245.5q0 152 -74 294l-860 -859q144 -75 294 -75q128 0 245 48.5t208 139.5zM384 1024q0 -150 75 -294l859 860q-145 74 -294 74q-130 0 -248.5 -51t-204 -136.5t-136.5 -204t-51 -248.5zM1024 2048q209 0 398.5 -81t326.5 -218t218 -326.5
t81 -398.5q0 -208 -81 -397.5t-218 -327t-327 -218.5t-398 -81t-397.5 81t-327 218.5t-218.5 327t-81 397.5t81 398t218.5 327t327 218t397.5 81z" />
<glyph unicode="&#x1f6b2;" horiz-adv-x="2048" d="M1536 256q106 0 181 75t75 181t-75 181t-181 75t-181 -75t-75 -181t75 -181t181 -75zM860 992l364 242l-23 46h-514zM512 256q106 0 181 75t75 181t-75 181t-181 75t-181 -75t-75 -181t75 -181t181 -75zM1619 1016q184 -30 306.5 -172.5t122.5 -331.5q0 -212 -150 -362
t-362 -150t-362 150t-150 362q0 160 89.5 289t233.5 186l-66 132l-393 -262q136 -147 136 -345q0 -212 -150 -362t-362 -150t-362 150t-150 362t150 362t362 150q5 0 10 -0.5t11.5 -1.5t10.5 -1l-232 387h-184q-53 0 -90.5 37.5t-37.5 90.5t37.5 90.5t90.5 37.5h256
q71 0 108 -63l2 1l39 -66h540l-163 327h1q-15 30 -15 57q0 53 37.5 90.5t90.5 37.5h384q53 0 90.5 -37.5t37.5 -90.5t-37.5 -90.5t-90.5 -37.5h-177z" />
<glyph   />
<glyph  horiz-adv-x="682"  />
<glyph unicode=" " horiz-adv-x="512"  />
<glyph unicode="A" horiz-adv-x="1375" d="M1344 0h-218l-145 429h-595l-154 -429h-204l555 1479h230zM905 607l-218 654l-237 -654h455z" />
<glyph unicode="B" horiz-adv-x="1375" d="M1287 443q0 -132 -64.5 -234.5t-168.5 -155.5t-227 -53h-680v1479h668q165 0 280 -99t119 -275q0 -100 -50 -187.5t-142 -121.5q117 -41 191 -133.5t74 -219.5zM1017 1062q0 122 -62.5 181t-219.5 63h-384v-455h389q139 0 206 60.5t71 150.5zM1088 417q0 66 -14 111.5
t-50.5 82.5t-105 56t-171.5 20h-396v-519h462q69 0 123 23t85.5 60.5t48 79.5t18.5 86z" />
<glyph unicode="C" horiz-adv-x="1489" d="M1403 543q-11 -96 -44.5 -183t-89 -160t-128 -126.5t-167 -83.5t-201.5 -30q-150 0 -270.5 49t-196.5 127.5t-127.5 184t-72.5 212t-21 218.5q0 116 27 225t82.5 206t135 170.5t191 118t242.5 48.5q57 0 115.5 -9t125.5 -28.5t127.5 -57t113 -89t90.5 -129.5t52 -173
h-195q-29 147 -137.5 225.5t-262.5 78.5q-105 0 -189 -31t-140.5 -84t-94 -128.5t-55 -160t-19.5 -182.5q2 -91 19 -177t53 -166t87.5 -139.5t128 -95.5t169.5 -36q193 0 310 107t146 299h196z" />
<glyph unicode="D" horiz-adv-x="1489" d="M1384 792q0 -125 -24.5 -240.5t-74 -215t-119 -173.5t-166 -117.5t-208.5 -45.5h-628v1479h621q77 0 155.5 -22t157.5 -74.5t140 -129t101.5 -196t44.5 -265.5zM1178 775q0 85 -13.5 160.5t-45.5 144t-79.5 118t-120 79t-163.5 29.5h-389v-1138h413q119 0 210.5 81
t139.5 218t48 308z" />
<glyph unicode="E" horiz-adv-x="1375" d="M1266 0h-1093v1479h1081v-180h-879v-450h810v-178h-810v-493h891v-178z" />
<glyph unicode="F" horiz-adv-x="1256" d="M1197 1299h-822v-450h725v-178h-725v-671h-202v1479h1024v-180z" />
<glyph unicode="G" horiz-adv-x="1598" d="M1446 0h-128l-47 197q-70 -98 -200 -161.5t-286 -68.5q-146 0 -262 39t-195 108.5t-131.5 168.5t-76 215t-23.5 253q0 112 26.5 219.5t83.5 205t137.5 171t197 118t254.5 45.5q113 0 217.5 -31t190.5 -90t144.5 -152t73.5 -208h-192q-27 109 -95 180t-154 99.5t-194 28.5
q-212 0 -349 -161.5t-137 -435.5q0 -295 134 -454.5t352 -159.5q173 0 310 106q91 74 125.5 158.5t38.5 225.5h-460v171h645v-787z" />
<glyph unicode="H" horiz-adv-x="1489" d="M1332 0h-201v687h-773v-687h-202v1479h202v-614h773v614h201v-1479z" />
<glyph unicode="I" horiz-adv-x="569" d="M386 0h-201v1479h201v-1479z" />
<glyph unicode="J" horiz-adv-x="1029" d="M882 398q0 -117 -33.5 -203t-93.5 -136t-134.5 -73.5t-165.5 -25.5q-93 0 -167 23t-121 60t-78 86.5t-43.5 99t-12.5 100.5v145h187v-104q0 -123 54.5 -181.5t168.5 -58.5q122 0 177.5 62t57.5 194v1093h204v-1081z" />
<glyph unicode="K" horiz-adv-x="1375" d="M1363 0h-258l-520 740l-232 -221v-519h-201v1479h201v-720l718 720h275l-616 -597z" />
<glyph unicode="L" horiz-adv-x="1147" d="M1105 0h-953v1479h201v-1301h752v-178z" />
<glyph unicode="M" horiz-adv-x="1711" d="M1567 0h-197v1242l-412 -1242h-199l-422 1240v-1240h-190v1479h287l426 -1254l422 1254h285v-1479z" />
<glyph unicode="N" horiz-adv-x="1489" d="M1332 0h-227l-754 1192v-1192h-195v1479h237l745 -1197v1197h194v-1479z" />
<glyph unicode="O" horiz-adv-x="1598" d="M1519 740q0 -56 -5.5 -112t-23.5 -134.5t-48 -146.5t-85 -138.5t-127.5 -121t-182.5 -83.5t-243 -35q-145 0 -265.5 43t-203 116.5t-140 172.5t-84 209.5t-26.5 229.5q0 124 27 236t85 209t141.5 168.5t202.5 113t263 43.5q113 0 211 -25.5t169.5 -69.5t129.5 -105
t95.5 -129.5t63 -145t36 -149.5t10.5 -146zM1318 740q0 264 -136.5 426t-377.5 166q-230 0 -372.5 -160.5t-142.5 -431.5q0 -267 138 -428t377 -165q241 0 377.5 162.5t136.5 430.5z" />
<glyph unicode="P" horiz-adv-x="1375" d="M1278 1062q0 -66 -14 -126t-47 -117t-82.5 -99t-125.5 -68.5t-170 -28.5h-464v-623h-202v1479h666q188 0 311 -109t128 -308zM1071 1062q0 244 -291 244h-405v-514h398q295 0 298 270z" />
<glyph unicode="Q" horiz-adv-x="1598" d="M1519 740q0 -358 -215 -569l201 -157l-97 -121l-228 178q-155 -102 -379 -102q-145 0 -265.5 43t-203.5 116.5t-140.5 172.5t-84 209.5t-26.5 229.5q0 124 27 236t85 209t141.5 168.5t203 113t263.5 43.5q113 0 210.5 -25.5t169.5 -69.5t130 -105t96.5 -129.5t64 -145
t36.5 -149.5t11 -146zM1313 740q0 264 -135.5 426t-376.5 166q-231 0 -372.5 -160t-141.5 -432q0 -268 137 -428.5t377 -164.5q119 0 216 47l-154 117l102 125l189 -144q159 165 159 448z" />
<glyph unicode="R" horiz-adv-x="1489" d="M1384 0h-225q-26 57 -37.5 150t-15 186.5t-6.5 113.5q-26 178 -242 181h-502v-631h-202v1479h709q89 0 169 -24t146 -71.5t106 -128t43 -184.5q0 -230 -215 -343q79 -25 126 -87t56 -153q6 -56 12.5 -157t14.5 -165.5t25 -106.5q18 -42 38 -59zM1124 1052
q0 112 -58.5 181t-186.5 73h-523v-502h507q112 0 186.5 69t74.5 179z" />
<glyph unicode="S" horiz-adv-x="1375" d="M1273 415q0 -145 -76.5 -247.5t-204.5 -150.5t-297 -48q-284 0 -438 127t-155 392h185q0 -78 24 -139t62.5 -98.5t93.5 -62.5t109.5 -35.5t118.5 -12.5q59 0 112 7.5t104 25.5t88 45.5t59.5 71t22.5 99.5q0 39 -8.5 69.5t-24.5 54t-44.5 42.5t-64 34t-88 29.5t-110.5 28
t-138 31.5q-36 8 -55 12q-67 15 -119.5 32.5t-106.5 47.5t-90 67.5t-59.5 94t-25.5 125.5q0 92 30 171.5t90 143.5t161 101t231 37q111 0 201.5 -21t148 -51t101.5 -77.5t65.5 -84.5t36 -89.5t17 -75.5t5.5 -58q1 -9 1 -12h-185q0 63 -21.5 114t-57 84.5t-85 56.5
t-100.5 33.5t-108 12.5q-51 0 -96 -6.5t-90.5 -24.5t-77.5 -46.5t-52.5 -75.5t-20.5 -108q0 -141 178 -180l422 -97q332 -74 332 -389z" />
<glyph unicode="T" horiz-adv-x="1256" d="M1230 1299h-502v-1299h-202v1299h-498v180h1202v-180z" />
<glyph unicode="U" horiz-adv-x="1489" d="M1327 486q0 -105 -35.5 -195.5t-106 -162t-187 -113.5t-268.5 -43q-282 0 -423.5 130.5t-145.5 373.5v1003h202v-965q0 -171 95 -269t272 -98q180 0 285.5 94.5t110.5 268.5v969h201v-993z" />
<glyph unicode="V" horiz-adv-x="1375" d="M1330 1479l-538 -1479h-214l-538 1479h233l419 -1263l436 1263h202z" />
<glyph unicode="W" horiz-adv-x="1941" d="M1911 1479l-392 -1479h-208l-337 1225l-346 -1225h-211l-384 1479h216l272 -1206l339 1206h216l339 -1206l273 1206h223z" />
<glyph unicode="X" horiz-adv-x="1375" d="M1332 0h-249l-396 607l-410 -607h-239l529 759l-498 720h251l375 -566l376 566h240l-496 -723z" />
<glyph unicode="Y" horiz-adv-x="1375" d="M1342 1479l-557 -889v-590h-200v590l-554 889h242l422 -711l424 711h223z" />
<glyph unicode="Z" horiz-adv-x="1256" d="M1209 0h-1162v164l906 1137h-839v178h1095v-173l-910 -1126h910v-180z" />
<glyph unicode="a" horiz-adv-x="1147" d="M1093 2v-2q-57 -21 -119 -21q-168 0 -173 161q-154 -166 -389 -173q-151 0 -246 89t-95 214q0 60 15.5 109t39.5 82.5t64 60.5t76.5 42.5t91 29.5t93.5 20.5t98 16.5t91 16q82 14 117 50.5t35 79.5q0 83 -63.5 133t-185.5 50q-110 0 -176.5 -53t-70.5 -160h-168
q0 147 111.5 250.5t327.5 107.5q106 0 195.5 -32.5t150.5 -106.5t61 -179v-576q0 -60 22.5 -82t96.5 4v-131zM787 358v194q-29 -19 -84 -34t-111.5 -23.5t-117.5 -25t-108 -37.5t-77.5 -62t-30.5 -97q0 -78 52 -118.5t140 -40.5q51 0 109 17t109.5 47t85 77.5t33.5 102.5z
" />
<glyph unicode="b" horiz-adv-x="1147" d="M1088 569q3 -85 -10.5 -166.5t-48 -161.5t-88 -140t-138.5 -97t-191 -37q-104 0 -187.5 42.5t-130.5 123.5l-14 -133h-164v1479h185v-538q59 78 138.5 119t191.5 45q197 0 323.5 -149.5t133.5 -386.5zM898 538q0 198 -79 301.5t-222 103.5q-82 0 -143.5 -38.5t-95 -100.5
t-49 -128.5t-15.5 -135.5q0 -404 313 -414q140 0 215.5 112.5t75.5 299.5z" />
<glyph unicode="c" horiz-adv-x="1029" d="M991 379q-12 -111 -57 -194t-111 -129t-138 -67.5t-149 -21.5q-203 0 -340 158.5t-137 412.5q0 140 39.5 251t107 179t153.5 103.5t184 35.5q62 0 119.5 -11.5t114.5 -40t100.5 -71.5t74.5 -112t39 -156h-173q-10 106 -83.5 166.5t-184.5 60.5q-63 0 -114.5 -21t-94 -66
t-66.5 -126t-24 -192q0 -170 85 -287.5t214 -117.5q109 0 176.5 62t88.5 184h176z" />
<glyph unicode="d" horiz-adv-x="1147" d="M64 569q7 237 133.5 386.5t323.5 149.5q113 -4 191.5 -45t138.5 -119v538h185v-1479h-164v152q-48 -82 -139.5 -133.5t-192.5 -51.5q-106 0 -191 37t-138.5 97t-88 140t-48 161.5t-10.5 166.5zM254 538q0 -187 75.5 -299.5t215.5 -112.5q313 10 313 414q0 69 -15.5 135.5
t-48.5 128.5t-94.5 100.5t-144.5 38.5q-143 0 -222 -103.5t-79 -301.5z" />
<glyph unicode="e" horiz-adv-x="1147" d="M1074 476h-804q0 -150 91.5 -246.5t226.5 -96.5q68 0 125 22t91 54.5t52.5 66.5t18.5 61h185q-30 -172 -161 -270t-321 -98q-114 0 -209 42.5t-157 116t-97 171t-37 208.5q0 270 139.5 436t365.5 166q160 0 273.5 -81.5t168 -223.5t49.5 -328zM884 623q0 144 -87 234.5
t-212 90.5q-128 0 -219 -95.5t-96 -229.5h614z" />
<glyph unicode="f" horiz-adv-x="569" d="M538 1493v-149q-31 5 -76 5q-54 0 -76.5 -25t-22.5 -84v-164h175v-163h-175v-913h-185v913h-150v163h150v199q0 98 73.5 164t191.5 66q55 0 95 -12z" />
<glyph unicode="g" horiz-adv-x="1228" d="M1086 47q0 -262 -128 -390.5t-358 -128.5q-33 0 -66 3t-75 12.5t-79.5 24.5t-74.5 41.5t-63.5 61t-43.5 85t-18 111.5h180q0 -80 68 -125t160 -45q150 0 233.5 83t83.5 253v64q-65 -70 -145.5 -99t-183.5 -29q-84 0 -166.5 36.5t-151 103t-112 171.5t-46.5 230
q0 277 139.5 436t362.5 159q98 0 180 -42t123 -110v130h181v-1036zM905 536q0 180 -82.5 283t-227.5 103q-56 0 -109 -23t-97 -67t-70.5 -116.5t-26.5 -163.5q0 -106 26.5 -189.5t71.5 -132.5t99 -74.5t113 -25.5q132 0 216 107.5t87 298.5z" />
<glyph unicode="h" horiz-adv-x="1147" d="M1012 0h-185v704q0 117 -50 178t-161 61q-61 0 -113.5 -21t-96 -62.5t-68.5 -112t-25 -162.5v-585h-185v1479h185v-547q55 85 147 128t187 47q55 0 104 -10.5t98 -38t84 -70.5t57 -112.5t22 -159.5v-716z" />
<glyph unicode="i" horiz-adv-x="460" d="M318 1271h-185v203h185v-203zM318 0h-185v1076h185v-1076z" />
<glyph unicode="j" horiz-adv-x="543" d="M405 -185q0 -106 -70 -175t-200 -69q-59 0 -92 7v157q41 -10 83 -10q51 0 72.5 29t21.5 101v1221h185v-1261zM405 1271h-185v208h185v-208z" />
<glyph unicode="k" horiz-adv-x="1029" d="M1029 0h-230l-356 526l-130 -128v-398h-185v1479h185v-860l460 457h232l-429 -412z" />
<glyph unicode="l" horiz-adv-x="460" d="M320 0h-187v1479h187v-1479z" />
<glyph unicode="m" horiz-adv-x="1711" d="M1586 0h-185v695q0 248 -199 248q-108 0 -177 -78t-74 -211v-654h-185v742q0 84 -42 142.5t-131 58.5q-53 0 -99.5 -18.5t-87 -58t-65 -112t-26.5 -169.5v-585h-185v1076h171v-152q57 89 144 135t186 46q113 0 179.5 -46t109.5 -127q46 72 131 122.5t198 50.5
q42 0 84 -8.5t89 -33.5t82 -63.5t58.5 -105t23.5 -152.5v-742z" />
<glyph unicode="n" horiz-adv-x="1147" d="M1012 0h-185v673q0 61 -10 107.5t-33 84.5t-65.5 58t-102.5 20q-130 0 -216.5 -88.5t-86.5 -240.5v-614h-185v1076h175v-156q15 24 43.5 52.5t72 60t104 52t124.5 20.5q166 0 265.5 -96t99.5 -293v-716z" />
<glyph unicode="o" horiz-adv-x="1147" d="M1081 538q0 -112 -34.5 -213t-97.5 -179.5t-159.5 -126t-213.5 -50.5q-94 0 -175 30.5t-140.5 84t-102 125t-64 155.5t-21.5 174q0 155 58 283t174 207t271 79t271.5 -79t175 -207t58.5 -283zM891 538q1 68 -16.5 136t-53.5 129.5t-100 101t-145 41.5q-80 0 -143 -39
t-98.5 -101.5t-53.5 -131t-18 -136.5q0 -81 18 -152.5t54 -130.5t98 -93t143 -34q82 0 143.5 34t97 93.5t53.5 129.5t21 153z" />
<glyph unicode="p" horiz-adv-x="1147" d="M1090 507q-7 -237 -134 -386t-325 -149q-112 3 -190 44t-138 119v-562h-187v1503h166v-152q48 82 139.5 133.5t192.5 51.5q106 0 191 -37t138.5 -97t88.5 -140t48 -161.5t10 -166.5zM901 538q0 187 -76 300t-216 113q-160 -6 -236.5 -114t-76.5 -301q0 -69 15.5 -135
t48.5 -128.5t95 -101t145 -38.5q143 0 222 103.5t79 301.5z" />
<glyph unicode="q" horiz-adv-x="1147" d="M45 507q0 85 14 166t48.5 161.5t87 140t136.5 97t190 37.5q103 0 186 -42.5t130 -123.5l16 133h166v-1503h-185v562q-62 -78 -140 -119t-189 -44q-201 0 -328 143.5t-132 391.5zM235 538q0 -198 80 -301.5t223 -103.5q66 0 119 26t86.5 67t55.5 95.5t31 107.5t9 107
q0 404 -313 415q-140 0 -215.5 -113t-75.5 -300z" />
<glyph unicode="r" horiz-adv-x="683" d="M609 913q-154 0 -250 -71.5t-96 -196.5v-645h-185v1076h178v-182q94 206 353 206v-187z" />
<glyph unicode="s" horiz-adv-x="1029" d="M960 325q0 -155 -113.5 -256.5t-310.5 -101.5q-97 0 -176 20.5t-142.5 64.5t-101.5 118.5t-45 175.5h178q0 -220 287 -220q101 0 172.5 43t71.5 125q0 44 -23 70t-102 55t-247 69q-48 12 -81.5 22.5t-78 32.5t-72 49t-47.5 71.5t-20 99.5q0 163 114.5 253.5t293.5 90.5
q99 0 175.5 -26t118.5 -63t69.5 -86.5t36 -87.5t10.5 -76h-176q0 88 -64 134t-189 46q-15 0 -30 -1t-42 -5.5t-49 -14.5t-44.5 -26t-35.5 -43t-15 -62q0 -66 62.5 -95.5t267.5 -78.5q23 -5 35 -8q55 -15 95.5 -30t83.5 -39t70 -53t45 -71.5t19 -95.5z" />
<glyph unicode="t" horiz-adv-x="569" d="M538 128v-152q-57 -12 -95 -12q-118 0 -191.5 67t-73.5 163v719h-140v163h140v304h185v-304h175v-163h-175v-681q0 -59 22.5 -85t76.5 -26q33 0 76 7z" />
<glyph unicode="u" horiz-adv-x="1147" d="M116 1076h187v-673q0 -61 10 -107.5t33 -84.5t65.5 -58t102.5 -20q129 0 216.5 89t87.5 240v614h185v-1076h-178v156q-14 -24 -43 -52.5t-72 -59.5t-104 -51.5t-125 -20.5q-166 0 -265.5 95.5t-99.5 292.5v716z" />
<glyph unicode="v" horiz-adv-x="1029" d="M988 1076l-410 -1076h-194l-391 1076h206l294 -882l301 882h194z" />
<glyph unicode="w" horiz-adv-x="1489" d="M1458 1076l-311 -1076h-189l-216 832l-216 -832h-189l-309 1076h197l204 -848l220 848h202l211 -848l216 848h180z" />
<glyph unicode="x" horiz-adv-x="1029" d="M1007 0h-232l-265 405l-261 -405h-228l380 555l-361 521h233l248 -381l252 381h218l-363 -524z" />
<glyph unicode="y" horiz-adv-x="1029" d="M1007 1076q-166 -472 -314.5 -865.5t-182.5 -461.5q-66 -133 -149 -171.5t-235 -4.5v166q35 -13 63.5 -18.5t60 -3t58 22t45.5 56.5l74 171l-403 1109h204l293 -879l292 879h194z" />
<glyph unicode="z" horiz-adv-x="1029" d="M965 0h-901v140l647 784h-597v152h829v-149l-642 -780h664v-147z" />
</font>
</defs>
</svg>
