<svg width="1465" height="43" viewBox="0 0 1465 43" fill="none" xmlns="http://www.w3.org/2000/svg">
<g clip-path="url(#clip0_20_888)">
<path d="M82.114 31.2222C58.4995 30.0703 39 33 0.000170583 31L0.000177259 28.5L0.000140542 27L3.13465e-05 18.5L0.000129575 8C-8.46293e-05 5 3.13465e-05 3.45707e-06 3.13465e-05 3.45707e-06H39.5001L201.058 0L334.169 3.45707e-06H463.114L1180 7.62939e-06H1419.67L1449.5 9.23872e-06L1465 7.62939e-06V10L1465 31H1459.5C1450.69 31 1442.01 30 1433.34 30C1417.14 30 1400.71 27.7423 1384.56 26.5C1360.01 24.6119 1335.28 24 1310.67 24H1160.34C1144.92 24 1129.47 23.6886 1114.06 24.0556C1095.24 24.5037 1076.47 26.6221 1057.61 26.9445C1014.32 27.6844 971.048 27.3712 927.781 29.2222C869.383 31.7205 810.931 29.6808 752.503 31.0556C692.828 32.4597 633.129 31.825 573.447 33.0556C487.457 34.8285 401.49 38.3004 315.558 40.9444C303.644 41.3111 290.739 42.6155 278.892 41.7778C269.925 41.1437 260.88 40.1649 251.892 40C234.93 39.6888 218.031 39 201.058 39C187.006 39 172.732 39.7287 158.725 38.5C133.186 36.2597 107.712 32.4709 82.114 31.2222Z" fill="#F5AC60"/>
</g>
<defs>
<clipPath id="clip0_20_888">
<rect width="1465" height="43" fill="white"/>
</clipPath>
</defs>
</svg>
