<svg xmlns="http://www.w3.org/2000/svg" width="1465" height="43" fill="none">
	<path fill="#EDA2FF" d="M82.114 31.222C58.499 30.07 39 33 0 31V0h1465v31h-5.5c-8.81 0-17.49-1-26.16-1-16.2 0-32.63-2.258-48.78-3.5-24.55-1.888-49.28-2.5-73.89-2.5h-150.33c-15.42 0-30.87-.311-46.28.056-18.82.448-37.59 2.566-56.45 2.889-43.29.74-86.562.426-129.829 2.277-58.398 2.498-116.85.459-175.278 1.834-59.675 1.404-119.374.769-179.056 2-85.99 1.773-171.957 5.244-257.889 7.888-11.914.367-24.819 1.671-36.666.834-8.967-.634-18.012-1.613-27-1.778-16.962-.311-33.861-1-50.834-1-14.052 0-28.326.729-42.333-.5-25.539-2.24-51.013-6.03-76.611-7.278Z"/>
</svg>