<svg width="621" height="42" viewBox="0 0 621 42" fill="none" xmlns="http://www.w3.org/2000/svg">
<g clip-path="url(#clip0_17_818)">
<rect width="621" height="42" fill="#F1EAEA"/>
<path d="M586.193 10.8174C596.203 11.9679 604.468 9.04188 621 11.0393L621 13.5362L621 15.0343L621 23.5235L621 34.0102L621 42L604.256 42L535.773 42L479.349 42L424.69 42L120.809 42L19.2151 42L6.57031 42L0 42L-8.73119e-07 32.0127L0.000180399 11.0394L2.3316 11.0394C6.0664 11.0394 9.74548 12.0381 13.422 12.0381C20.2876 12.0381 27.2524 14.2929 34.0984 15.5337C44.503 17.4194 54.9861 18.0305 65.4192 18.0305L129.144 18.0305C135.678 18.0305 142.228 18.3415 148.761 17.975C156.739 17.5275 164.694 15.4117 172.687 15.0898C191.037 14.3507 209.382 14.6636 227.722 12.8149C252.477 10.3198 277.254 12.3569 302.021 10.9839C327.317 9.58154 352.623 10.2154 377.921 8.98641C414.371 7.21567 450.812 3.74821 487.238 1.10753C492.288 0.74139 497.759 -0.56136 502.78 0.275252C506.581 0.90848 510.416 1.88607 514.225 2.05077C521.415 2.3616 528.579 3.0495 535.773 3.0495C541.73 3.0495 547.78 2.32172 553.718 3.54886C564.544 5.78632 575.342 9.57033 586.193 10.8174Z" fill="white"/>
</g>
<defs>
<clipPath id="clip0_17_818">
<rect width="621" height="42" fill="white"/>
</clipPath>
</defs>
</svg>
