<svg width="554" height="42" viewBox="0 0 554 42" fill="none" xmlns="http://www.w3.org/2000/svg">
<g clip-path="url(#clip0_30_30)">
<rect width="554" height="42" fill="#F1EAEA"/>
<path fill-rule="evenodd" clip-rule="evenodd" d="M395.417 26.7872C391.401 26.5298 387.821 26.3002 383.948 26.7279C377.933 27.3922 371.935 28.8962 365.939 30.4C362.286 31.3161 358.633 32.2321 354.977 32.9581C351.115 33.7251 347.199 33.6011 343.301 33.4777C341.853 33.4319 340.408 33.3861 338.968 33.3861C334.825 33.3861 330.693 33.6319 326.559 33.8777C324.289 34.0127 322.019 34.1477 319.745 34.2422C317.349 34.3417 314.941 34.7877 312.541 35.2323C311.538 35.4183 310.535 35.604 309.535 35.764C306.39 36.2675 303.048 35.8671 299.776 35.4753C298.388 35.309 297.012 35.1442 295.669 35.0507C285.037 34.3101 274.403 33.4936 263.767 32.677C241.899 30.998 220.025 29.3185 198.147 28.2973C187.364 27.7941 176.58 27.6552 165.796 27.5164C154.008 27.3647 142.221 27.213 130.436 26.5852C120.949 26.0799 111.461 26.1135 101.973 26.147C89.3633 26.1916 76.755 26.2362 64.1534 25.0158C53.1469 23.9499 42.1389 23.7223 31.1289 23.4947C25.7717 23.384 20.414 23.2732 15.0558 23.0659C11.3589 22.9228 7.67123 22.3665 3.98506 21.8105C0.56105 21.2939 -2.86162 20.7776 -6.28906 20.5929C-10.2836 20.3776 -14.2857 20.4351 -18.2855 20.4926C-20.1209 20.5189 -21.9558 20.5453 -23.7893 20.5453H-80.6389C-89.9464 20.5453 -99.2984 21.0691 -108.581 22.6854C-110.453 23.0115 -112.336 23.4194 -114.223 23.8281C-118.49 24.7525 -122.779 25.6816 -127.026 25.6816C-128.66 25.6816 -130.294 25.894 -131.934 26.1071C-133.588 26.322 -135.247 26.5377 -136.92 26.5377H-139L-139 8.56055V6.53117e-06L-133.139 7.90884e-06L-121.858 6.53117e-06H-31.2253L239.87 2.95944e-06H288.632L338.968 0L400.063 2.95944e-06H415L418.861 7.90884e-06L430.142 6.53117e-06H520.775L791.87 2.95944e-06H840.632L890.968 0L952.063 2.95944e-06H967V6.84843V15.837V23.1135L967 24.3975V26.5377C958.648 27.5073 952.661 27.1234 947.417 26.7872C943.401 26.5298 939.821 26.3002 935.948 26.7279C929.933 27.3922 923.935 28.8962 917.939 30.4C914.286 31.3161 910.633 32.2321 906.977 32.9581C903.115 33.7251 899.199 33.6011 895.301 33.4777C893.853 33.4319 892.408 33.3861 890.968 33.3861C886.825 33.3861 882.693 33.6319 878.559 33.8777C876.289 34.0127 874.019 34.1477 871.745 34.2422C869.349 34.3417 866.942 34.7877 864.541 35.2323C863.538 35.4183 862.535 35.604 861.535 35.764C858.39 36.2675 855.048 35.8671 851.776 35.4753C850.388 35.309 849.012 35.1442 847.669 35.0507C837.037 34.3101 826.403 33.4936 815.767 32.677C793.899 30.998 772.025 29.3185 750.147 28.2973C739.364 27.7941 728.58 27.6552 717.796 27.5164C706.008 27.3647 694.221 27.213 682.436 26.5852C672.949 26.0799 663.461 26.1135 653.973 26.147C641.363 26.1916 628.755 26.2362 616.153 25.0158C605.147 23.9499 594.139 23.7223 583.129 23.4947C577.772 23.384 572.414 23.2732 567.056 23.0659C563.359 22.9228 559.671 22.3665 555.985 21.8105C552.561 21.2939 549.138 20.7776 545.711 20.5929C541.716 20.3776 537.714 20.4351 533.714 20.4926C531.879 20.5189 530.044 20.5453 528.211 20.5453H471.361C462.054 20.5453 452.702 21.0691 443.419 22.6854C441.547 23.0115 439.664 23.4194 437.777 23.8281C433.51 24.7525 429.221 25.6816 424.974 25.6816C423.34 25.6816 421.706 25.894 420.066 26.1071C418.412 26.322 416.753 26.5377 415.08 26.5377H415C406.648 27.5073 400.661 27.1234 395.417 26.7872Z" fill="white"/>
</g>
<defs>
<clipPath id="clip0_30_30">
<rect width="554" height="42" fill="white"/>
</clipPath>
</defs>
</svg>
