<svg width="554" height="42" viewBox="0 0 554 42" fill="none" xmlns="http://www.w3.org/2000/svg">
<g clip-path="url(#clip0_17_816)">
<rect width="554" height="42" fill="#F1EAEA"/>
<path d="M31.052 31.1826C22.122 30.0321 14.7481 32.9581 6.45071e-05 30.9606L6.70316e-05 28.4638L5.3147e-05 26.9657L1.18539e-05 18.4765L4.89997e-05 7.98984L1.18539e-05 3.45268e-06H14.9372L76.0316 0L126.368 3.45268e-06H175.13L446.225 7.6197e-06H536.858L548.139 9.22698e-06L554 7.6197e-06V9.9873L554 30.9606H551.92C548.588 30.9606 545.306 29.9619 542.026 29.9619C535.901 29.9619 529.688 27.7071 523.581 26.4663C514.298 24.5806 504.946 23.9695 495.639 23.9695H438.789C432.96 23.9695 427.117 23.6586 421.289 24.025C414.172 24.4726 407.075 26.5883 399.944 26.9102C383.574 27.6493 367.209 27.3364 350.847 29.1851C328.763 31.6802 306.659 29.6431 284.564 31.0161C261.998 32.4184 239.422 31.7846 216.853 33.0136C184.335 34.7843 151.826 38.2518 119.331 40.8924C114.825 41.2586 109.945 42.5613 105.465 41.7247C102.074 41.0915 98.6534 40.1139 95.2546 39.9492C88.8406 39.6384 82.4501 38.9505 76.0316 38.9505C70.7176 38.9505 65.3199 39.6782 60.023 38.4511C50.3651 36.2136 40.7318 32.4296 31.052 31.1826Z" fill="white"/>
</g>
<defs>
<clipPath id="clip0_17_816">
<rect width="554" height="42" fill="white"/>
</clipPath>
</defs>
</svg>
