<svg fill="none" viewBox="0 0 180 85" width="100" xmlns="http://www.w3.org/2000/svg" xmlns:xlink="http://www.w3.org/1999/xlink"><g><path clip-rule="evenodd" d="m72.3932 9.16754c-1.8768 10.76966-7.0605 14.68586-13.4061 15.39786v3.1152h7.9543v27.3246c0 7.6545 5.0943 11.3927 11.8868 11.3927 5.2731 0 10.7249-2.2251 12.6018-6.8534l-1.8769-2.4031c-.8937 1.5131-3.7537 3.7382-7.3287 3.7382-3.9324 0-6.0774-2.6702-6.0774-9.4346v-24.1204l13.2274.9791.715-6.0524-13.9424.534v-13.61776zm28.1528 42.01046-3.3961.089c.4469 4.2723.5363 8.5445 0 12.4607 0 0 6.7921 2.4922 13.6741 2.4922 9.295 0 16.713-4.4503 16.713-13.0838 0-15.1309-22.522-12.7277-22.522-22.8743 0-4.1833 3.843-5.7854 7.775-5.7854 3.307 0 5.989 1.1571 6.525 2.8482l2.234 6.6754 3.307-.178c.179-3.5602.447-7.6545.983-10.9477-2.86-1.246-8.848-1.9581-12.602-1.9581-8.758 0-15.8189 3.8273-15.8189 12.3718 0 14.9528 21.9859 11.6596 21.9859 22.8743 0 3.7382-2.413 6.5864-7.775 6.5864-5.095 0-7.597-2.5812-8.58-5.1623zm36.554 28.7487c-2.681 0-3.485-1.2461-3.843-3.0262l-1.34-6.9424-3.754.178c-.536 4.0943-1.341 8.7225-2.413 12.3718 2.502 1.6911 5.541 2.4921 9.652 2.4921 6.078 0 15.194-1.6911 23.416-21.0052l14.3-33.733c1.162-2.6702 1.52-3.0262 5.005-4.3613l1.877-.712v-3.1152l-8.491.445-9.026-.445v3.1152l2.323.712c2.324.7121 3.397 1.5131 3.397 3.3822 0 .9791-.269 1.4241-.805 2.6702-.983 2.4921-7.328 18.068-10.457 24.8324-3.932-9.7905-9.295-24.3874-9.92-26.5235-.179-.5341-.268-.9791-.268-1.4241 0-1.4241.983-2.5812 3.128-3.0262l2.949-.623v-3.1152l-12.244.445-9.742-.445v3.1152l1.609.534c2.324.8011 2.592 1.0681 4.111 4.4503 6.167 13.8848 13.049 31.5968 15.283 37.3822-4.826 9.7015-10.546 12.3717-14.747 12.3717zm-117.7951-73.25131c0-.89005.0893-1.42408 1.6087-1.42408h20.4667c3.575 0 5.5412 3.02618 6.9712 8.72249l1.1619 4.5393h3.4856c.6256-12.90577 1.1619-18.5131 1.1619-18.5131s-8.7587.979058-13.9424.979058h-26.1867l-14.0318-.445027v3.738219l4.73684.89005c3.30685.62304 4.11122 1.33508 4.37935 4.36126 0 0 .26812 8.90054.26812 23.58634 0 14.6859-.26812 23.4974-.26812 23.4974 0 2.6702-1.0725 3.6492-4.37935 4.2723l-4.73684.89v3.7383l14.0318-.4451h23.4161c5.2731 0 17.5173.4451 17.5173.4451.2682-3.2042 2.0557-17.7121 2.3238-19.3142h-3.3069l-3.4856 7.9215c-2.7706 6.2304-6.7924 6.6754-11.2611 6.6754h-13.3168c-4.4687 0-6.6137-1.7801-6.6137-5.6074v-20.2931s9.9205 0 13.138.267c2.5025.178 4.0218.89 4.8262 4.3612l1.0725 4.6283h3.8431l-.2681-11.6597.5362-11.7487h-3.8431l-1.2512 5.1623c-.8044 3.3822-1.3406 4.0053-4.8262 4.3613-4.5581.445-13.2274.356-13.2274.356z" fill="#000" fill-rule="evenodd"/></g></svg>
