<svg width="576" height="72" viewBox="0 0 576 72" fill="none" xmlns="http://www.w3.org/2000/svg">
<g clip-path="url(#clip0_102_2)">
<path fill-rule="evenodd" clip-rule="evenodd" d="M62.3297 17.8529L61.345 18.3433C58.6536 15.0082 56.0935 12.1635 53.6646 9.80926C51.2357 7.45503 48.8725 5.72208 46.575 4.61035C45.459 4.08719 43.4404 3.64578 40.5192 3.2861C37.598 2.92643 34.2009 2.74659 30.3279 2.74659C29.6714 2.74659 28.9165 2.76294 28.0631 2.79564C27.2098 2.82834 26.3892 2.86104 25.6015 2.89373C24.8137 2.92643 24.0752 2.95913 23.3859 2.99183C22.6967 3.02452 22.1879 3.04087 21.8597 3.04087C21.7941 3.43324 21.712 3.82561 21.6135 4.21798C21.5151 4.61036 21.433 5.06812 21.3674 5.59128C21.3017 6.11444 21.2361 6.78474 21.1704 7.60218C21.1048 8.41962 21.0391 9.41689 20.9735 10.594C20.9079 12.8828 20.8586 15.3842 20.8258 18.0981C20.793 20.812 20.7766 23.3787 20.7766 25.7984V35.1172H22.549C23.5993 35.1172 24.7645 35.0845 26.0446 35.0191C27.3246 34.9537 28.6539 34.8719 30.0325 34.7738C31.411 34.6758 32.5598 34.5286 33.4788 34.3324C35.8421 33.8093 37.7129 33.1226 39.0915 32.2725C40.47 31.4223 41.5531 30.4087 42.3409 29.2316C43.1286 28.0545 43.6866 26.7629 44.0148 25.3569C44.343 23.9509 44.6384 22.4305 44.901 20.7956H46.0826V52.3815H44.901C44.3759 50.2888 43.621 48.0818 42.6363 45.7602C41.6516 43.4387 40.47 41.6567 39.0915 40.4142C37.8442 39.3024 36.5149 38.4687 35.1035 37.9128C33.6922 37.3569 32.0347 37.0136 30.1309 36.8828C29.1463 36.8174 28.2929 36.7684 27.5708 36.7357C26.8487 36.703 26.1594 36.6866 25.503 36.6866H20.7766V48.8501C20.7766 50.6812 20.793 52.3651 20.8258 53.9019C20.8586 55.4387 20.875 56.7629 20.875 57.8747C20.9407 59.9673 21.0556 61.9455 21.2197 63.8093C21.3838 65.673 21.7612 67.0627 22.352 67.9782C22.9428 68.8937 23.9439 69.5967 25.3553 70.0872C26.7667 70.5777 28.818 70.8883 31.5095 71.0191V72H0V71.0191C1.64113 70.7575 3.16735 70.3324 4.57872 69.7439C5.99009 69.1553 7.15527 68.3379 8.07431 67.2915C8.40253 66.8992 8.66511 66.327 8.86204 65.5749C9.05898 64.8229 9.2395 63.9564 9.40361 62.9755C9.56773 61.9945 9.6826 60.9646 9.74825 59.8856C9.81389 58.8065 9.84672 57.7439 9.84672 56.6975C9.84672 55.782 9.86313 54.5395 9.89595 52.97C9.92877 51.4005 9.96159 49.6839 9.99442 47.8202C10.0272 45.9564 10.0436 44.0436 10.0436 42.0817V17.2643C10.0436 16.0872 10.0272 14.8774 9.99442 13.6349C9.96159 12.3924 9.89595 11.2153 9.79748 10.1035C9.69901 8.99182 9.5349 7.99455 9.30515 7.11172C9.07539 6.22888 8.76358 5.59128 8.36971 5.19891C7.38503 4.15258 6.33473 3.48229 5.21876 3.18801C4.10279 2.89373 2.65862 2.61581 0.886204 2.35422V1.3733H55.6339L62.3297 17.8529ZM169.921 72V71.0191C170.118 71.0191 170.594 70.9537 171.349 70.8229C172.104 70.6921 172.892 70.4632 173.712 70.1362C174.533 69.8093 175.255 69.3515 175.879 68.7629C176.502 68.1744 176.814 67.4223 176.814 66.5068C176.814 65.9183 176.634 64.9537 176.273 63.6131C175.912 62.2725 175.403 60.6376 174.746 58.7085C174.09 56.7793 173.335 54.6376 172.482 52.2834C171.628 49.9291 170.709 47.4769 169.725 44.9264H143.532C142.548 47.4115 141.596 49.782 140.677 52.0381C139.758 54.2943 138.839 56.5667 137.92 58.8556C136.541 62.3869 135.852 64.8719 135.852 66.3106C135.852 67.1608 136.114 67.8638 136.64 68.4196C137.165 68.9755 137.838 69.4332 138.658 69.7929C139.479 70.1526 140.365 70.4142 141.317 70.5777C142.269 70.7411 143.171 70.8883 144.025 71.0191V72H123.051V70.921C124.758 70.7248 126.218 70.267 127.433 69.5477C128.647 68.8283 129.353 68.3379 129.55 68.0763C130.009 67.6185 130.764 66.5395 131.815 64.8392C132.865 63.139 134.145 60.6213 135.655 57.2861C137.033 54.2125 138.576 50.7139 140.283 46.7902C141.99 42.8665 143.746 38.8284 145.551 34.6757C147.356 30.5231 149.145 26.3379 150.917 22.1199C152.69 17.9019 154.364 13.9619 155.939 10.2997L154.954 8.14169C156.136 7.61853 157.203 6.99728 158.155 6.27793C159.107 5.55858 159.943 4.80654 160.666 4.0218C161.388 3.23705 161.995 2.48502 162.487 1.76567C162.98 1.04632 163.357 0.457768 163.62 0H164.407C166.442 5.42782 168.379 10.5776 170.217 15.4496C172.055 20.3216 173.811 25.0136 175.485 29.5259C177.159 34.0382 178.784 38.4032 180.359 42.6213C181.934 46.8393 183.51 51.0082 185.085 55.1281C185.808 57.1553 186.48 58.8392 187.104 60.1798C187.728 61.5204 188.433 63.0409 189.221 64.7411C189.352 65.0027 189.648 65.4605 190.107 66.1144C190.567 66.7684 191.174 67.4387 191.929 68.1253C192.684 68.812 193.619 69.4169 194.735 69.9401C195.851 70.4632 197.164 70.7575 198.674 70.8229V72H169.921ZM157.022 12.5559C156.628 13.406 156.054 14.7466 155.299 16.5777C154.544 18.4087 153.609 20.6321 152.493 23.248C151.377 25.8638 150.146 28.8229 148.8 32.1253C147.455 35.4278 145.994 39.0082 144.418 42.8665H168.937C167.821 39.9237 166.688 36.9809 165.54 34.0381C164.391 31.0954 163.275 28.267 162.192 25.5531C161.109 22.8392 160.124 20.3542 159.238 18.0981C158.352 15.8419 157.613 13.9946 157.022 12.5559ZM295.533 72H265.697V71.0191C267.338 70.7575 268.865 70.3324 270.276 69.7439C271.687 69.1553 272.885 68.3052 273.87 67.1935C274.198 66.8011 274.444 66.2452 274.608 65.5259C274.773 64.8065 274.904 63.9564 275.002 62.9755C275.101 61.9945 275.166 60.9646 275.199 59.8856C275.232 58.8065 275.249 57.7439 275.249 56.6975C275.249 55.782 275.265 54.5395 275.298 52.97C275.331 51.4005 275.363 49.6839 275.396 47.8202C275.429 45.9564 275.445 44.0436 275.445 42.0817V13.733C275.445 12.5559 275.396 11.4605 275.298 10.4469C275.199 9.43324 275.052 8.51772 274.855 7.70027C274.658 6.88283 274.362 6.24523 273.968 5.78747C273.049 4.67574 271.917 3.87466 270.571 3.3842C269.226 2.89373 267.699 2.55041 265.993 2.35422V1.3733H295.434V2.35422C294.056 2.55041 292.579 2.91008 291.003 3.43324C289.428 3.95641 288.213 5.00272 287.36 6.57221C286.769 7.68393 286.457 9.08991 286.425 10.7902C286.392 12.4905 286.342 14.0926 286.277 15.5967C286.277 17.2316 286.26 18.8501 286.228 20.4523C286.195 22.0545 286.178 23.673 286.178 25.3079V58.1689C286.178 60.0654 286.211 61.8964 286.277 63.6621C286.342 65.4278 286.638 66.6703 287.163 67.3896C287.951 68.5014 289.198 69.3515 290.905 69.9401C292.612 70.5286 294.154 70.8883 295.533 71.0191V72ZM444.579 72H424.393C423.803 71.4114 423.376 70.97 423.113 70.6758C422.851 70.3815 422.555 70.0381 422.227 69.6458C421.899 69.2534 421.489 68.6812 420.996 67.9292C420.504 67.1771 419.733 66.0491 418.682 64.545C417.435 62.7139 416.336 61.0627 415.384 59.5913C414.432 58.1199 413.464 56.6649 412.479 55.2262C411.494 53.7875 410.427 52.3324 409.279 50.861C408.13 49.3896 406.768 47.7384 405.192 45.9074C403.879 44.4033 402.452 42.9973 400.909 41.6894C399.366 40.3815 397.742 39.564 396.035 39.2371C394.788 38.9755 393.836 38.8447 393.179 38.8447C392.589 38.8447 391.834 38.812 390.915 38.7466V49.8311C390.915 52.97 390.947 55.6185 391.013 57.7766C391.079 59.8692 391.144 61.6676 391.21 63.1717C391.276 64.6758 391.637 65.9183 392.293 66.8992C392.818 67.7493 393.836 68.6158 395.346 69.4986C396.855 70.3815 398.956 70.8883 401.647 71.0191V72H370.138V71.0191C371.779 70.7575 373.355 70.3651 374.864 69.842C376.374 69.3188 377.556 68.5341 378.409 67.4877C378.737 67.0954 379 66.5068 379.197 65.7221C379.394 64.9373 379.542 64.0545 379.64 63.0736C379.739 62.0926 379.821 61.0463 379.886 59.9346C379.952 58.8229 379.985 57.7439 379.985 56.6975C379.985 55.782 380.001 54.5395 380.034 52.97C380.067 51.4005 380.1 49.6839 380.132 47.8202C380.165 45.9564 380.182 44.0436 380.182 42.0817V17.2643C380.182 16.0872 380.165 14.8937 380.132 13.6839C380.1 12.4741 380.034 11.3297 379.935 10.2507C379.837 9.17166 379.673 8.19074 379.443 7.3079C379.213 6.42506 378.902 5.78747 378.508 5.3951C377.523 4.34877 376.423 3.64578 375.209 3.2861C373.995 2.92643 372.501 2.61581 370.729 2.35422V1.3733H374.766C376.998 1.3733 379.525 1.35695 382.348 1.32425C385.171 1.29155 387.993 1.2752 390.816 1.2752H397.709C402.107 1.2752 406.013 1.40599 409.426 1.66757C412.84 1.92916 415.958 2.81198 418.781 4.31608C421.669 5.82017 424 7.86375 425.772 10.4469C427.544 13.03 428.431 16.2834 428.431 20.2071C428.431 22.6267 427.987 24.8011 427.101 26.7302C426.215 28.6594 425.033 30.3597 423.556 31.8311C422.079 33.3025 420.356 34.5613 418.387 35.6076C416.418 36.654 414.35 37.5368 412.183 38.2561V38.5504C413.299 39.139 414.383 39.9891 415.433 41.1008C416.483 42.2125 417.501 43.455 418.485 44.8283C420.192 47.3134 422.047 49.9945 424.049 52.8719C426.051 55.7493 427.84 58.2997 429.415 60.5232C431.844 63.9237 434.207 66.4087 436.505 67.9782C438.802 69.5477 441.494 70.5613 444.579 71.0191V72ZM417.107 19.6185C417.107 16.3488 416.286 13.4387 414.645 10.8883C413.004 8.33786 410.608 6.31063 407.457 4.80654C405.882 4.08719 404.224 3.56403 402.484 3.23706C400.745 2.91008 398.923 2.74659 397.02 2.74659C395.641 2.74659 394.525 2.77929 393.672 2.84469C392.818 2.91008 392.162 2.97548 391.702 3.04087C391.637 3.43324 391.571 3.77657 391.505 4.07084C391.44 4.36512 391.391 4.74114 391.358 5.19891C391.325 5.65668 391.292 6.29427 391.259 7.11172C391.226 7.92916 391.177 9.08991 391.112 10.594C391.046 12.8828 390.997 15.4659 390.964 18.3433C390.931 21.2207 390.915 24 390.915 26.6812V37.4714C393.606 37.4714 396.117 37.3569 398.447 37.1281C400.778 36.8992 403.026 36.4251 405.192 35.7057C407.293 35.0518 409.098 34.1689 410.608 33.0572C412.118 31.9455 413.349 30.6867 414.301 29.2807C415.252 27.8747 415.958 26.3542 416.418 24.7193C416.877 23.0845 417.107 21.3842 417.107 19.6185ZM576 53.2643L571.077 72H510.815V71.0191C512.456 70.7575 513.982 70.3324 515.393 69.7439C516.805 69.1553 517.97 68.3379 518.889 67.2915C519.217 66.8992 519.48 66.327 519.677 65.5749C519.874 64.8229 520.054 63.9564 520.218 62.9755C520.382 61.9945 520.497 60.9646 520.563 59.8856C520.629 58.8065 520.661 57.7439 520.661 56.6975C520.661 55.782 520.678 54.5395 520.711 52.97C520.744 51.4005 520.776 49.6839 520.809 47.8202C520.842 45.9564 520.858 44.0436 520.858 42.0817C520.858 40.0545 520.858 38.158 520.858 36.3924V17.2643C520.858 16.0872 520.842 14.8774 520.809 13.6349C520.776 12.3924 520.711 11.2153 520.612 10.1035C520.514 8.99182 520.35 7.99455 520.12 7.11172C519.89 6.22888 519.578 5.59128 519.184 5.19891C518.2 4.15258 517.149 3.48229 516.034 3.18801C514.918 2.89373 513.473 2.61581 511.701 2.35422V1.3733H566.055L572.751 17.5586L571.766 18.049C566.449 11.4441 561.46 6.99729 556.799 4.70845C555.683 4.18528 553.615 3.72752 550.595 3.33515C547.576 2.94278 543.9 2.74659 539.567 2.74659C538.189 2.74659 536.761 2.79564 535.284 2.89373C533.807 2.99183 532.74 3.10627 532.084 3.23706C531.952 4.28338 531.837 6.4414 531.739 9.71117C531.641 12.9809 531.591 16.7738 531.591 21.0899C531.591 23.5749 531.591 25.6676 531.591 27.3678C531.591 29.0681 531.608 30.4578 531.641 31.5368C531.673 32.6158 531.69 33.4496 531.69 34.0381C531.69 34.5613 531.69 34.921 531.69 35.1172C532.018 35.1172 532.674 35.1172 533.659 35.1172C534.644 35.1172 535.776 35.0845 537.056 35.0191C538.336 34.9537 539.616 34.8719 540.896 34.7738C542.177 34.6758 543.243 34.5286 544.097 34.3324C546.066 33.8747 547.707 33.2534 549.02 32.4687C550.333 31.6839 551.4 30.7357 552.22 29.624C553.041 28.5123 553.697 27.2207 554.19 25.7493C554.682 24.2779 555.125 22.6267 555.519 20.7956H556.7V51.6948H555.519C554.994 49.6022 554.19 47.4442 553.106 45.2207C552.023 42.9973 550.891 41.3297 549.709 40.218C548.659 39.3024 547.395 38.5504 545.918 37.9619C544.441 37.3733 542.718 37.0136 540.749 36.8828C539.764 36.8174 538.944 36.7684 538.287 36.7357C537.631 36.703 536.974 36.6866 536.318 36.6866C535.727 36.6866 535.07 36.6866 534.348 36.6866C533.692 36.6866 532.839 36.6866 531.788 36.6866C531.657 37.6022 531.591 38.9428 531.591 40.7085C531.591 42.4741 531.591 44.3052 531.591 46.2016C531.591 47.0518 531.591 48.0327 531.591 49.1444C531.591 50.2561 531.591 51.3678 531.591 52.4796C531.591 53.5259 531.608 54.5232 531.641 55.4714C531.673 56.4196 531.69 57.2207 531.69 57.8747C531.755 59.9673 531.87 61.9455 532.034 63.8093C532.199 65.673 532.576 67.0627 533.167 67.9782C533.758 68.8937 535.169 69.5477 537.401 69.9401C539.633 70.3324 542.062 70.5286 544.687 70.5286C545.803 70.5286 547.231 70.4959 548.971 70.4305C550.71 70.3651 552.532 70.2016 554.436 69.9401C556.536 69.6785 558.473 69.1717 560.245 68.4196C562.018 67.6676 563.724 66.6049 565.366 65.2316C567.007 63.8583 568.599 62.1744 570.141 60.1798C571.684 58.1853 573.276 55.782 574.917 52.97L576 53.2643Z" fill="black"/>
</g>
<defs>
<clipPath id="clip0_102_2">
<rect width="576" height="72" fill="white"/>
</clipPath>
</defs>
</svg>
