<svg fill="none" viewBox="0 0 499 53" width="200" xmlns="http://www.w3.org/2000/svg"><g fill="#000"><path d="m454 13.9133v27.2134c0 6.5 5.233 11.8733 11.599 11.8733 5.232 0 9.331-3.2067 10.814-7.8l1.221 2.1667c2.18 3.64 6.017 5.6333 9.942 5.6333 6.366 0 11.424-5.0267 11.424-11.44 0-2.1667-.523-4.2467-1.744-6.1533l-4.535-7.1934c3.314-2.5133 5.32-6.5 5.32-11.3533 0-8.92667-7.151-15.86-16.308-15.86h-15.088c-8.197 0-12.645 4.42-12.645 12.9133"/><path d="m450 43.036c0-4.9814-3.207-8.7393-7.628-9.6133 1.994-1.3109 3.207-3.4957 3.207-6.3796 0-2.884-1.127-5.0688-3.207-6.3797 4.508-.8739 7.628-4.5444 7.628-9.6132 0-5.59317-4.507-10.0502-9.968-10.0502h-18.203c-8.322 0-12.829 4.45703-12.829 12.9341v26.1305c0 8.5645 4.507 12.9341 12.829 12.9341h18.203c5.461.0874 9.968-4.3696 9.968-9.9627z"/><path d="m395.411 41.3v-17.94c5.815-.26 10.589-5.1133 10.589-11.18 0-6.24-5.034-11.18-11.196-11.18h-23.608c-6.162 0-11.196 4.85333-11.196 11.18 0 6.0667 4.774 10.8333 10.589 11.18v17.94c0 6.4133 5.468 11.7 12.237 11.7 7.204 0 12.585-5.2867 12.585-11.7"/><path d="m314 13.9133v27.2134c0 6.5 5.233 11.8733 11.599 11.8733 5.232 0 9.331-3.2067 10.814-7.8l1.221 2.1667c2.18 3.64 6.017 5.6333 9.942 5.6333 6.366 0 11.424-5.0267 11.424-11.44 0-2.1667-.523-4.2467-1.744-6.1533l-4.535-7.1934c3.314-2.5133 5.32-6.5 5.32-11.3533 0-8.92667-7.151-15.86-16.308-15.86h-15.088c-8.11 0-12.645 4.42-12.645 12.9133"/><path d="m284.931 42.9603c2.941 6.1125 7.093 9.0397 12.197 9.0397 9.169 0 15.656-8.351 11.677-17.7351l-10.639-24.7947c-2.595-6.11258-6.488-9.4702-13.149-9.4702-6.574 0-10.467 3.35762-13.148 9.4702l-10.64 24.7947c-4.065 9.3841 2.509 17.7351 11.591 17.7351 5.018 0 9.17-2.9272 12.111-9.0397z"/><path d="m254.391 41.3v-17.94c5.826-.26 10.609-5.1133 10.609-11.18 0-6.24-5.043-11.18-11.217-11.18h-23.566c-6.174 0-11.217 4.85333-11.217 11.18 0 6.0667 4.783 10.8333 10.609 11.18v17.94c0 6.4133 5.478 11.7 12.261 11.7 7.043 0 12.521-5.2867 12.521-11.7"/><path d="m220 36.0888c0-5.2302-2.63-8.8914-6.576-12.3783l-3.244-2.8766c4.734-.6974 7.891-3.8355 7.891-8.4556 0-7.75823-6.225-12.3783-19.378-12.3783-12.889 0-20.43 6.45066-20.43 16.6497 0 5.2302 2.718 8.8042 6.664 12.3783l3.157 2.8766h-.088c-5.875 0-9.996 3.3997-9.996 8.7171 0 7.6711 6.489 12.3783 20.342 12.3783 13.591 0 21.658-6.5378 21.658-16.9112z"/><path d="m175 40.3574c0-2.4145-.703-4.7428-2.196-6.8125l-5.623-7.6748 5.623-7.6748c1.493-1.9833 2.196-4.3979 2.196-6.8124 0-6.38134-5.359-11.2966662-11.684-11.2966662-3.69 0-7.38 1.8109062-9.664 4.9153262l-2.723 3.79429c-1.054-5.0878-5.535-8.79585-11.245-8.79585-6.589 0-11.684 5.17403-11.684 11.5553v28.8883c0 6.3813 5.183 11.5554 11.684 11.5554 5.623 0 10.015-3.4494 11.157-8.4509l2.46 3.4493c2.284 3.2769 6.062 5.0016 9.751 5.0016 6.589.0862 11.948-5.2603 11.948-11.6416"/><path d="m124 37.7086c0-5.5099-2.745-9.3841-8.234-11.7086 5.489-2.3245 8.234-6.1126 8.234-11.7086 0-8.351-6.947-14.2914-18.097-14.2914-14.9244 0-25.903 11.106-25.903 26s10.9786 26 25.903 26c11.15 0 18.097-5.9404 18.097-14.2914z"/><path d="m62.543 0c-6.9683 0-12.543 5.701-12.543 12.4385v27.123c0 6.8239 5.5747 12.4385 12.4559 12.4385 7.0555 0 12.5431-5.701 12.5431-12.4385v-27.123c.0871-6.7375-5.4876-12.4385-12.456-12.4385"/><path d="m47 40.3574c0-2.4145-.7015-4.7428-2.1922-6.8125l-5.6119-7.6748 5.6119-7.6748c1.4907-1.9833 2.1922-4.3979 2.1922-6.8124 0-6.38134-5.3489-11.2966662-11.6623-11.2966662-3.6828 0-7.3657 1.8109062-9.6455 4.9153262l-2.806 3.79429c-1.0522-5.0878-5.5243-8.79585-11.2239-8.79585-6.57648 0-11.6623 5.17403-11.6623 11.5553v28.8883c0 6.3813 5.17351 11.5554 11.6623 11.5554 5.612 0 9.9963-3.4494 11.1362-8.4509l2.4552 3.4493c2.2799 3.2769 6.0504 5.0016 9.7332 5.0016 6.6642.0862 12.0131-5.2603 12.0131-11.6416"/></g></svg>
