<svg height="127" viewBox="0 0 593 127" width="593" xmlns="http://www.w3.org/2000/svg"><g transform="translate(47 37)"><path d="m454 13.9133333v27.2133334c0 6.5 5.232558 11.8733333 11.598837 11.8733333 5.232558 0 9.331396-3.2066667 10.813954-7.8l1.22093 2.1666667c2.180232 3.64 6.017442 5.6333333 9.941861 5.6333333 6.366279 0 11.424418-5.0266667 11.424418-11.44 0-2.1666667-.523256-4.2466667-1.744186-6.1533333l-4.534884-7.1933334c3.313953-2.5133333 5.319768-6.5 5.319768-11.3533333 0-8.92666667-7.151163-15.86-16.30814-15.86h-15.087209c-8.197674 0-12.645349 4.42-12.645349 12.9133333"/><path d="m450 43.0359533c0-4.9813915-3.207188-8.7392834-7.627907-9.6132117 1.993657-1.3108925 3.207188-3.4957134 3.207188-6.3796769s-1.12685-5.0687844-3.207188-6.379677c4.5074-.8739283 7.627907-4.5444273 7.627907-9.6132117 0-5.59314144-4.5074-10.050176-9.968287-10.050176h-18.20296c-8.321353 0-12.828753 4.45703456-12.828753 12.9341395v26.1304575c0 8.5644978 4.5074 12.9341395 12.828753 12.9341395h18.20296c5.460887.0873928 9.968287-4.3696417 9.968287-9.9627832"/><path d="m395.411321 41.3v-17.94c5.815094-.26 10.588679-5.1133333 10.588679-11.18 0-6.24-5.033962-11.18-11.196226-11.18h-23.607548c-6.162264 0-11.196226 4.85333333-11.196226 11.18 0 6.0666667 4.773585 10.8333333 10.588679 11.18v17.94c0 6.4133333 5.467925 11.7 12.237736 11.7 7.203774 0 12.584906-5.2866667 12.584906-11.7"/><path d="m314 13.9133333v27.2133334c0 6.5 5.232558 11.8733333 11.598837 11.8733333 5.232558 0 9.331396-3.2066667 10.813954-7.8l1.22093 2.1666667c2.180232 3.64 6.017442 5.6333333 9.941861 5.6333333 6.366279 0 11.424418-5.0266667 11.424418-11.44 0-2.1666667-.523256-4.2466667-1.744186-6.1533333l-4.534884-7.1933334c3.313953-2.5133333 5.319768-6.5 5.319768-11.3533333 0-8.92666667-7.151163-15.86-16.30814-15.86h-15.087209c-8.110465 0-12.645349 4.42-12.645349 12.9133333"/><path d="m284.930757 42.9602649c2.941075 6.1125828 7.09318 9.0397351 12.196808 9.0397351 9.169232 0 15.656897-8.3509934 11.677796-17.7350994l-10.639769-24.79470194c-2.595065-6.11258276-6.487664-9.47019866-13.148333-9.47019866-6.574166 0-10.466764 3.3576159-13.148332 9.47019866l-10.639769 24.79470194c-4.065603 9.384106 2.508563 17.7350994 11.591293 17.7350994 5.017126 0 9.169232-2.9271523 12.110306-9.0397351"/><path d="m254.391305 41.3v-17.94c5.826086-.26 10.608695-5.1133333 10.608695-11.18 0-6.24-5.043478-11.18-11.217392-11.18h-23.565216c-6.173914 0-11.217392 4.85333333-11.217392 11.18 0 6.0666667 4.782609 10.8333333 10.608695 11.18v17.94c0 6.4133333 5.478262 11.7 12.26087 11.7 7.043478 0 12.52174-5.2866667 12.52174-11.7"/><path d="m220 36.0888158c0-5.2302631-2.63048-8.8914474-6.576201-12.3782895l-3.244258-2.8766447c4.734864-.6973685 7.89144-3.8355264 7.89144-8.4555921 0-7.75822371-6.225469-12.3782895-19.377871-12.3782895-12.889353 0-20.430062 6.4506579-20.430062 16.649671 0 5.2302632 2.718163 8.8042763 6.663883 12.3782895l3.156576 2.8766447h-.087682c-5.87474 0-9.995825 3.3996711-9.995825 8.7171053 0 7.6710526 6.488518 12.3782895 20.34238 12.3782895 13.590814 0 21.65762-6.537829 21.65762-16.9111842"/><path d="m175 40.3574105c0-2.414546-.702804-4.7428581-2.196261-6.8124688l-5.622431-7.6748068 5.622431-7.6748067c1.493457-1.9833769 2.196261-4.3979229 2.196261-6.8124688 0-6.38129998-5.358878-11.29662562-11.684112-11.29662562-3.689719 0-7.37944 1.81090945-9.663552 4.91532564l-2.723364 3.79428643c-1.054206-5.08779318-5.534579-8.79584585-11.24486-8.79584585-6.588785 0-11.684112 5.17402699-11.684112 11.5553269v28.8883174c0 6.3812999 5.183177 11.5553269 11.684112 11.5553269 5.62243 0 10.014953-3.4493513 11.15701-8.4509107l2.459813 3.4493513c2.284112 3.2768837 6.061682 5.0015594 9.751401 5.0015594 6.588786.0862338 11.947664-5.2602607 11.947664-11.6415607"/><path d="m124 37.7086093c0-5.5099338-2.74464-9.384106-8.233918-11.7086093 5.489278-2.3245033 8.233918-6.1125828 8.233918-11.7086093 0-8.35099335-6.947369-14.2913907-18.097466-14.2913907-14.9239767 0-25.902534 11.1059602-25.902534 26s10.9785573 26 25.902534 26c11.150097 0 18.097466-5.9403973 18.097466-14.2913907"/><path d="m62.5430488 0c-6.9683604 0-12.5430488 5.70099668-12.5430488 12.4385382v27.1229236c0 6.8239203 5.5746884 12.4385382 12.4559442 12.4385382 7.0554649 0 12.5430488-5.7009967 12.5430488-12.4385382v-27.1229236c.0871045-6.73754152-5.4875839-12.4385382-12.4559442-12.4385382"/><path d="m47 40.3574105c0-2.414546-.7014925-4.7428581-2.1921642-6.8124688l-5.6119403-7.6748068 5.6119403-7.6748067c1.4906717-1.9833769 2.1921642-4.3979229 2.1921642-6.8124688 0-6.38129998-5.3488806-11.29662562-11.6623134-11.29662562-3.6828358 0-7.3656717 1.81090945-9.6455224 4.91532564l-2.8059702 3.79428643c-1.0522388-5.08779318-5.5242537-8.79584585-11.2238806-8.79584585-6.57649251 0-11.6623134 5.17402699-11.6623134 11.5553269v28.8883174c0 6.3812999 5.17350746 11.5553269 11.6623134 11.5553269 5.6119403 0 9.9962687-3.4493513 11.1361941-8.4509107l2.4552239 3.4493513c2.2798507 3.2768837 6.0503731 5.0015594 9.7332089 5.0015594 6.6641791.0862338 12.0130597-5.2602607 12.0130597-11.6415607"/></g></svg>