<svg width="254" height="83" viewBox="0 0 254 83" fill="none" xmlns="http://www.w3.org/2000/svg">
<g clip-path="url(#clip0_115_11)">
<path fill-rule="evenodd" clip-rule="evenodd" d="M112 38L134 0L156 38H112ZM148.711 33.8035L134 8.39305L119.289 33.8035H148.711Z" fill="black"/>
<path fill-rule="evenodd" clip-rule="evenodd" d="M97 38L116 4L135 38H97ZM127.806 33.7077L116 12.5845L104.194 33.7077H127.806Z" fill="black"/>
<path d="M17.9766 83V68.6384L11.5179 78.0368H11.3744L4.98747 68.744V83H0V61H5.45391L11.5179 70.328L17.5461 61H23V83H17.9766Z" fill="black"/>
<path fill-rule="evenodd" clip-rule="evenodd" d="M58 72.0698C58 78.1111 62.7946 83 69.4652 83C76.136 83 81 78.0762 81 72.0001V71.9302C81 65.8889 76.2054 61 69.5347 61C62.8641 61 58 65.9588 58 72.0001V72.0698ZM69.4652 65.3651C73.3217 65.3651 76.0316 68.4031 76.0316 72.0349V72.1398C76.0316 75.7715 73.3564 78.7396 69.5347 78.7396C65.6783 78.7396 62.9682 75.7016 62.9682 72.0698V72.0001C62.9682 68.3334 65.6434 65.3651 69.4652 65.3651Z" fill="black"/>
<path fill-rule="evenodd" clip-rule="evenodd" d="M118 83H126.897C134.052 83 139 78.1854 139 72.0001V71.9297C139 65.7444 134.052 61 126.897 61H118V83ZM126.897 65.393C130.99 65.393 133.767 68.099 133.767 72.0001V72.0351C133.767 75.9362 130.99 78.6071 126.897 78.6071H123.019V65.393H126.897Z" fill="black"/>
<path d="M178 82V61H194.826V65.1328H182.876V69.3664H193.398V73.4992H182.876V77.9007H195V82H178Z" fill="black"/>
<path fill-rule="evenodd" clip-rule="evenodd" d="M246.778 77.3334L248.868 82H254L244.301 61H239.699L230 82H235.097L237.186 77.3334H246.778ZM238.991 73.3L242 66.5334L245.009 73.3H238.991Z" fill="black"/>
</g>
<defs>
<clipPath id="clip0_115_11">
<rect width="254" height="83" fill="white"/>
</clipPath>
</defs>
</svg>
