<svg width="120" aria-hidden="true" viewBox="0 0 900 519.07" xmlns="http://www.w3.org/2000/svg"><path d="M515.07 13.89c-11.03-1.73-23.23-2.88-35.94-3.75-.67-.04-1.28.03-1.81.22a4.52 4.52 0 0 0-2.85 3.18l-20.72 84.94c-.6 2.54-1.88 3.78-3.9 3.78s-3.3-1.24-3.9-3.78l-20.72-84.94a4.5 4.5 0 0 0-2.85-3.18c-.53-.19-1.14-.26-1.81-.22-12.71.86-24.91 2.02-35.94 3.75-1.28.19-2.29 1.11-2.57 2.33-.06.28-.09.56-.09.84v154.3c0 .93.34 1.79.95 2.44.6.63 1.38.98 2.22.98h.03l22.44-3.46c1.79-.02 3.2-1.56 3.2-3.43V89.83c0-1.55.92-2.91 2.3-3.38.93-.31 1.9-.22 2.73.25.85.49 1.46 1.33 1.67 2.3l16.08 76.56c.13.6.47 1.15.95 1.53s1.09.57 1.7.55c4.54-.22 9.12-.33 13.61-.33s9.07.11 13.61.33c.61.02 1.22-.17 1.7-.55s.82-.93.95-1.53L482.19 89c.21-.98.82-1.82 1.67-2.3.51-.29 1.07-.43 1.63-.43.37 0 .74.06 1.1.18 1.37.47 2.3 1.83 2.3 3.38v78.07c0 1.87 1.41 3.4 3.14 3.42l22.56 3.47h.01c.78 0 1.58-.35 2.18-.99.61-.65.95-1.51.95-2.44V17.06c0-.28-.03-.56-.09-.84-.29-1.22-1.29-2.13-2.57-2.33M152.11 240.81l-12.48 18.29a5.198 5.198 0 0 1-3.36 2.2c-.46.09-.93.11-1.38.08-.91-.07-1.78-.37-2.55-.9l-29.81-20.35c-1.16-.79-1.94-1.98-2.2-3.36s.03-2.78.82-3.94l12.48-18.29c5.05-7.39 15.17-9.3 22.56-4.26l11.6 7.92c7.93 5.42 9.71 14.72 4.32 22.61m90.32 11.44l-52.87-13.03-1.56-.34c-1.79-.39-2.96-2.07-2.72-3.91 2.13-16.27-5.36-31.52-20.55-41.83l-11.63-7.87c-7.56-5.13-15.52-8.05-23.47-8.66a40.4 40.4 0 0 0-10.75.6c-11.4 2.18-21.37 9.14-28.83 20.13l-10.71 15.83c-3.97 6.43-14.23 22.44-17.91 29.16a4.612 4.612 0 0 0-.43 3.32c.27 1.12.94 2.09 1.9 2.74l78.64 53.53 46.91 31.7c.61.41 1.36.53 2.06.34l.06-.02a4.007 4.007 0 0 0 2.55-2.12c3.16-6.47 6.59-12.91 10.22-19.15.51-.88.67-1.92.45-2.91l-.04-.18a2.5 2.5 0 0 0-1.04-1.52L164 281.94a3.782 3.782 0 0 1-1.66-2.91c-.05-.83.2-1.7.73-2.47l6.19-9.1c.21-.31.42-.54.65-.73a5.194 5.194 0 0 1 4.38-.92l49.06 13.04c.49.13.99.11 1.47-.06l.26-.09c.75-.26 1.4-.74 1.88-1.37a304.1 304.1 0 0 1 16.9-20.37c.58-.63.77-1.82.55-2.64-.25-.87-1.1-1.86-1.98-2.07M675.55 132.74l-18.9 45.3c-.03.07-.06.15-.1.22-.22.42-.47.77-.75 1.05-.47.47-1.11.72-1.8.71h-.03c-.45-.01-.89-.13-1.29-.36-.06-.03-.21-.12-.27-.17l-17.59-12.09c-.07-.05-.22-.17-.29-.22-.9-.76-1.21-1.96-.77-2.99.15-.36.39-.73.7-1.08l.18-.18 35.57-33.87c1.1-1.05 2.84-1.14 4.15-.22 1.25.91 1.75 2.54 1.19 3.9m38.66-34.1l-25.59-17.59c-1.46-1-3.03-.89-4.54.31L565.71 186.78c-.87.76-1.27 1.9-1.08 3.05.2 1.16.97 2.17 2.06 2.7 7.43 3.58 14.83 7.5 21.99 11.64 1.44.84 3.21.63 4.31-.5l.09-.09 17.36-16.12c.14-.14.32-.31.51-.46 1.37-1.06 2.34-1.49 3.34-1.48h.04c.72.02 1.45.28 2.21.8l24.65 16.83c2.21 1.51 1.88 3.57 1.39 5.37-.07.27-.18.55-.31.82L633 231.33c-.7 1.51-.3 3.23 1 4.3 6.51 5.36 12.9 11.05 19 16.9.88.84 2.09 1.21 3.26.99 1.16-.22 2.09-1 2.49-2.09l56.79-148.49c.59-1.8.13-3.29-1.33-4.3M888.63 473.96l-55.39-18.54a5.022 5.022 0 0 1-3.32-4.97 5.022 5.022 0 0 1 3.32-4.98l55.39-18.54a2.41 2.41 0 0 0 1.55-2.41c-.62-8.5-1.48-17.05-2.58-25.41-.09-.74-.52-1.37-1.18-1.74-.7-.39-1.41-.42-2.2-.07l-94.54 37.43a15.62 15.62 0 0 1-5.88 1.14h-48.02c-1.88 0-3.41 1.53-3.41 3.41v22.33c0 1.89 1.53 3.41 3.41 3.41h48.02c2.03 0 4.01.38 5.88 1.14l94.54 37.43c.79.34 1.51.32 2.2-.07.65-.37 1.08-1 1.18-1.74 1.09-8.36 1.96-16.91 2.58-25.41.08-1.05-.56-2.04-1.55-2.41M772.75 276.57a5.228 5.228 0 0 1 2.69-2.98l32.58-15.53c1.27-.6 2.69-.68 4.01-.21s2.38 1.42 2.99 2.69l9.53 19.99c3.85 8.08.41 17.79-7.67 21.64l-12.68 6.04c-8.67 4.13-17.6.99-21.72-7.63l-9.53-19.99c-.59-1.27-.67-2.7-.2-4.02m-6.64 56a3.484 3.484 0 0 1 4.74-.38c12.99 10.03 29.93 11.22 46.49 3.27l12.65-6.1c8.24-3.95 14.77-9.37 19.29-15.93 2.05-2.97 3.68-6.18 4.88-9.59 3.85-10.95 2.85-23.07-2.9-35.04l-8.3-17.22c-3.56-6.66-12.24-23.59-16.2-30.15-.6-.99-1.54-1.71-2.65-2.05-1.1-.33-2.29-.24-3.33.26l-85.81 41.05-50.99 24.6c-.66.32-1.14.91-1.33 1.61l-.02.06c-.3 1.12-.09 2.31.55 3.28 4.01 5.99 7.84 12.19 11.41 18.46.5.88 1.32 1.55 2.29 1.85l.17.05c.61.19 1.26.15 1.84-.13l42.05-20.31c1.07-.51 2.29-.5 3.36.03.74.37 1.37 1.04 1.77 1.87l4.75 9.93c.16.34.26.63.3.93.2 1.53-.32 3.12-1.41 4.25l-35.95 35.84c-.36.36-.59.8-.69 1.29l-.05.28c-.15.78-.07 1.58.24 2.31 3.38 8.11 6.44 16.46 9.11 24.85.26.82 1.19 1.58 2.01 1.8.88.24 2.16 0 2.79-.65l37.85-39.14zM84.04 430.61c0 2.9-2.36 5.25-5.25 5.25H42.68c-2.89 0-5.24-2.36-5.24-5.25v-22.14c0-8.95 7.28-16.23 16.24-16.23h14.04c9.61 0 16.32 6.68 16.32 16.23zm80.58 5.35c-.27-.06-.55-.1-.83-.1h-46.15c-2.45 0-4.44-1.99-4.44-4.44v-24.05c0-25.03-20.36-45.39-45.39-45.39l-15.89.02c-22.25.66-40.39 18.22-42.2 40.85-1.03 12.85-1.43 21.86-1.43 33.01V461.64c.02 1.86 1.78 3.38 3.64 3.38h151.86c1.01 0 1.98-.44 2.66-1.22.1-.12.2-.25.28-.4.27-.46.42-1.05.43-1.64l-.16-22.65c-.05-1.52-1.03-2.82-2.38-3.15M243.28 63.69a3.225 3.225 0 0 0-4.42-1.18l-19.65 11.35a3.216 3.216 0 0 0-1.18 4.41l76.15 131.9a3.225 3.225 0 0 0 4.42 1.18L318.25 200c1.55-.89 2.07-2.87 1.18-4.42z"></path></svg>
