<?xml version="1.0" encoding="UTF-8"?>
<svg width="397px" height="141px" viewBox="0 0 397 141" version="1.1" xmlns="http://www.w3.org/2000/svg" xmlns:xlink="http://www.w3.org/1999/xlink">
    <!-- Generator: Sketch 56.3 (81716) - https://sketch.com -->
    <title>Artboard</title>
    <desc>Created with Sketch.</desc>
    <g id="Artboard" stroke="none" stroke-width="1" fill="none" fill-rule="evenodd">
        <g id="primary-logo" transform="translate(56.000000, 28.000000)" fill="#000000" fill-rule="nonzero">
            <g id="Group">
                <path d="M23.2035918,79.7783066 L23.2035918,81.9163648 L0.832902431,81.9163648 L0.832902431,79.7783066 C7.40430586,79.7783066 8.55322771,76.4007323 8.55322771,66.2294083 L8.55322771,33.8733181 C8.55322771,23.7019941 7.38068317,22.0764694 0.832902431,22.0764694 L0.832902431,19.9384112 L13.9284639,17.3928996 C14.3966227,18.4093887 15.0967134,21.9713893 15.3930708,23.596914 C18.2063187,20.0370579 22.1319806,17.3928996 27.5050693,17.3928996 C36.7823447,17.3928996 44.4017367,25.7328277 44.4017367,36.0070873 C44.4017367,46.2792024 36.7780497,54.7177771 27.5050693,54.7177771 C22.8105961,54.7091991 18.3781201,52.4531939 15.4897091,48.6016868 L15.4897091,66.2143969 C15.4897091,76.4007323 16.7567444,79.7761621 23.2057393,79.7761621 L23.2035918,79.7783066 Z M25.4520426,21.4652893 C20.955141,21.4652893 17.3430167,24.7184832 15.4875616,29.393475 L15.4875616,42.517764 C17.3430167,47.402916 20.955141,50.6496764 25.4520426,50.6496764 C32.9619112,50.6496764 36.4902824,44.1432887 36.4902824,35.9942203 C36.4902824,27.845152 32.9747963,21.4652893 25.4520426,21.4652893 L25.4520426,21.4652893 Z M74.8062889,28.4799215 C72.9121785,28.4070088 71.4067688,26.7964956 71.3917362,24.8214188 C71.3917362,22.6855051 70.2170441,21.4652893 68.2649507,21.4652893 C66.0164999,21.4652893 60.7550822,25.2267277 60.7550822,33.3607846 L60.7550822,38.9557633 C60.7550822,49.1270873 61.9276267,50.8576921 68.4711124,50.8576921 L68.4711124,53.0021837 L46.0810953,53.0021837 L46.0810953,50.86627 C52.5300903,50.86627 53.8014206,49.1356653 53.8014206,38.9643413 L53.8014206,33.8733181 C53.8014206,23.6869827 52.5257953,22.0764694 46.0810953,22.0764694 L46.0810953,19.9384112 L59.0950512,17.3928996 C59.567505,18.4093887 60.4673148,22.5825695 60.7572297,24.7206277 C62.7114706,20.652527 67.1074388,17.3928996 71.0180681,17.3928996 C76.3911568,17.3928996 78.7319508,21.154338 78.7319508,23.6998496 C78.7147707,25.9386989 77.8364361,28.4777771 74.8041414,28.4777771 L74.8062889,28.4799215 Z M199.948574,52.937849 L199.976492,52.9914613 L201.028775,52.9914613 C200.667931,52.9966357 200.307126,52.9787283 199.948574,52.937849 L199.948574,52.937849 Z M194.90835,30.6737365 L194.940563,30.6737365 C194.940563,29.3548741 194.912646,28.1732592 194.833187,27.1224583 C194.833187,28.0360118 194.876138,29.2240602 194.90835,30.6737365 L194.90835,30.6737365 Z M92.15823,0.239110821 C90.3886756,0.217665904 88.7844801,1.31135665 88.0972745,3.00979405 C87.4106189,4.70231773 87.7747204,6.63922253 89.0292971,7.96785878 C90.2812997,9.27170971 92.1646726,9.65557372 93.7967858,8.9393135 C95.4246041,8.22519778 96.4768876,6.55463877 96.45756,4.71466492 C96.4360848,2.24849951 94.5247942,0.258411246 92.15823,0.239110821 L92.15823,0.239110821 Z" id="Shape"></path>
                <path d="M234.515015,17.3950441 C230.606533,17.3950441 226.208417,20.6503825 224.254177,24.7227721 C223.964262,22.5890029 223.081632,18.4179667 222.594146,17.3950441 L209.59737,19.9405557 L209.59737,22.0764694 C216.046365,22.0764694 217.317695,23.7019941 217.317695,33.8733181 L217.317695,38.9557633 C217.317695,49.1270873 216.046365,50.8576921 209.59737,50.8576921 L208.813526,50.8576921 C202.942213,50.7140111 201.86416,48.7260673 201.86416,38.9643413 L201.86416,30.5665119 C201.86416,20.9034325 197.955678,16.7345407 188.478683,16.7345407 C182.22726,16.7345407 176.06818,19.989879 176.06818,24.8707421 C176.023082,26.1574371 176.654452,27.3647859 177.717473,28.0231448 C178.780494,28.6772148 180.101218,28.6772148 181.164239,28.0231448 C182.22726,27.3647859 182.860778,26.1574371 182.813532,24.8707421 C182.813532,21.6175482 186.131447,19.9855901 188.379897,19.9855901 C192.984175,19.9855901 194.448782,22.070036 194.818155,27.1031579 C194.897613,28.1539588 194.925531,29.3355737 194.925531,30.6544361 L194.893318,30.6544361 C183.769177,32.6917032 174.116086,36.4531415 174.116086,45.091154 C174.05888,47.2533694 174.840618,49.354019 176.297964,50.9541942 C167.282686,50.9541942 166.548235,49.9462831 166.83815,39.028676 L166.83815,32.6595358 C166.83815,24.0172344 164.297637,17.5129912 155.602338,17.5129912 C149.842697,17.5129912 144.17325,21.7869631 141.9248,25.1430925 C140.558979,20.4638117 137.533126,17.5129912 131.573765,17.5129912 C125.906467,17.5129912 121.510499,21.3773652 118.8712,24.8407192 C118.57699,22.70695 117.698655,18.5380582 117.211169,17.5129912 L104.214393,20.0585028 L104.214393,22.192272 C110.663388,22.192272 111.934718,23.8199412 111.934718,33.9912651 L111.934718,39.0737104 C111.934718,49.2428898 110.663388,50.9734946 104.214393,50.9734946 C96.6121812,51.1343315 95.6586835,48.8676038 95.6586835,39.0479765 L95.6586835,17.5022687 L81.0061718,20.0477803 L81.0061718,22.183694 C87.4487242,22.183694 88.7222021,23.8092187 88.7222021,33.9826872 L88.7222021,39.0629879 C88.7222021,49.2343119 87.4508717,50.9649166 81.0061718,50.9649166 L81.0061718,53.0986858 L124.927199,53.0986858 L124.927199,50.9627721 C119.551963,50.9627721 118.8712,49.6396208 118.8712,39.0608434 L118.8712,32.4515201 C118.8712,26.1510036 125.513471,22.2866296 128.934467,22.2866296 C134.013345,22.2866296 135.974029,26.554168 135.974029,33.1656358 L135.974029,39.0629879 C135.974029,49.845492 135.190185,50.9649166 129.817096,50.9649166 L129.817096,53.0986858 L148.964362,53.0986858 L148.964362,50.9627721 C143.492487,50.9627721 142.811724,49.845492 142.811724,39.0608434 L142.811724,32.4515201 C142.822462,26.1317032 149.679485,22.2866296 152.963039,22.2866296 C158.046213,22.2866296 159.905963,26.554168 159.905963,33.1656358 L159.905963,39.0629879 C159.905963,49.845492 159.218758,50.9649166 153.845669,50.9649166 L153.845669,53.0986858 L179.587961,53.0986858 C180.66172,53.4718274 181.782724,53.6562537 182.912318,53.6499829 C186.816505,53.6499829 190.336286,52.0242955 195.114512,47.5487414 C195.554753,50.8405361 196.884067,52.6140307 199.924951,52.9228375 C200.262112,52.9571494 200.625042,52.9764498 201.005153,52.9764498 L231.946584,52.9764498 L231.946584,50.8405361 C225.405246,50.8405361 224.230554,49.1120758 224.230554,38.9386074 L224.230554,33.3629291 C224.230554,25.2267277 229.507004,21.4652893 231.740422,21.4652893 C233.694663,21.4652893 234.867208,22.6876496 234.867208,24.8214188 C234.882241,26.7943511 236.38765,28.4070088 238.281761,28.4799215 C241.314055,28.4799215 242.19286,25.9408434 242.19286,23.7019941 C242.231045,21.1564825 239.888104,17.3971886 234.515015,17.3971886 L234.515015,17.3950441 Z M194.940563,44.2076234 C190.443662,48.3786597 188.102868,49.0927754 186.049841,49.0927754 C183.605966,49.0927754 181.456301,47.1627329 181.456301,43.9095391 C181.456301,39.433985 185.680468,36.0928669 194.942711,33.8390062 L194.942711,44.2076234 L194.940563,44.2076234 Z M259.033222,63.7503759 L263.918824,51.0464073 L252.66798,25.7156718 C250.612806,21.2401177 249.148199,19.7153841 246.096577,19.7153841 L246.096577,17.678117 L263.388387,17.678117 L263.388387,19.7153841 C259.089057,19.7153841 258.013151,20.7318732 260.261602,25.7156718 L267.395655,41.9837856 L273.647078,25.7156718 C275.500386,21.1371821 274.819623,19.7153841 270.831683,19.7153841 L270.831683,17.678117 L284.507074,17.678117 L284.507074,19.7153841 C281.479074,19.7153841 279.344442,21.2401177 277.570593,25.7156718 L256.840607,77.0119124 C256.061058,79.0491795 254.789727,80.7797842 253.226335,80.7797842 C251.860514,80.7797842 249.904125,79.9648774 249.904125,77.4236548 C249.90842,73.4306113 255.985895,71.6764171 259.031074,63.7482314 L259.033222,63.7503759 Z" id="Shape"></path>
            </g>
        </g>
    </g>
</svg>